<svg id="Grupo_1071584" data-name="Grupo 1071584" xmlns="http://www.w3.org/2000/svg" width="76" height="76" viewBox="0 0 76 76">
  <circle id="Elipse_9667" data-name="Elipse 9667" cx="38" cy="38" r="38" fill="#3bc192"/>
  <g id="simpleline" transform="translate(17.658 17.651)">
    <rect id="Rectángulo_386911" data-name="Rectángulo 386911" width="33.903" height="2.712" rx="1.356" transform="translate(3.39 37.307)" fill="#534741"/>
    <path id="Trazado_835329" data-name="Trazado 835329" d="M40.9,58.356a1.356,1.356,0,0,1-1.356,1.356H8.356a1.356,1.356,0,1,1,0-2.712H9.712a1.356,1.356,0,0,0,1.356,1.356Z" transform="translate(-3.61 -19.693)" fill="#3f312b"/>
    <rect id="Rectángulo_386912" data-name="Rectángulo 386912" width="39.328" height="21.698" rx="4" transform="translate(0.678 10.184)" fill="#f9c33d"/>
    <path id="Trazado_835330" data-name="Trazado 835330" d="M42.328,35.986A2.712,2.712,0,0,1,39.615,38.7H5.712A2.712,2.712,0,0,1,3,35.986V19.712A2.712,2.712,0,0,1,5.712,17H7.746V33.274a2.712,2.712,0,0,0,2.712,2.712Z" transform="translate(-2.322 -6.816)" fill="#f7a83e"/>
    <path id="Trazado_835331" data-name="Trazado 835331" d="M35.205,54.424H23L25.712,49h6.781Z" transform="translate(-8.761 -17.118)" fill="#534741"/>
    <path id="Trazado_835332" data-name="Trazado 835332" d="M35.205,54.424H23L25.712,49h2.034L26.7,51.109a1.356,1.356,0,0,0,1.214,1.96h6.618Z" transform="translate(-8.761 -17.118)" fill="#3f312b"/>
    <path id="Trazado_835333" data-name="Trazado 835333" d="M24.69,3.682,13.2,22.668A1.356,1.356,0,0,0,14.4,24.7H37.377a1.356,1.356,0,0,0,1.2-2.034L27.09,3.682a1.41,1.41,0,0,0-2.4,0Z" transform="translate(-5.548 -2.312)" fill="#f7616c"/>
    <path id="Trazado_835334" data-name="Trazado 835334" d="M37.377,24.7H14.4a1.356,1.356,0,0,1-1.2-2.034L24.69,3.685a1.417,1.417,0,0,1,2.4,0l.678,1.146-9.14,15.128a1.356,1.356,0,0,0,1.2,2.034H38.17l.407.678a1.356,1.356,0,0,1-1.2,2.034Z" transform="translate(-5.548 -2.315)" fill="#f2354d"/>
    <rect id="Rectángulo_386913" data-name="Rectángulo 386913" width="2.712" height="8.137" rx="1.356" transform="translate(18.986 6.116)" fill="#fff"/>
    <circle id="Elipse_11130" data-name="Elipse 11130" cx="1.356" cy="1.356" r="1.356" transform="translate(18.986 16.965)" fill="#fff"/>
    <path id="Trazado_835335" data-name="Trazado 835335" d="M39.225,56H8.034a2.034,2.034,0,0,0,0,4.068H39.225a2.034,2.034,0,0,0,0-4.068Zm0,2.712H8.034a.678.678,0,1,1,0-1.356H39.225a.678.678,0,1,1,0,1.356Z" transform="translate(-3.288 -19.371)"/>
    <path id="Trazado_835336" data-name="Trazado 835336" d="M17.853,39.054l-.861,1.729a.678.678,0,1,0,1.207.61l1.173-2.339h5.94l1.173,2.339a.678.678,0,0,0,.6.373.631.631,0,0,0,.305-.075.678.678,0,0,0,.3-.909l-.861-1.729h4.326a.678.678,0,0,0,0-1.356H5.39a2.034,2.034,0,0,1-2.034-2.034V19.39A2.034,2.034,0,0,1,5.39,17.356h7.242a.678.678,0,0,0,0-1.356H5.39A3.39,3.39,0,0,0,2,19.39V35.664a3.39,3.39,0,0,0,3.39,3.39Z" transform="translate(-2 -6.494)"/>
    <path id="Trazado_835337" data-name="Trazado 835337" d="M53.24,16H46a.678.678,0,1,0,0,1.356H53.24a2.034,2.034,0,0,1,2.034,2.034V35.664A2.034,2.034,0,0,1,53.24,37.7H51.884a.678.678,0,0,0,0,1.356H53.24a3.39,3.39,0,0,0,3.39-3.39V19.39A3.39,3.39,0,0,0,53.24,16Z" transform="translate(-15.946 -6.494)"/>
    <path id="Trazado_835338" data-name="Trazado 835338" d="M48.678,48a.678.678,0,1,0,0,1.356h1.356a.678.678,0,0,0,0-1.356Z" transform="translate(-16.809 -16.796)"/>
    <path id="Trazado_835339" data-name="Trazado 835339" d="M12.254,24a2.034,2.034,0,0,0,1.817,1.051H37.044A2.034,2.034,0,0,0,38.862,24a1.98,1.98,0,0,0,0-2.034L27.334,2.977a2.082,2.082,0,0,0-3.553,0L12.288,21.963A1.98,1.98,0,0,0,12.254,24Zm1.193-1.315L24.975,3.7a.732.732,0,0,1,1.234,0L37.736,22.681a.617.617,0,0,1,0,.678.678.678,0,0,1-.631.359H14.072a.678.678,0,0,1-.631-.359.617.617,0,0,1,.007-.678Z" transform="translate(-5.216 -1.98)"/>
    <path id="Trazado_835340" data-name="Trazado 835340" d="M31.034,19.493a2.034,2.034,0,0,0,2.034-2.034V12.034a2.034,2.034,0,0,0-4.068,0v5.425A2.034,2.034,0,0,0,31.034,19.493Zm-.678-7.459a.678.678,0,0,1,1.356,0v5.425a.678.678,0,1,1-1.356,0Z" transform="translate(-10.692 -4.562)"/>
    <path id="Trazado_835341" data-name="Trazado 835341" d="M31.034,30.068A2.034,2.034,0,1,0,29,28.034,2.034,2.034,0,0,0,31.034,30.068Zm0-2.712a.678.678,0,1,1-.678.678A.678.678,0,0,1,31.034,27.356Z" transform="translate(-10.692 -9.713)"/>
  </g>
</svg>
