<svg xmlns="http://www.w3.org/2000/svg" width="86" height="72.328" viewBox="0 0 86 72.328">
  <g id="Grupo_1104237" data-name="Grupo 1104237" transform="translate(-233 -522)">
    <rect id="Rect치ngulo_391523" data-name="Rect치ngulo 391523" width="86" height="72.328" rx="6" transform="translate(233 522)" fill="#fff"/>
    <g id="cambiar-el-tamano" transform="translate(230.892 513.432)">
      <g id="Grupo_1104224" data-name="Grupo 1104224" transform="translate(17.192 17.25)">
        <path id="Trazado_840832" data-name="Trazado 840832" d="M89.432,19H75.917a2.783,2.783,0,1,0,0,5.565h6.8l-14.2,14.2A2.783,2.783,0,1,0,72.454,42.7l14.2-14.2v6.8a2.783,2.783,0,1,0,5.565,0V21.78A2.78,2.78,0,0,0,89.432,19Z" transform="translate(-37.859 -17.965)" fill="#35b0cb"/>
        <rect id="Rect치ngulo_391536" data-name="Rect치ngulo 391536" width="26.619" height="26.619" rx="3" transform="translate(0.952 27.654)" fill="#fcbc40"/>
        <g id="Grupo_1104223" data-name="Grupo 1104223">
          <path id="Trazado_840833" data-name="Trazado 840833" d="M93.825,62.25a1.035,1.035,0,0,0-1.035,1.035V83.528a5.346,5.346,0,0,1-5.34,5.34H72.885a1.035,1.035,0,0,0,0,2.07H87.45a7.419,7.419,0,0,0,7.411-7.411V63.285a1.035,1.035,0,0,0-1.035-1.035Z" transform="translate(-39.553 -35.631)" fill="#d9176c"/>
          <path id="Trazado_840834" data-name="Trazado 840834" d="M44.9,17.25H24.661a7.419,7.419,0,0,0-7.411,7.411V38.988a1.035,1.035,0,0,0,2.07,0V24.661a5.346,5.346,0,0,1,5.34-5.34H44.9a1.035,1.035,0,0,0,0-2.07Z" transform="translate(-17.25 -17.25)" fill="#d9176c"/>
        </g>
      </g>
      <g id="Grupo_1104225" data-name="Grupo 1104225" transform="translate(17.108 17.25)">
        <path id="Trazado_840835" data-name="Trazado 840835" d="M88.775,17.25H75.26a3.818,3.818,0,0,0,0,7.635h4.3L75.9,28.547a1.035,1.035,0,1,0,1.464,1.464l5.428-5.429a1.035,1.035,0,0,0-.732-1.767h-6.8a1.747,1.747,0,1,1,0-3.495H88.775a1.75,1.75,0,0,1,1.748,1.747V34.583a1.748,1.748,0,1,1-3.5,0v-6.8a1.035,1.035,0,0,0-1.765-.732l-14.2,14.2a1.791,1.791,0,0,1-2.472,0,1.748,1.748,0,0,1,0-2.471L72.673,34.7a1.035,1.035,0,0,0-1.464-1.464l-4.078,4.082a3.818,3.818,0,0,0,5.4,5.4l12.43-12.431v4.3a3.818,3.818,0,1,0,7.636,0V21.065a3.822,3.822,0,0,0-3.818-3.815Z" transform="translate(-37.118 -17.25)" fill="#031e60"/>
        <path id="Trazado_840836" data-name="Trazado 840836" d="M18.143,88.262a1.035,1.035,0,0,0,1.035-1.035V86.044a1.035,1.035,0,0,0-2.07,0v1.183A1.035,1.035,0,0,0,18.143,88.262Z" transform="translate(-17.108 -44.928)" fill="#031e60"/>
        <path id="Trazado_840837" data-name="Trazado 840837" d="M39.814,62.25H23.091a5.99,5.99,0,0,0-5.983,5.983V70.21a1.035,1.035,0,1,0,2.07,0V68.233a3.917,3.917,0,0,1,3.913-3.912H39.814a3.916,3.916,0,0,1,3.912,3.912V84.956a3.916,3.916,0,0,1-3.912,3.912H23.091a3.917,3.917,0,0,1-3.913-3.912,1.035,1.035,0,0,0-2.07,0,5.99,5.99,0,0,0,5.983,5.983H39.814A5.989,5.989,0,0,0,45.8,84.956V68.233A5.989,5.989,0,0,0,39.814,62.25Z" transform="translate(-17.108 -35.631)" fill="#031e60"/>
        <path id="Trazado_840838" data-name="Trazado 840838" d="M93.825,62.25a1.035,1.035,0,0,0-1.035,1.035V83.528a5.346,5.346,0,0,1-5.34,5.34H72.885a1.035,1.035,0,0,0,0,2.07H87.45a7.419,7.419,0,0,0,7.411-7.411V63.285a1.035,1.035,0,0,0-1.035-1.035Z" transform="translate(-39.469 -35.631)" fill="#031e60"/>
        <path id="Trazado_840839" data-name="Trazado 840839" d="M44.9,17.25H24.661a7.419,7.419,0,0,0-7.411,7.411V38.988a1.035,1.035,0,0,0,2.07,0V24.661a5.346,5.346,0,0,1,5.34-5.34H44.9a1.035,1.035,0,0,0,0-2.07Z" transform="translate(-17.166 -17.25)" fill="#031e60"/>
        <g id="codigo-binario_1_" data-name="codigo-binario (1)" transform="translate(-1.864 26.501)">
          <path id="Trazado_840840" data-name="Trazado 840840" d="M369.745,183.167H368l.871,1.741v5.843a.871.871,0,0,0,1.741,0v-6.714A.871.871,0,0,0,369.745,183.167Z" transform="translate(-346.643 -172.535)" fill="#02e885"/>
          <path id="Trazado_840841" data-name="Trazado 840841" d="M353.875,183.167a.871.871,0,0,0,0,1.741h.871v-.871A.871.871,0,0,0,353.875,183.167Z" transform="translate(-332.514 -172.535)" fill="#05ff77"/>
          <path id="Trazado_840842" data-name="Trazado 840842" d="M11.856,186.214a1.306,1.306,0,0,0-2.612,0v2.361a1.306,1.306,0,1,0,2.612,0c0,2.133,0,3.047-1.306,3.047A3.051,3.051,0,0,1,7.5,188.575v-2.361a3.051,3.051,0,0,1,3.047-3.047C11.856,183.167,11.856,184.038,11.856,186.214Z" transform="translate(-7.067 -172.535)" fill="#05ff77"/>
          <path id="Trazado_840843" data-name="Trazado 840843" d="M63.05,186.214v2.361A3.051,3.051,0,0,1,60,191.622c.72,0,1.306-1.367,1.306-3.047v-2.361c0-1.68-.586-3.047-1.306-3.047A3.051,3.051,0,0,1,63.05,186.214Z" transform="translate(-56.52 -172.535)" fill="#02e885"/>
          <path id="Trazado_840844" data-name="Trazado 840844" d="M151.744,183.167H150l.871,1.741v5.843a.871.871,0,1,0,1.741,0v-6.714A.871.871,0,0,0,151.744,183.167Z" transform="translate(-141.296 -172.535)" fill="#02e885"/>
          <path id="Trazado_840845" data-name="Trazado 840845" d="M135.874,183.167a.871.871,0,1,0,0,1.741h.871v-.871A.871.871,0,0,0,135.874,183.167Z" transform="translate(-127.167 -172.535)" fill="#05ff77"/>
          <path id="Trazado_840846" data-name="Trazado 840846" d="M229.856,186.214a1.306,1.306,0,1,0-2.612,0v2.361a1.306,1.306,0,1,0,2.612,0c0,2.133,0,3.047-1.306,3.047a3.051,3.051,0,0,1-3.047-3.047v-2.361a3.051,3.051,0,0,1,3.047-3.047C229.856,183.167,229.856,184.038,229.856,186.214Z" transform="translate(-212.413 -172.535)" fill="#05ff77"/>
          <path id="Trazado_840847" data-name="Trazado 840847" d="M281.05,186.214v2.361A3.051,3.051,0,0,1,278,191.622c.72,0,1.306-1.367,1.306-3.047v-2.361c0-1.68-.586-3.047-1.306-3.047A3.051,3.051,0,0,1,281.05,186.214Z" transform="translate(-261.866 -172.535)" fill="#02e885"/>
          <path id="Trazado_840848" data-name="Trazado 840848" d="M461.238,183.167H459.5l.871,1.741v5.843a.871.871,0,1,0,1.741,0v-6.714A.871.871,0,0,0,461.238,183.167Z" transform="translate(-432.825 -172.535)" fill="#02e885"/>
          <path id="Trazado_840849" data-name="Trazado 840849" d="M445.368,183.167a.871.871,0,1,0,0,1.741h.871v-.871A.871.871,0,0,0,445.368,183.167Z" transform="translate(-418.696 -172.535)" fill="#05ff77"/>
          <path id="Trazado_840850" data-name="Trazado 840850" d="M102.353,10.547a1.306,1.306,0,1,0-2.612,0v2.361a1.306,1.306,0,1,0,2.612,0c0,2.133,0,3.047-1.306,3.047A3.051,3.051,0,0,1,98,12.908V10.547A3.051,3.051,0,0,1,101.047,7.5c1.306,0,1.306.871,1.306,3.047Z" transform="translate(-92.312 -7.065)" fill="#05ff77"/>
          <path id="Trazado_840851" data-name="Trazado 840851" d="M153.547,10.547v2.361a3.051,3.051,0,0,1-3.047,3.047c.72,0,1.306-1.367,1.306-3.047V10.547c0-1.68-.586-3.047-1.306-3.047a3.051,3.051,0,0,1,3.047,3.047Z" transform="translate(-141.764 -7.065)" fill="#02e885"/>
          <path id="Trazado_840852" data-name="Trazado 840852" d="M461.241,7.5H459.5l.871,1.741v5.843a.871.871,0,0,0,1.741,0V8.371a.871.871,0,0,0-.871-.871Z" transform="translate(-432.828 -7.065)" fill="#02e885"/>
          <path id="Trazado_840853" data-name="Trazado 840853" d="M445.371,7.5a.871.871,0,0,0,0,1.741h.871V8.371A.871.871,0,0,0,445.371,7.5Z" transform="translate(-418.699 -7.065)" fill="#05ff77"/>
          <path id="Trazado_840854" data-name="Trazado 840854" d="M242.741,7.5H241l.871,1.741v5.843a.871.871,0,0,0,1.741,0V8.371a.871.871,0,0,0-.871-.871Z" transform="translate(-227.011 -7.065)" fill="#02e885"/>
          <path id="Trazado_840855" data-name="Trazado 840855" d="M226.871,7.5a.871.871,0,0,0,0,1.741h.871V8.371A.871.871,0,0,0,226.871,7.5Z" transform="translate(-212.882 -7.065)" fill="#05ff77"/>
          <path id="Trazado_840856" data-name="Trazado 840856" d="M24.241,7.5H22.5l.871,1.741v5.843a.871.871,0,1,0,1.741,0V8.371a.871.871,0,0,0-.871-.871Z" transform="translate(-21.194 -7.065)" fill="#02e885"/>
          <path id="Trazado_840857" data-name="Trazado 840857" d="M8.371,7.5a.871.871,0,1,0,0,1.741h.871V8.371A.871.871,0,0,0,8.371,7.5Z" transform="translate(-7.065 -7.065)" fill="#05ff77"/>
          <path id="Trazado_840858" data-name="Trazado 840858" d="M320.853,10.547a1.306,1.306,0,0,0-2.612,0v2.361a1.306,1.306,0,0,0,2.612,0c0,2.133,0,3.047-1.306,3.047a3.051,3.051,0,0,1-3.047-3.047V10.547A3.051,3.051,0,0,1,319.547,7.5c1.306,0,1.306.871,1.306,3.047Z" transform="translate(-298.128 -7.065)" fill="#05ff77"/>
          <path id="Trazado_840859" data-name="Trazado 840859" d="M372.047,10.547v2.361A3.051,3.051,0,0,1,369,15.955c.72,0,1.306-1.367,1.306-3.047V10.547c0-1.68-.586-3.047-1.306-3.047a3.051,3.051,0,0,1,3.047,3.047Z" transform="translate(-347.581 -7.065)" fill="#02e885"/>
          <path id="Trazado_840860" data-name="Trazado 840860" d="M102.353,361.88a1.306,1.306,0,1,0-2.612,0v2.361a1.306,1.306,0,1,0,2.612,0c0,2.133,0,3.047-1.306,3.047A3.051,3.051,0,0,1,98,364.241V361.88a3.051,3.051,0,0,1,3.047-3.047C102.353,358.833,102.353,359.7,102.353,361.88Z" transform="translate(-92.312 -338.004)" fill="#05ff77"/>
          <path id="Trazado_840861" data-name="Trazado 840861" d="M153.547,361.88v2.361a3.051,3.051,0,0,1-3.047,3.047c.72,0,1.306-1.367,1.306-3.047V361.88c0-1.68-.586-3.047-1.306-3.047A3.051,3.051,0,0,1,153.547,361.88Z" transform="translate(-141.764 -338.004)" fill="#02e885"/>
          <path id="Trazado_840862" data-name="Trazado 840862" d="M461.241,358.833H459.5l.871,1.741v5.843a.871.871,0,0,0,1.741,0V359.7A.871.871,0,0,0,461.241,358.833Z" transform="translate(-432.828 -338.004)" fill="#02e885"/>
          <path id="Trazado_840863" data-name="Trazado 840863" d="M445.371,358.833a.871.871,0,0,0,0,1.741h.871V359.7A.871.871,0,0,0,445.371,358.833Z" transform="translate(-418.699 -338.004)" fill="#05ff77"/>
          <path id="Trazado_840864" data-name="Trazado 840864" d="M242.741,358.833H241l.871,1.741v5.843a.871.871,0,0,0,1.741,0V359.7A.871.871,0,0,0,242.741,358.833Z" transform="translate(-227.011 -338.004)" fill="#02e885"/>
          <path id="Trazado_840865" data-name="Trazado 840865" d="M226.871,358.833a.871.871,0,1,0,0,1.741h.871V359.7A.871.871,0,0,0,226.871,358.833Z" transform="translate(-212.882 -338.004)" fill="#05ff77"/>
          <path id="Trazado_840866" data-name="Trazado 840866" d="M24.241,358.833H22.5l.871,1.741v5.843a.871.871,0,0,0,1.741,0V359.7A.871.871,0,0,0,24.241,358.833Z" transform="translate(-21.194 -338.004)" fill="#02e885"/>
          <path id="Trazado_840867" data-name="Trazado 840867" d="M8.371,358.833a.871.871,0,1,0,0,1.741h.871V359.7A.871.871,0,0,0,8.371,358.833Z" transform="translate(-7.065 -338.004)" fill="#05ff77"/>
          <path id="Trazado_840868" data-name="Trazado 840868" d="M320.853,361.88a1.306,1.306,0,1,0-2.612,0v2.361a1.306,1.306,0,0,0,2.612,0c0,2.133,0,3.047-1.306,3.047a3.051,3.051,0,0,1-3.047-3.047V361.88a3.051,3.051,0,0,1,3.047-3.047C320.853,358.833,320.853,359.7,320.853,361.88Z" transform="translate(-298.128 -338.004)" fill="#05ff77"/>
          <path id="Trazado_840869" data-name="Trazado 840869" d="M372.047,361.88v2.361A3.051,3.051,0,0,1,369,367.288c.72,0,1.306-1.367,1.306-3.047V361.88c0-1.68-.586-3.047-1.306-3.047A3.051,3.051,0,0,1,372.047,361.88Z" transform="translate(-347.581 -338.004)" fill="#02e885"/>
          <path id="Trazado_840870" data-name="Trazado 840870" d="M131.421,179.895a.435.435,0,0,0,.435-.435v-2.486a1.308,1.308,0,0,0-1.306-1.306h-1.741a1.306,1.306,0,1,0,0,2.612h.435v5.408a1.306,1.306,0,0,0,2.612,0V181.2a.435.435,0,0,0-.871,0v2.486a.435.435,0,0,1-.871,0v-5.843a.435.435,0,0,0-.435-.435h-.871a.435.435,0,1,1,0-.871h1.741a.436.436,0,0,1,.435.435v2.486A.435.435,0,0,0,131.421,179.895Z" transform="translate(-120.102 -165.47)"/>
          <path id="Trazado_840871" data-name="Trazado 840871" d="M0,179.15v2.361a3.483,3.483,0,1,0,6.966,0V179.15a3.483,3.483,0,0,0-6.966,0Zm6.095,0v2.361a2.612,2.612,0,1,1-5.224,0V179.15a2.612,2.612,0,1,1,5.224,0Z" transform="translate(-0.003 -165.47)"/>
          <path id="Trazado_840872" data-name="Trazado 840872" d="M30,207.408v2.36a1.741,1.741,0,1,0,3.483,0v-2.36a1.741,1.741,0,1,0-3.483,0Zm2.612,0v2.36a.871.871,0,0,1-1.741,0v-2.36a.871.871,0,0,1,1.741,0Z" transform="translate(-28.261 -193.729)"/>
          <path id="Trazado_840873" data-name="Trazado 840873" d="M348.551,184.993a1.307,1.307,0,0,0,1.306-1.306v-6.714a1.308,1.308,0,0,0-1.306-1.306H346.81a1.306,1.306,0,0,0,0,2.612h.435v5.408A1.308,1.308,0,0,0,348.551,184.993Zm-1.741-7.585a.435.435,0,1,1,0-.871h1.741a.436.436,0,0,1,.435.435v6.714a.435.435,0,0,1-.871,0v-5.843a.435.435,0,0,0-.435-.435Z" transform="translate(-325.449 -165.47)"/>
          <path id="Trazado_840874" data-name="Trazado 840874" d="M221.486,184.992a3.487,3.487,0,0,0,3.483-3.483v-2.361a3.483,3.483,0,0,0-6.966,0v2.361A3.487,3.487,0,0,0,221.486,184.992Zm-2.612-5.843a2.612,2.612,0,0,1,5.224,0v2.361a2.612,2.612,0,0,1-5.224,0Z" transform="translate(-205.349 -165.469)"/>
          <path id="Trazado_840875" data-name="Trazado 840875" d="M249.744,211.51a1.743,1.743,0,0,0,1.741-1.741v-2.36a1.741,1.741,0,1,0-3.483,0v2.36A1.743,1.743,0,0,0,249.744,211.51Zm-.871-4.1a.871.871,0,0,1,1.741,0v2.36a.871.871,0,0,1-1.741,0Z" transform="translate(-233.607 -193.729)"/>
          <path id="Trazado_840876" data-name="Trazado 840876" d="M440.044,184.993a1.308,1.308,0,0,0,1.306-1.306v-6.714a1.308,1.308,0,0,0-1.306-1.306H438.3a1.306,1.306,0,0,0,0,2.612h.435v5.408A1.307,1.307,0,0,0,440.044,184.993Zm-1.741-7.585a.435.435,0,0,1,0-.871h1.741a.436.436,0,0,1,.435.435v6.714a.435.435,0,0,1-.871,0v-5.843a.435.435,0,0,0-.435-.435Z" transform="translate(-411.631 -165.47)"/>
          <path id="Trazado_840877" data-name="Trazado 840877" d="M219.806,2.612h.435V8.02a1.306,1.306,0,0,0,2.612,0V1.306A1.308,1.308,0,0,0,221.547,0h-1.741a1.306,1.306,0,0,0,0,2.612Zm0-1.741h1.741a.436.436,0,0,1,.435.435V8.02a.435.435,0,0,1-.871,0V2.177a.435.435,0,0,0-.435-.435h-.871a.435.435,0,1,1,0-.871Z" transform="translate(-205.817 0)"/>
          <path id="Trazado_840878" data-name="Trazado 840878" d="M93.983,0A3.487,3.487,0,0,0,90.5,3.483V5.843a3.483,3.483,0,0,0,6.966,0V3.483A3.487,3.487,0,0,0,93.983,0Zm2.612,5.843a2.612,2.612,0,1,1-5.224,0V3.483a2.612,2.612,0,1,1,5.224,0Z" transform="translate(-85.247 0)"/>
          <path id="Trazado_840879" data-name="Trazado 840879" d="M122.241,30a1.743,1.743,0,0,0-1.741,1.741V34.1a1.741,1.741,0,1,0,3.483,0V31.741A1.743,1.743,0,0,0,122.241,30Zm.871,4.1a.871.871,0,1,1-1.741,0V31.741a.871.871,0,1,1,1.741,0Z" transform="translate(-113.505 -28.259)"/>
          <path id="Trazado_840880" data-name="Trazado 840880" d="M440.047,0h-1.741a1.306,1.306,0,0,0,0,2.612h.435V8.02a1.306,1.306,0,1,0,2.612,0V1.306A1.307,1.307,0,0,0,440.047,0Zm.435,8.02a.435.435,0,1,1-.871,0V2.177a.435.435,0,0,0-.435-.435h-.871a.435.435,0,0,1,0-.871h1.741a.436.436,0,0,1,.435.435Z" transform="translate(-411.634 0)"/>
          <path id="Trazado_840881" data-name="Trazado 840881" d="M1.306,2.612h.435V8.02a1.306,1.306,0,0,0,2.612,0V1.306A1.308,1.308,0,0,0,3.047,0H1.306a1.306,1.306,0,0,0,0,2.612Zm0-1.741H3.047a.436.436,0,0,1,.435.435V8.02a.435.435,0,0,1-.871,0V2.177a.435.435,0,0,0-.435-.435H1.306a.435.435,0,1,1,0-.871Z" transform="translate(0 0)"/>
          <path id="Trazado_840882" data-name="Trazado 840882" d="M312.483,0A3.487,3.487,0,0,0,309,3.483V5.843a3.483,3.483,0,0,0,6.966,0V3.483A3.487,3.487,0,0,0,312.483,0Zm2.612,5.843a2.612,2.612,0,0,1-5.224,0V3.483a2.612,2.612,0,0,1,5.224,0Z" transform="translate(-291.064 0)"/>
          <path id="Trazado_840883" data-name="Trazado 840883" d="M340.741,30A1.743,1.743,0,0,0,339,31.741V34.1a1.741,1.741,0,0,0,3.483,0V31.741A1.743,1.743,0,0,0,340.741,30Zm.871,4.1a.871.871,0,1,1-1.741,0V31.741a.871.871,0,1,1,1.741,0Z" transform="translate(-319.322 -28.259)"/>
          <path id="Trazado_840884" data-name="Trazado 840884" d="M221.547,351.333h-1.741a1.306,1.306,0,1,0,0,2.612h.435v5.408a1.306,1.306,0,0,0,2.612,0v-6.714A1.308,1.308,0,0,0,221.547,351.333Zm.435,8.02a.435.435,0,0,1-.871,0V353.51a.435.435,0,0,0-.435-.435h-.871a.435.435,0,1,1,0-.871h1.741a.436.436,0,0,1,.435.435Z" transform="translate(-205.817 -330.94)"/>
          <path id="Trazado_840885" data-name="Trazado 840885" d="M93.983,351.333a3.487,3.487,0,0,0-3.483,3.483v2.361a3.483,3.483,0,0,0,6.966,0v-2.361A3.487,3.487,0,0,0,93.983,351.333Zm2.612,5.843a2.612,2.612,0,0,1-5.224,0v-2.361a2.612,2.612,0,0,1,5.224,0Z" transform="translate(-85.247 -330.94)"/>
          <path id="Trazado_840886" data-name="Trazado 840886" d="M122.241,381.333a1.743,1.743,0,0,0-1.741,1.741v2.361a1.741,1.741,0,0,0,3.483,0v-2.361A1.743,1.743,0,0,0,122.241,381.333Zm.871,4.1a.871.871,0,1,1-1.741,0v-2.361a.871.871,0,0,1,1.741,0Z" transform="translate(-113.505 -359.198)"/>
          <path id="Trazado_840887" data-name="Trazado 840887" d="M440.047,351.333h-1.741a1.306,1.306,0,0,0,0,2.612h.435v5.408a1.306,1.306,0,0,0,2.612,0v-6.714A1.307,1.307,0,0,0,440.047,351.333Zm.435,8.02a.435.435,0,1,1-.871,0V353.51a.435.435,0,0,0-.435-.435h-.871a.435.435,0,0,1,0-.871h1.741a.436.436,0,0,1,.435.435Z" transform="translate(-411.634 -330.94)"/>
          <path id="Trazado_840888" data-name="Trazado 840888" d="M3.047,351.333H1.306a1.306,1.306,0,1,0,0,2.612h.435v5.408a1.306,1.306,0,0,0,2.612,0v-6.714A1.308,1.308,0,0,0,3.047,351.333Zm.435,8.02a.435.435,0,0,1-.871,0V353.51a.435.435,0,0,0-.435-.435H1.306a.435.435,0,1,1,0-.871H3.047a.436.436,0,0,1,.435.435Z" transform="translate(0 -330.94)"/>
          <path id="Trazado_840889" data-name="Trazado 840889" d="M312.483,351.333A3.487,3.487,0,0,0,309,354.816v2.361a3.483,3.483,0,0,0,6.966,0v-2.361A3.487,3.487,0,0,0,312.483,351.333Zm2.612,5.843a2.612,2.612,0,0,1-5.224,0v-2.361a2.612,2.612,0,0,1,5.224,0Z" transform="translate(-291.064 -330.94)"/>
          <path id="Trazado_840890" data-name="Trazado 840890" d="M340.741,381.333A1.743,1.743,0,0,0,339,383.074v2.361a1.741,1.741,0,0,0,3.483,0v-2.361A1.743,1.743,0,0,0,340.741,381.333Zm.871,4.1a.871.871,0,0,1-1.741,0v-2.361a.871.871,0,0,1,1.741,0Z" transform="translate(-319.322 -359.198)"/>
        </g>
      </g>
    </g>
  </g>
</svg>
