<svg xmlns="http://www.w3.org/2000/svg" width="86" height="72.328" viewBox="0 0 86 72.328">
  <g id="Grupo_1104238" data-name="Grupo 1104238" transform="translate(-443 -522)">
    <rect id="Rectángulo_391514" data-name="Rectángulo 391514" width="86" height="72.328" rx="6" transform="translate(443 522)" fill="#fff"/>
    <g id="lenguaje-de-programacion" transform="translate(453.998 527.96)">
      <path id="Trazado_840926" data-name="Trazado 840926" d="M48.649,7.68h0c-.919-.363-.357-.222-25.278-.222H15.55c-5.71,0-4.927-.046-5.758.143a3.174,3.174,0,0,0-2.233,3.035c0,39.236-.054,36.974.112,37.584a3.178,3.178,0,0,0,3.065,2.341c39.529,0,36.989.031,37.49-.088a3.178,3.178,0,0,0,2.434-3.089V10.636A3.165,3.165,0,0,0,48.649,7.68Z" transform="translate(-6.657 -6.517)" fill="#f9f9f9"/>
      <path id="Trazado_840927" data-name="Trazado 840927" d="M11.379,48.331c-.166-.61-.112,1.888-.112-32.151V10.747a3.175,3.175,0,0,1,2.012-2.956h0a3.174,3.174,0,0,1,1.165-.222c-3.7,0-4.068-.1-4.872.222h0A3.175,3.175,0,0,0,7.56,10.747c0,39.236-.054,36.974.112,37.584a3.169,3.169,0,0,0,2.848,2.333c.234.016.023,0,3.924.008A3.177,3.177,0,0,1,11.379,48.331Z" transform="translate(-6.658 -6.628)" fill="#f2f2f2"/>
      <path id="Trazado_840928" data-name="Trazado 840928" d="M78.171,115.678H46.983a1.424,1.424,0,0,0-1.42,1.42v8.7a1.424,1.424,0,0,0,1.42,1.42H78.171a1.424,1.424,0,0,0,1.42-1.42v-8.7A1.424,1.424,0,0,0,78.171,115.678Z" transform="translate(-40.172 -101.955)" fill="#ffb70d"/>
      <path id="Trazado_840929" data-name="Trazado 840929" d="M49.113,125.794v-8.7a1.424,1.424,0,0,1,1.42-1.42h-3.55a1.424,1.424,0,0,0-1.42,1.42v8.7a1.424,1.424,0,0,0,1.42,1.42h3.55A1.424,1.424,0,0,1,49.113,125.794Z" transform="translate(-40.172 -101.956)" fill="#f4a403"/>
      <path id="Trazado_840930" data-name="Trazado 840930" d="M50.723,10.838A3.178,3.178,0,0,0,47.545,7.66H10.8a3.178,3.178,0,0,0-3.178,3.178v5.412h43.1Z" transform="translate(-6.719 -6.718)" fill="#666"/>
      <path id="Trazado_840931" data-name="Trazado 840931" d="M13.342,7.862h0a3.174,3.174,0,0,1,1.165-.222c-1.859.016-3.395-.034-4.191.037h0a3.074,3.074,0,0,0-.681.185h0a3.18,3.18,0,0,0-2.012,2.956V16.23H11.33V10.818A3.175,3.175,0,0,1,13.342,7.862Z" transform="translate(-6.721 -6.699)" fill="#535454"/>
      <path id="Trazado_840932" data-name="Trazado 840932" d="M268.01,176.042a8.149,8.149,0,0,0-5.752-2.55c-2.084,0-18.115-.044-16.973.059a1.687,1.687,0,0,0-1.252,1.629v35.792a1.688,1.688,0,0,0,1.688,1.688H273.17a1.688,1.688,0,0,0,1.688-1.688V185.388a6.452,6.452,0,0,0-2.052-4.551Z" transform="translate(-215.157 -152.919)" fill="#70b5e8"/>
      <path id="Trazado_840933" data-name="Trazado 840933" d="M247.674,211.022V175.23a1.692,1.692,0,0,1,1.688-1.688c-4.068,0-3.738-.022-4.077.059a1.687,1.687,0,0,0-1.252,1.629v35.792a1.688,1.688,0,0,0,1.688,1.688h3.641A1.688,1.688,0,0,1,247.674,211.022Z" transform="translate(-215.157 -152.969)" fill="#52a5d8"/>
      <g id="Grupo_1104227" data-name="Grupo 1104227" transform="translate(46.551 20.572)">
        <path id="Trazado_840934" data-name="Trazado 840934" d="M403.9,182.722a45.162,45.162,0,0,1-5.254-.059h0a1.687,1.687,0,0,1-1.252-1.629v-4c0-.216-.083-3.469-3.99-3.469a8.634,8.634,0,0,1,4.676,1.1c1.635.936,2.351,2.062,3.471,3.057h0l3.07,3.07a6.613,6.613,0,0,1,1.927,4.438A2.565,2.565,0,0,0,403.9,182.722Z" transform="translate(-393.4 -173.561)" fill="#a4d9f4"/>
        <path id="Trazado_840935" data-name="Trazado 840935" d="M504.478,272.14c0,.075.007.152.007.231C504.485,272.294,504.481,272.217,504.478,272.14Z" transform="translate(-491.334 -260.475)" fill="#a4d9f4"/>
      </g>
      <g id="Grupo_1104228" data-name="Grupo 1104228" transform="translate(46.55 20.572)">
        <path id="Trazado_840936" data-name="Trazado 840936" d="M403.447,182.662h0a1.687,1.687,0,0,1-1.252-1.629v-3.9a12.33,12.33,0,0,0-2.863-2.474,8.352,8.352,0,0,0-4.507-1.1c3.738.094,3.82,3.251,3.821,3.465v4a1.687,1.687,0,0,0,1.252,1.629h0a33.952,33.952,0,0,0,4.483.059C403.673,182.716,403.439,182.7,403.447,182.662Z" transform="translate(-394.655 -173.56)" fill="#84c7ef"/>
        <path id="Trazado_840937" data-name="Trazado 840937" d="M393.568,173.566c-.056,0-.111,0-.169,0A1.013,1.013,0,0,0,393.568,173.566Z" transform="translate(-393.399 -173.562)" fill="#84c7ef"/>
      </g>
      <path id="Trazado_840938" data-name="Trazado 840938" d="M63.326,255.479H47.109a1.551,1.551,0,0,1-1.546-1.546V246.2a1.551,1.551,0,0,1,1.546-1.546H63.326a1.551,1.551,0,0,1,1.546,1.546v7.73A1.551,1.551,0,0,1,63.326,255.479Z" transform="translate(-40.172 -215.672)" fill="#52a5d8"/>
      <path id="Trazado_840939" data-name="Trazado 840939" d="M49.113,253.934V246.2a1.551,1.551,0,0,1,1.546-1.546h-3.55a1.551,1.551,0,0,0-1.546,1.546v7.73a1.551,1.551,0,0,0,1.546,1.546h3.55A1.551,1.551,0,0,1,49.113,253.934Z" transform="translate(-40.172 -215.673)" fill="#3094c6"/>
      <path id="Trazado_840940" data-name="Trazado 840940" d="M40.538,36.742a.886.886,0,0,0-1.608.318.877.877,0,0,0,.051.514.9.9,0,0,0,.082.153.882.882,0,0,0,.11.135.893.893,0,0,0,.628.26.848.848,0,0,0,.173-.018.812.812,0,0,0,.166-.051.765.765,0,0,0,.154-.082.857.857,0,0,0,.135-.11.806.806,0,0,0,.11-.135.9.9,0,0,0,.133-.318.92.92,0,0,0,0-.348A1.189,1.189,0,0,0,40.538,36.742Z" transform="translate(-34.309 -32.011)"/>
      <path id="Trazado_840941" data-name="Trazado 840941" d="M67.37,37.07a.862.862,0,0,0,0,.348.922.922,0,0,0,.051.166.833.833,0,0,0,.082.153.811.811,0,0,0,.11.135.891.891,0,0,0,.627.26.87.87,0,0,0,.174-.018.814.814,0,0,0,.166-.051.8.8,0,0,0,.154-.082.861.861,0,0,0,.245-.245.894.894,0,0,0,.082-.153.935.935,0,0,0,.051-.166.961.961,0,0,0,.017-.174A.888.888,0,0,0,67.37,37.07Z" transform="translate(-59.382 -32.021)"/>
      <path id="Trazado_840942" data-name="Trazado 840942" d="M97.5,36.894a.9.9,0,0,0-.082-.153.876.876,0,0,0-.111-.135.818.818,0,0,0-.135-.111.9.9,0,0,0-.153-.082.888.888,0,0,0-1.209.646.862.862,0,0,0,0,.348.836.836,0,0,0,.051.166.822.822,0,0,0,.08.153.889.889,0,0,0,.111.135.8.8,0,0,0,.135.11.784.784,0,0,0,.153.082.849.849,0,0,0,.167.051.839.839,0,0,0,.173.018.868.868,0,0,0,.174-.018.81.81,0,0,0,.166-.051.9.9,0,0,0,.288-.192.87.87,0,0,0,.111-.135.9.9,0,0,0,.082-.153.922.922,0,0,0,.05-.166.866.866,0,0,0,.018-.174.877.877,0,0,0-.018-.174A.92.92,0,0,0,97.5,36.894Z" transform="translate(-84.461 -32.011)"/>
      <path id="Trazado_840943" data-name="Trazado 840943" d="M148.422,36.342h-16.8a.887.887,0,0,0,0,1.775h16.8a.887.887,0,1,0,0-1.775Z" transform="translate(-115.27 -32.007)"/>
      <path id="Trazado_840944" data-name="Trazado 840944" d="M309.275,36.342h-2.31a.887.887,0,0,0,0,1.775h2.31a.887.887,0,0,0,0-1.775Z" transform="translate(-269.86 -32.007)"/>
      <path id="Trazado_840945" data-name="Trazado 840945" d="M58.827,27.636c-.417-.494-.283-.306-4.7-4.74-3.483-3.628-6.361-3.224-9.241-3.224V17.435a.887.887,0,0,0-1.775,0v2.236H40.3V15.13A2.31,2.31,0,0,0,38,12.822H6.807A2.31,2.31,0,0,0,4.5,15.13v8.7a2.31,2.31,0,0,0,2.307,2.307H27.985v17.01c-.012,0-25.751,0-24.106-.009a2.288,2.288,0,0,1-2.012-1.677c-.154-.564-.053,1.212-.081-31.052H43.112v2.889a.887.887,0,0,0,1.775,0c0-9.783.054-9.488-.128-10.2A4.065,4.065,0,0,0,40.822.041C2.478.042,4.058.033,3.8.051A4.059,4.059,0,0,0,.01,4.106V9.517C.06,42.4-.114,40.941.154,41.923a4.066,4.066,0,0,0,3.922,2.995H27.985v5.275a.887.887,0,1,0,1.775,0c0-.105-.009-27.96.011-28.078a.8.8,0,0,1,.675-.658l.051-.006c.113-.011,16.25,0,16.262,0a2.808,2.808,0,0,1,2.488,1.222c.544.9.395,1.323.4,5.359A2.578,2.578,0,0,0,51.4,30.47c.368.18.613.137,5.611.137,1.7.127,1.772,1.275,1.794,1.661.011.265,0-1.683.006,25.771a.8.8,0,0,1-.8.8H30.56a.8.8,0,0,1-.8-.8V54.333a.887.887,0,1,0-1.775,0v3.706a2.579,2.579,0,0,0,2.576,2.576H58.009a2.579,2.579,0,0,0,2.576-2.576V32.455A7.428,7.428,0,0,0,58.827,27.636ZM1.953,3.248A2.291,2.291,0,0,1,4.075,1.815c39.318,0,36.888-.021,37.226.051a2.29,2.29,0,0,1,1.717,1.592c.166.562.063.552.095,5.171H1.785C1.817,3.907,1.689,3.9,1.953,3.248ZM38.527,19.672c-8.455,0-8.054-.018-8.371.034a2.577,2.577,0,0,0-2.172,2.542v2.111H6.807a.54.54,0,0,1-.532-.532v-8.7a.54.54,0,0,1,.532-.532H38a.54.54,0,0,1,.532.532v4.542ZM52.071,28.82l-.054-.016a.8.8,0,0,1-.594-.772c-.016-4.1.1-4.34-.235-5.352a24.644,24.644,0,0,1,2.894,2.68c3.367,3.368,3.2,3.188,3.475,3.525C56.788,28.765,53.147,28.88,52.071,28.82Z" transform="translate(0)"/>
      <path id="Trazado_840946" data-name="Trazado 840946" d="M291.35,319.164c.94,0,1.329.458,1.4,1.335.019.444.43.553.876.553.679,0,.876-.247.876-.863,0-2.659-3.81-3.222-5.4-1.86a2.526,2.526,0,0,0-.674.95c-.4.941-.191,1.83-.249,5.2a2.723,2.723,0,0,0,1.9,2.918c1.493.444,3.5.045,4.185-1.4.219-.462.392-1.491.02-1.793a1.415,1.415,0,0,0-1.267-.054c-.318.159-.242.428-.33.9a1.18,1.18,0,0,1-1.314.977c-1,0-1.442-.559-1.442-1.55v-3.761C289.934,319.716,290.376,319.164,291.35,319.164Z" transform="translate(-254.078 -279.995)"/>
      <path id="Trazado_840947" data-name="Trazado 840947" d="M350.646,325.722a2.686,2.686,0,0,1-1.894-.876.6.6,0,0,0-.937.169c-1.446,1.9,4.479,3.718,5.85.634a3.372,3.372,0,0,0-.081-2.709c-1.157-2-4-1.754-4-3.147,0-1.134,1.72-1.25,2.723-.782.377.176.442.256.661.256.432,0,.7-.54.7-.93,0-1.062-2.505-1.232-3.727-.937a2.745,2.745,0,0,0-1.813,1.287,2.809,2.809,0,0,0,.027,2.575c.974,1.543,2.563,1.381,3.68,2.473a1.092,1.092,0,0,1,.324.816C352.156,325.372,351.435,325.722,350.646,325.722Z" transform="translate(-306.46 -279.692)"/>
      <path id="Trazado_840948" data-name="Trazado 840948" d="M410.133,325.7c-1.534,0-1.9-1.424-2.588-.944a1.147,1.147,0,0,0-.411.546c-.564,1.57,3.481,2.836,5.351,1.233a3.138,3.138,0,0,0,.586-3.619c-.928-1.6-2.638-1.62-3.68-2.467a.9.9,0,0,1,.074-1.442,2.63,2.63,0,0,1,2.325-.02c.377.176.442.256.661.256.432,0,.7-.541.7-.93,0-.7-1.149-.975-1.826-1.038-2.135-.2-4.01.551-4.01,2.655,0,3.155,4.327,2.61,4.327,4.6C411.643,325.351,410.921,325.7,410.133,325.7Z" transform="translate(-358.911 -279.672)"/>
      <path id="Trazado_840949" data-name="Trazado 840949" d="M56.681,247.866H47.824a.887.887,0,1,0,0,1.775h8.857a2.436,2.436,0,0,0,2.433-2.434v-7.73a2.436,2.436,0,0,0-2.433-2.434H40.464a2.436,2.436,0,0,0-2.434,2.434v7.73a2.436,2.436,0,0,0,2.434,2.434h3.219a.887.887,0,1,0,0-1.775H40.464a.66.66,0,0,1-.659-.659v-7.73a.66.66,0,0,1,.659-.659H56.681a.659.659,0,0,1,.659.659v7.73A.659.659,0,0,1,56.681,247.866Z" transform="translate(-33.53 -208.96)"/>
    </g>
  </g>
</svg>
