<svg xmlns="http://www.w3.org/2000/svg" width="86" height="72.328" viewBox="0 0 86 72.328">
  <g id="Grupo_1104239" data-name="Grupo 1104239" transform="translate(-652 -522)">
    <rect id="Rect치ngulo_391515" data-name="Rect치ngulo 391515" width="86" height="72.328" rx="6" transform="translate(652 522)" fill="#fff"/>
    <g id="Server_bitcoin" data-name="Server bitcoin" transform="translate(672 531.661)">
      <path id="Trazado_840950" data-name="Trazado 840950" d="M23.542,5a16.023,16.023,0,0,0-5.218,10.826H3.167A2.165,2.165,0,0,1,1,13.663C1,6.842.785,6.474,1.641,5.64S1.565,5,23.542,5Z" transform="translate(0.081 0.414)" fill="#dad7e5"/>
      <path id="Trazado_840951" data-name="Trazado 840951" d="M22.4,5c-6.225,4.742-4.515,8.661-7.5,8.661H12.661A8.661,8.661,0,0,1,4,5Z" transform="translate(0.331 0.416)" fill="#edebf2"/>
      <path id="Trazado_840952" data-name="Trazado 840952" d="M34.4,1A16.1,16.1,0,0,0,23.375,5.331H3V1Z" transform="translate(0.248 0.085)" fill="#7c7d7d"/>
      <path id="Trazado_840953" data-name="Trazado 840953" d="M34.231,1a15.59,15.59,0,0,0-8.25,2.263c-6.355,2.6,1.862,2.068-16.651,2.068A4.331,4.331,0,0,1,5,1Z" transform="translate(0.413 0.085)" fill="#919191"/>
      <path id="Trazado_840954" data-name="Trazado 840954" d="M26.465,29.828H3.167A2.165,2.165,0,0,1,1,27.663c0-6.821-.217-7.189.639-8.022S2.2,19,18.649,19a16.359,16.359,0,0,0,7.817,10.826Z" transform="translate(0.081 1.571)" fill="#dad7e5"/>
      <path id="Trazado_840955" data-name="Trazado 840955" d="M17.8,24.413a2.165,2.165,0,0,1-1.895,3.248H12.661A8.661,8.661,0,0,1,4,19H16.061A16.045,16.045,0,0,0,17.8,24.413Z" transform="translate(0.331 1.573)" fill="#edebf2"/>
      <path id="Trazado_840956" data-name="Trazado 840956" d="M18.482,19.331H3V15H18.157a15.958,15.958,0,0,0,.325,4.331Z" transform="translate(0.248 1.242)" fill="#7c7d7d"/>
      <path id="Trazado_840957" data-name="Trazado 840957" d="M18.316,19.165H6.083a1.083,1.083,0,1,1,0-2.165H17.992a15.785,15.785,0,0,0,.325,2.165Z" transform="translate(0.413 1.407)" fill="#919191"/>
      <rect id="Rect치ngulo_391537" data-name="Rect치ngulo 391537" width="38.975" height="10.826" rx="2" transform="translate(1.083 35.729)" fill="#dad7e5"/>
      <path id="Trazado_840958" data-name="Trazado 840958" d="M39.727,35.165v6.5H12.661A8.661,8.661,0,0,1,4,33H37.562A2.165,2.165,0,0,1,39.727,35.165Z" transform="translate(0.331 2.729)" fill="#edebf2"/>
      <path id="Trazado_840959" data-name="Trazado 840959" d="M37.644,30.84v2.49H3V29H26.3a16.24,16.24,0,0,0,11.346,1.84Z" transform="translate(0.248 2.399)" fill="#7c7d7d"/>
      <path id="Trazado_840960" data-name="Trazado 840960" d="M37.479,31.152v2.014H6.083a1.083,1.083,0,0,1,0-2.165H26.252a16.12,16.12,0,0,0,11.227.152Z" transform="translate(0.413 2.564)" fill="#919191"/>
      <path id="Trazado_840961" data-name="Trazado 840961" d="M3,43H37.644v4.331H3Z" transform="translate(0.248 3.556)" fill="#7c7d7d"/>
      <path id="Trazado_840962" data-name="Trazado 840962" d="M37.479,45v2.165H6.083a1.083,1.083,0,1,1,0-2.165Z" transform="translate(0.413 3.721)" fill="#919191"/>
      <path id="Trazado_840963" data-name="Trazado 840963" d="M49.479,17.24A16.24,16.24,0,1,1,36.487,1.325,16.238,16.238,0,0,1,49.479,17.24Z" transform="translate(1.405 0.085)" fill="#fc6"/>
      <path id="Trazado_840964" data-name="Trazado 840964" d="M49.316,17.238c0,4.168-1.862,8.488-3.713,10.339a16.239,16.239,0,0,1-10.361,3.735c-13.685,0-21.252-16.034-12.548-26.535A16.24,16.24,0,0,1,49.316,17.238Z" transform="translate(1.568 0.087)" fill="#ffde76"/>
      <path id="Trazado_840965" data-name="Trazado 840965" d="M44.817,16.908A11.909,11.909,0,0,1,32.908,28.817c-11.3,0-16.24-14.442-7.264-21.339a11.909,11.909,0,0,1,19.173,9.43Z" transform="translate(1.736 0.416)" fill="#ffba55"/>
      <path id="Trazado_840966" data-name="Trazado 840966" d="M44.652,16.908a11.779,11.779,0,0,1-2.479,7.264,11.779,11.779,0,0,1-7.264,2.479,11.909,11.909,0,0,1-9.43-19.173,11.909,11.909,0,0,1,19.173,9.43Z" transform="translate(1.901 0.416)" fill="#fc6"/>
      <path id="Trazado_840967" data-name="Trazado 840967" d="M5.083,11.165A1.083,1.083,0,1,0,4,10.083,1.083,1.083,0,0,0,5.083,11.165Z" transform="translate(0.331 0.746)"/>
      <path id="Trazado_840968" data-name="Trazado 840968" d="M9.083,11.165A1.083,1.083,0,1,0,8,10.083,1.083,1.083,0,0,0,9.083,11.165Z" transform="translate(0.661 0.746)"/>
      <path id="Trazado_840969" data-name="Trazado 840969" d="M13.083,11.165A1.083,1.083,0,1,0,12,10.083,1.083,1.083,0,0,0,13.083,11.165Z" transform="translate(0.992 0.746)"/>
      <path id="Trazado_840970" data-name="Trazado 840970" d="M5.083,25.165A1.083,1.083,0,1,0,4,24.083,1.083,1.083,0,0,0,5.083,25.165Z" transform="translate(0.331 1.903)"/>
      <path id="Trazado_840971" data-name="Trazado 840971" d="M9.083,25.165A1.083,1.083,0,1,0,8,24.083,1.083,1.083,0,0,0,9.083,25.165Z" transform="translate(0.661 1.903)"/>
      <path id="Trazado_840972" data-name="Trazado 840972" d="M13.083,25.165A1.083,1.083,0,1,0,12,24.083,1.083,1.083,0,0,0,13.083,25.165Z" transform="translate(0.992 1.903)"/>
      <path id="Trazado_840973" data-name="Trazado 840973" d="M5.083,37a1.083,1.083,0,1,0,1.083,1.083A1.083,1.083,0,0,0,5.083,37Z" transform="translate(0.331 3.06)"/>
      <path id="Trazado_840974" data-name="Trazado 840974" d="M9.083,37a1.083,1.083,0,1,0,1.083,1.083A1.083,1.083,0,0,0,9.083,37Z" transform="translate(0.661 3.06)"/>
      <path id="Trazado_840975" data-name="Trazado 840975" d="M13.083,37a1.083,1.083,0,1,0,1.083,1.083A1.083,1.083,0,0,0,13.083,37Z" transform="translate(0.992 3.06)"/>
      <path id="Trazado_840976" data-name="Trazado 840976" d="M34.074,37H21.083a1.083,1.083,0,1,0,0,2.165H34.074a1.083,1.083,0,1,0,0-2.165Z" transform="translate(1.653 3.06)"/>
      <path id="Trazado_840977" data-name="Trazado 840977" d="M32.413,11.165H31.331V10.083a1.083,1.083,0,1,0-2.165,0v1.083H28.083a1.083,1.083,0,1,0,0,2.165h1.083v6.5H28.083a1.083,1.083,0,0,0,0,2.165h1.083v1.083a1.083,1.083,0,0,0,2.165,0V21.992h3.248A3.248,3.248,0,0,0,36.321,16a3.248,3.248,0,0,0-1.743-4.645V10.083a1.083,1.083,0,0,0-2.165,0ZM33.5,13.331a1.083,1.083,0,1,1,0,2.165H31.331V13.331Zm1.083,6.5H31.331V17.661h3.248a1.083,1.083,0,0,1,0,2.165Z" transform="translate(2.231 0.746)"/>
      <path id="Trazado_840978" data-name="Trazado 840978" d="M20,16.992A12.992,12.992,0,1,0,32.992,4,12.992,12.992,0,0,0,20,16.992Zm23.818,0A10.826,10.826,0,1,1,32.992,6.165,10.826,10.826,0,0,1,43.818,16.992Z" transform="translate(1.653 0.333)"/>
      <path id="Trazado_840979" data-name="Trazado 840979" d="M51.966,17.325A17.322,17.322,0,0,0,38.8.522C38.336-.225,41.194,0,3.248,0A1.083,1.083,0,0,0,2.165,1.085V4.528A3.248,3.248,0,0,0,0,7.581v6.5A3.248,3.248,0,0,0,2.165,17.13v2.555A3.248,3.248,0,0,0,0,22.738v6.5a3.248,3.248,0,0,0,2.165,3.053v2.555A3.248,3.248,0,0,0,0,37.895v6.5a3.248,3.248,0,0,0,2.165,3.053v3.443a1.083,1.083,0,0,0,1.083,1.083H37.892a1.083,1.083,0,0,0,1.083-1.083V47.444a3.248,3.248,0,0,0,2.165-3.053v-6.5a3.248,3.248,0,0,0-2.165-3.053v-.769A17.322,17.322,0,0,0,51.966,17.325Zm-2.165,0A15.157,15.157,0,1,1,34.644,2.168,15.157,15.157,0,0,1,49.8,17.325Zm-45.471,0H17.322a17.885,17.885,0,0,0,.152,2.165H4.331Zm0-15.157H26.276a17.723,17.723,0,0,0-3.053,2.165H4.331ZM2.165,7.581A1.083,1.083,0,0,1,3.248,6.5h17.9a17.257,17.257,0,0,0-3.67,8.661H3.248a1.083,1.083,0,0,1-1.083-1.083Zm0,15.157a1.083,1.083,0,0,1,1.083-1.083H17.9a17.322,17.322,0,0,0,5.327,8.661H3.248a1.083,1.083,0,0,1-1.083-1.083ZM36.81,49.8H4.331V47.638H36.81Zm2.165-5.413a1.083,1.083,0,0,1-1.083,1.083H3.248a1.083,1.083,0,0,1-1.083-1.083v-6.5a1.083,1.083,0,0,1,1.083-1.083H37.892a1.083,1.083,0,0,1,1.083,1.083ZM4.331,34.647V32.482H26.276A17.116,17.116,0,0,0,36.81,34.5C36.81,34.733,39.31,34.647,4.331,34.647Z" transform="translate(0 0)"/>
    </g>
  </g>
</svg>
