<svg xmlns="http://www.w3.org/2000/svg" width="86" height="72.328" viewBox="0 0 86 72.328">
  <g id="Grupo_1104240" data-name="Grupo 1104240" transform="translate(-863 -522)">
    <rect id="Rectángulo_391517" data-name="Rectángulo 391517" width="86" height="72.328" rx="6" transform="translate(863 522)" fill="#fff"/>
    <g id="pago-por-clic" transform="translate(833.838 531.631)">
      <path id="Trazado_840980" data-name="Trazado 840980" d="M162.526,59.012H132.366a1.866,1.866,0,0,1-1.866-1.866V9.366A1.866,1.866,0,0,1,132.366,7.5h30.161a1.866,1.866,0,0,1,1.866,1.866v47.78A1.866,1.866,0,0,1,162.526,59.012Z" transform="translate(-74.846 -6.723)" fill="#ecf4ff"/>
      <path id="Trazado_840981" data-name="Trazado 840981" d="M412.609,7.5H409.5a1.866,1.866,0,0,1,1.866,1.866v47.78a1.866,1.866,0,0,1-1.866,1.866h3.109a1.866,1.866,0,0,0,1.866-1.866V9.366A1.866,1.866,0,0,0,412.609,7.5Z" transform="translate(-324.929 -6.723)" fill="#ddeafb"/>
      <path id="Trazado_840982" data-name="Trazado 840982" d="M164.392,16.828H130.5V9.394A1.894,1.894,0,0,1,132.394,7.5h30.1a1.894,1.894,0,0,1,1.894,1.894v7.434Z" transform="translate(-74.846 -6.723)" fill="#4073c8"/>
      <path id="Trazado_840983" data-name="Trazado 840983" d="M412.334,7.5h-3.109a1.894,1.894,0,0,1,1.894,1.894v7.434h3.109V9.394A1.894,1.894,0,0,0,412.334,7.5Z" transform="translate(-324.682 -6.723)" fill="#3b66c1"/>
      <circle id="Elipse_11146" data-name="Elipse 11146" cx="1.555" cy="1.555" r="1.555" transform="translate(69.113 3.887)" fill="#c8ea73"/>
      <circle id="Elipse_11147" data-name="Elipse 11147" cx="1.555" cy="1.555" r="1.555" transform="translate(75.591 3.887)" fill="#ffe07d"/>
      <circle id="Elipse_11148" data-name="Elipse 11148" cx="1.555" cy="1.555" r="1.555" transform="translate(82.069 3.887)" fill="#dd4fb1"/>
      <circle id="Elipse_11149" data-name="Elipse 11149" cx="13.474" cy="13.474" r="13.474" transform="translate(47.777 14.51)" fill="#ffe07d"/>
      <circle id="Elipse_11150" data-name="Elipse 11150" cx="10.365" cy="10.365" r="10.365" transform="translate(50.887 17.62)" fill="#ffd064"/>
      <path id="Trazado_840984" data-name="Trazado 840984" d="M171.055,170a10.448,10.448,0,0,0-1.555.116,10.366,10.366,0,0,1,0,20.5A10.365,10.365,0,1,0,171.055,170Z" transform="translate(-109.803 -152.38)" fill="#ffc250"/>
      <path id="Trazado_840985" data-name="Trazado 840985" d="M247.752,325.962l-2.316,2.316a.482.482,0,0,0,0,.682l7.255,7.255a.716.716,0,0,1,0,1.012l-1.2,1.2a.716.716,0,0,1-1.012,0l-7.255-7.255a.482.482,0,0,0-.682,0l-2.316,2.316a.488.488,0,0,1-.83-.3l-.8-8.322a.488.488,0,0,1,.532-.532l8.322.8A.488.488,0,0,1,247.752,325.962Z" transform="translate(-171.74 -290.716)" fill="#75cef9"/>
      <g id="Grupo_1104229" data-name="Grupo 1104229" transform="translate(47 0)">
        <path id="Trazado_840986" data-name="Trazado 840986" d="M89.546,14.009a.777.777,0,0,0,.777-.777V2.643A2.646,2.646,0,0,0,87.681,0H57.52a2.646,2.646,0,0,0-2.643,2.643v12.6a14.239,14.239,0,0,0-4.588,21.841.777.777,0,1,0,1.2-.994,12.694,12.694,0,1,1,22.463-8.1,12.531,12.531,0,0,1-1.191,5.367L71.1,33.193a11.14,11.14,0,1,0-4.667,4.655l.159,1.653a12.674,12.674,0,0,1-12.536-1.06.777.777,0,1,0-.883,1.279,14.293,14.293,0,0,0,1.7,1.008v9.7a2.646,2.646,0,0,0,2.643,2.643H87.681a2.646,2.646,0,0,0,2.643-2.643V16.94a.777.777,0,0,0-1.555,0V50.423a1.089,1.089,0,0,1-1.088,1.088H57.52a1.089,1.089,0,0,1-1.088-1.088V41.4a14.258,14.258,0,0,0,10.318-.264l.136,1.413a1.265,1.265,0,0,0,2.154.774l2.107-2.107,7.046,7.046a1.508,1.508,0,0,0,2.112,0l1.2-1.2a1.523,1.523,0,0,0,0-2.112L74.455,37.9,76.562,35.8a1.265,1.265,0,0,0-.774-2.154l-1.4-.134A14.072,14.072,0,0,0,75.5,27.984,14.252,14.252,0,0,0,56.432,14.573v-3.69H88.769v2.349a.777.777,0,0,0,.777.777Zm-28.3,23.562A9.587,9.587,0,1,1,69.4,33.03l-1.937-.186a1.265,1.265,0,0,0-1.38,1.38l.185,1.928a9.547,9.547,0,0,1-5.02,1.419Zm11.9-.559a1.259,1.259,0,0,0,0,1.781l7.212,7.212-1.11,1.11L72.036,39.9a1.26,1.26,0,0,0-1.781,0l-1.881,1.881-.706-7.36,7.36.706ZM56.432,9.328V2.643A1.089,1.089,0,0,1,57.52,1.555H87.681a1.089,1.089,0,0,1,1.088,1.088V9.328Z" transform="translate(-47 0)"/>
        <path id="Trazado_840987" data-name="Trazado 840987" d="M153.482,201.464c-.226-.08-.457-.163-.687-.251v-3.674a2.49,2.49,0,0,1,.909.42.777.777,0,0,0,.945-1.235,4.141,4.141,0,0,0-1.854-.768V195.2a.777.777,0,1,0-1.555,0v.809c-.115.025-.233.056-.352.092a3.166,3.166,0,0,0-2.168,2.483,2.787,2.787,0,0,0,.912,2.746,7.5,7.5,0,0,0,1.608.921v4.661a3.2,3.2,0,0,1-1.7-.637.777.777,0,1,0-.851,1.3,4.67,4.67,0,0,0,2.549.893v.841a.777.777,0,1,0,1.555,0v-.9a3.808,3.808,0,0,0,2.988-3.124A3.343,3.343,0,0,0,153.482,201.464Zm-2.89-1.352a1.253,1.253,0,0,1-.344-1.235,1.645,1.645,0,0,1,.993-1.249v2.9A4.673,4.673,0,0,1,150.592,200.112Zm3.659,4.92a2.285,2.285,0,0,1-1.455,1.766v-3.929l.169.06A1.814,1.814,0,0,1,154.25,205.032Z" transform="translate(-137.836 -174.276)"/>
        <path id="Trazado_840988" data-name="Trazado 840988" d="M339.444,130.976h3.394a.777.777,0,1,0,0-1.555h-3.394a.777.777,0,1,0,0,1.555Z" transform="translate(-308.437 -116.007)"/>
        <path id="Trazado_840989" data-name="Trazado 840989" d="M345.671,159.421h-6.227a.777.777,0,1,0,0,1.555h6.227a.777.777,0,1,0,0-1.555Z" transform="translate(-308.437 -142.898)"/>
        <path id="Trazado_840990" data-name="Trazado 840990" d="M345.671,189.421h-6.227a.777.777,0,1,0,0,1.555h6.227a.777.777,0,1,0,0-1.555Z" transform="translate(-308.437 -169.788)"/>
        <g id="Grupo_1104230" data-name="Grupo 1104230" transform="translate(0 5)">
          <path id="Trazado_840995" data-name="Trazado 840995" d="M339.444,130.976h3.394a.777.777,0,1,0,0-1.555h-3.394a.777.777,0,1,0,0,1.555Z" transform="translate(-291.437 -90.007)"/>
          <path id="Trazado_840994" data-name="Trazado 840994" d="M345.671,159.421h-6.227a.777.777,0,1,0,0,1.555h6.227a.777.777,0,1,0,0-1.555Z" transform="translate(-291.437 -116.897)"/>
          <path id="Trazado_840996" data-name="Trazado 840996" d="M345.671,189.421h-6.227a.777.777,0,1,0,0,1.555h6.227a.777.777,0,1,0,0-1.555Z" transform="translate(-291.437 -143.788)"/>
        </g>
        <path id="Trazado_840991" data-name="Trazado 840991" d="M255.187,30a2.332,2.332,0,1,0,2.332,2.332A2.335,2.335,0,0,0,255.187,30Zm0,3.109a.777.777,0,1,1,.777-.777A.778.778,0,0,1,255.187,33.109Z" transform="translate(-231.519 -26.891)"/>
        <path id="Trazado_840992" data-name="Trazado 840992" d="M317.687,30a2.332,2.332,0,1,0,2.332,2.332A2.335,2.335,0,0,0,317.687,30Zm0,3.109a.777.777,0,1,1,.777-.777A.778.778,0,0,1,317.687,33.109Z" transform="translate(-287.541 -26.891)"/>
        <path id="Trazado_840993" data-name="Trazado 840993" d="M380.187,30a2.332,2.332,0,1,0,2.332,2.332A2.335,2.335,0,0,0,380.187,30Zm0,3.109a.777.777,0,1,1,.777-.777A.778.778,0,0,1,380.187,33.109Z" transform="translate(-343.563 -26.891)"/>
      </g>
    </g>
  </g>
</svg>
