<svg xmlns="http://www.w3.org/2000/svg" width="86" height="72.328" viewBox="0 0 86 72.328">
  <g id="Grupo_1104241" data-name="Grupo 1104241" transform="translate(-1073 -522)">
    <rect id="Rect치ngulo_391519" data-name="Rect치ngulo 391519" width="86" height="72.328" rx="6" transform="translate(1073 522)" fill="#fff"/>
    <g id="dominio_2_" data-name="dominio (2)" transform="translate(1092.147 532.374)">
      <g id="Grupo_1104235" data-name="Grupo 1104235" transform="translate(0.748 0.748)">
        <path id="Trazado_841024" data-name="Trazado 841024" d="M53.593,14.756v-5.2a2,2,0,0,0-2-1.993H9.552A2,2,0,0,0,7.558,9.551v5.2l21.773,4.561Zm0,0" transform="translate(-7.558 -7.559)" fill="#e6e6e6" fill-rule="evenodd"/>
        <path id="Trazado_841025" data-name="Trazado 841025" d="M7.558,80.246v40.013a2,2,0,0,0,1.994,1.993H51.6a2,2,0,0,0,2-1.993V80.246H7.558Zm0,0" transform="translate(-7.558 -73.048)" fill="#87b6e2" fill-rule="evenodd"/>
        <path id="Trazado_841026" data-name="Trazado 841026" d="M7.559,14.756h3.454v-5.2a2,2,0,0,1,1.994-1.993H9.552A2,2,0,0,0,7.559,9.551Zm0,0" transform="translate(-7.559 -7.559)" fill="#c5bec7" fill-rule="evenodd"/>
        <path id="Trazado_841027" data-name="Trazado 841027" d="M11.013,80.246H7.559v40.013a2,2,0,0,0,1.994,1.993h3.454a2,2,0,0,1-1.994-1.993Zm0,0" transform="translate(-7.559 -73.048)" fill="#6e90cc" fill-rule="evenodd"/>
        <path id="Trazado_841028" data-name="Trazado 841028" d="M74.146,140.512h30.834c.55,0,1,.737,1,1.643v14.857c0,.905-.451,1.647-1,1.647H74.146c-.55,0-1-.742-1-1.647V142.155C73.145,141.249,73.6,140.512,74.146,140.512Zm0,0" transform="translate(-66.65 -127.346)" fill="#ffd45e" fill-rule="evenodd"/>
        <path id="Trazado_841029" data-name="Trazado 841029" d="M78.088,145.238v-3.49c0-.681.349-1.236.777-1.236H73.922c-.428,0-.777.554-.777,1.236V156.8c0,.681.349,1.24.777,1.24h4.943c-.428,0-.777-.559-.777-1.24Zm0,0" transform="translate(-66.65 -127.346)" fill="#ffac38" fill-rule="evenodd"/>
        <g id="Grupo_1104236" data-name="Grupo 1104236" transform="translate(14.25 16.197)">
          <path id="Trazado_841047" data-name="Trazado 841047" d="M28.663,57.793a.329.329,0,0,0,.329.329h3.29a.329.329,0,0,0,.329-.329V54.5a.329.329,0,0,0-.329-.329h-3.29a.329.329,0,0,0-.329.329Zm.658-2.961h2.632v2.632H29.321Z" transform="translate(-28.663 -46.657)"/>
          <path id="Trazado_841048" data-name="Trazado 841048" d="M28.992,39.809h3.29a.329.329,0,0,0,.329-.329V36.191a.329.329,0,0,0-.329-.329h-3.29a.329.329,0,0,0-.329.329V39.48A.329.329,0,0,0,28.992,39.809Zm.329-3.289h2.632v2.632H29.321Z" transform="translate(-28.663 -34.367)"/>
          <path id="Trazado_841049" data-name="Trazado 841049" d="M68.8,37.513a1.7,1.7,0,0,0-1.7-1.746,1.829,1.829,0,0,0,0,3.653,2.226,2.226,0,0,0,1.442-.486.329.329,0,0,0-.477-.454,1.6,1.6,0,0,1-.965.282,1.1,1.1,0,0,1-1.041-.919h2.407A.329.329,0,0,0,68.8,37.513Zm-2.693-.329a1.076,1.076,0,0,1,1-.76,1.032,1.032,0,0,1,.991.76Z" transform="translate(-53.305 -34.303)"/>
          <path id="Trazado_841050" data-name="Trazado 841050" d="M53.53,35.281a.329.329,0,0,0-.329.329v3.155a.329.329,0,0,0,.658,0V37A.973.973,0,1,1,55.8,37v1.762a.329.329,0,0,0,.658,0V37a1.623,1.623,0,0,0-2.6-1.3V35.61A.329.329,0,0,0,53.53,35.281Z" transform="translate(-45.129 -33.976)"/>
          <path id="Trazado_841051" data-name="Trazado 841051" d="M77.66,31.317a.329.329,0,0,0-.329.329v1.207H76.8a.329.329,0,1,0,0,.658h.535V35.15a1.284,1.284,0,0,0,1.283,1.283h.751a.329.329,0,1,0,0-.658h-.751a.626.626,0,0,1-.625-.625V33.511h.778a.329.329,0,1,0,0-.658h-.778V31.646A.329.329,0,0,0,77.66,31.317Z" transform="translate(-60.74 -31.317)"/>
          <path id="Trazado_841052" data-name="Trazado 841052" d="M47.8,44.893a.483.483,0,1,0-.483-.483A.483.483,0,0,0,47.8,44.893Z" transform="translate(-41.182 -39.78)"/>
          <path id="Trazado_841053" data-name="Trazado 841053" d="M67.038,57.738a1.829,1.829,0,1,0-1.723-1.826A1.779,1.779,0,0,0,67.038,57.738Zm0-2.995a1.173,1.173,0,1,1-1.065,1.168,1.121,1.121,0,0,1,1.065-1.168Z" transform="translate(-53.257 -46.595)"/>
          <path id="Trazado_841054" data-name="Trazado 841054" d="M54.924,57.739a1.693,1.693,0,0,0,1.476-.887.329.329,0,0,0-.572-.325,1.043,1.043,0,0,1-.9.554,1.173,1.173,0,0,1,0-2.337,1.042,1.042,0,0,1,.9.554.329.329,0,0,0,.572-.325,1.693,1.693,0,0,0-1.476-.887,1.829,1.829,0,0,0,0,3.652Z" transform="translate(-45.129 -46.597)"/>
          <path id="Trazado_841055" data-name="Trazado 841055" d="M83.139,56.746a.329.329,0,0,0,.329-.329v-1.9A1.49,1.49,0,0,0,80.8,53.6a1.484,1.484,0,0,0-2.006-.314v-.347a.329.329,0,0,0-.658,0v3.481a.329.329,0,0,0,.658,0v-1.9a.839.839,0,0,1,1.677,0v1.9a.329.329,0,0,0,.658,0v-1.9a.839.839,0,0,1,1.677,0v1.9a.329.329,0,0,0,.329.329Z" transform="translate(-61.863 -45.605)"/>
          <path id="Trazado_841056" data-name="Trazado 841056" d="M47.8,63.206a.483.483,0,1,0-.483-.483A.483.483,0,0,0,47.8,63.206Z" transform="translate(-41.182 -52.068)"/>
        </g>
      </g>
      <path id="Trazado_841030" data-name="Trazado 841030" d="M52.319,34.1H52.3a.748.748,0,1,0,0,1.5h.02a.748.748,0,1,0,0-1.5Zm0,0" transform="translate(-46.446 -30.721)"/>
      <path id="Trazado_841031" data-name="Trazado 841031" d="M88.577,34.1h-.02a.748.748,0,1,0,0,1.5h.02a.748.748,0,1,0,0-1.5Zm0,0" transform="translate(-79.114 -30.721)"/>
      <path id="Trazado_841032" data-name="Trazado 841032" d="M124.81,34.27h-.023a.748.748,0,1,0,0,1.5h.023a.748.748,0,0,0,0-1.5Zm0,0" transform="translate(-111.756 -30.876)"/>
      <path id="Trazado_841033" data-name="Trazado 841033" d="M191.862,37.825h13.976a.748.748,0,1,0,0-1.5H191.862a.748.748,0,1,0,0,1.5Zm0,0" transform="translate(-172.189 -32.731)"/>
      <path id="Trazado_841034" data-name="Trazado 841034" d="M44.786,0H2.742A2.745,2.745,0,0,0,0,2.741V47.959A2.745,2.745,0,0,0,2.742,50.7H44.786a2.746,2.746,0,0,0,2.745-2.741V2.741A2.746,2.746,0,0,0,44.786,0Zm0,49.2H2.742A1.247,1.247,0,0,1,1.5,47.959V8.695H13.445a.748.748,0,0,0,0-1.5H1.5V2.741A1.247,1.247,0,0,1,2.742,1.5H44.786a1.248,1.248,0,0,1,1.248,1.245V7.2H16.925a.748.748,0,0,0,0,1.5h29.11V47.959A1.248,1.248,0,0,1,44.786,49.2Zm0,0" transform="translate(0 0)"/>
      <path id="Trazado_841039" data-name="Trazado 841039" d="M78.935,375.26l-4.166,4.164-1.19-1.123a.748.748,0,0,0-1.027,1.088l1.719,1.621A.748.748,0,0,0,75.313,381l4.68-4.677a.748.748,0,0,0-1.058-1.059Zm0,0" transform="translate(-65.156 -337.903)"/>
      <path id="Trazado_841040" data-name="Trazado 841040" d="M197.9,422.277H176.886a.748.748,0,1,0,0,1.5H197.9a.748.748,0,0,0,0-1.5Zm0,0" transform="translate(-158.696 -380.461)"/>
      <path id="Trazado_841041" data-name="Trazado 841041" d="M277.48,379.164H265.213a.748.748,0,0,0,0,1.5H277.48a.748.748,0,0,0,0-1.5Zm0,0" transform="translate(-238.277 -341.618)"/>
      <path id="Trazado_841042" data-name="Trazado 841042" d="M176.885,380.657h5.451a.748.748,0,1,0,0-1.5h-5.451a.748.748,0,1,0,0,1.5Zm0,0" transform="translate(-158.695 -341.614)"/>
      <g id="Rect치ngulo_391538" data-name="Rect치ngulo 391538" transform="translate(6.853 13.626)" fill="none" stroke="#000" stroke-width="1">
        <rect width="34" height="19" rx="2" stroke="none"/>
        <rect x="0.5" y="0.5" width="33" height="18" rx="1.5" fill="none"/>
      </g>
    </g>
  </g>
</svg>
