<svg xmlns="http://www.w3.org/2000/svg" width="86" height="72.328" viewBox="0 0 86 72.328">
  <g id="Grupo_1107347" data-name="Grupo 1107347" transform="translate(-1282 -495)">
    <rect id="Rectángulo_391521" data-name="Rectángulo 391521" width="86" height="72.328" rx="6" transform="translate(1282 495)" fill="#fff"/>
    <g id="base-de-datos_18_" data-name="base-de-datos (18)" transform="translate(1292.278 484.864)">
      <path id="Trazado_841057" data-name="Trazado 841057" d="M112.313,159.953a2.753,2.753,0,0,0-3.893,0l-6.389,6.251a2.361,2.361,0,0,1-1.669.691H88.2a2.808,2.808,0,0,1-2.832-2.628,2.758,2.758,0,0,1,2.755-2.886h4.928a2.539,2.539,0,0,0,2.558-2.448,2.506,2.506,0,0,0-2.505-2.565H82.684a10.29,10.29,0,0,0-7.92,3.72,5.385,5.385,0,0,1-4.23,2.052h-1.1v11.242h31.953a3.021,3.021,0,0,0,2.137-.885l8.789-8.651a2.752,2.752,0,0,0,0-3.892Z" transform="translate(-51.264 -103.262)" fill="#ffb69f"/>
      <path id="Trazado_841058" data-name="Trazado 841058" d="M19.157,170.772H4.489V185.7H19.157a.915.915,0,0,0,.915-.915v-13.1A.915.915,0,0,0,19.157,170.772Z" transform="translate(-1.901 -114.21)" fill="#72c1e8"/>
      <path id="Trazado_841059" data-name="Trazado 841059" d="M107.385,187.688H81.744a.6.6,0,0,1,0-1.2h25.611l8.772-8.634a.6.6,0,0,1,.842.855l-8.775,8.638a1.129,1.129,0,0,1-.809.341Zm-28.04,0h-1.42a.6.6,0,1,1,0-1.2h1.42a.6.6,0,1,1,0,1.2Z" transform="translate(-57.262 -119.462)" fill="#fbe0e2"/>
      <path id="Trazado_841060" data-name="Trazado 841060" d="M55.158,188.55a.6.6,0,0,1-.6-.6v-.473a.6.6,0,1,1,1.2,0v.473A.6.6,0,0,1,55.158,188.55Zm0-2.872a.6.6,0,0,1-.6-.6V178.84a.6.6,0,1,1,1.2,0v6.238A.6.6,0,0,1,55.158,185.678Z" transform="translate(-39.957 -119.886)" fill="#c5e5ff"/>
      <path id="Trazado_841061" data-name="Trazado 841061" d="M129.289,107.838H98.95a2.4,2.4,0,0,1-2.4-2.4v-4.288a2.4,2.4,0,0,1,2.4-2.4h30.338a2.4,2.4,0,0,1,2.4,2.4v4.288A2.4,2.4,0,0,1,129.289,107.838Z" transform="translate(-71.875 -59.47)" fill="#f0c020"/>
      <circle id="Elipse_11151" data-name="Elipse 11151" cx="1.896" cy="1.896" r="1.896" transform="translate(29.054 41.93)" fill="#f2e1d6"/>
      <path id="Trazado_841062" data-name="Trazado 841062" d="M129.289,69.967H98.95a2.4,2.4,0,0,1-2.4-2.4V63.279a2.4,2.4,0,0,1,2.4-2.4h30.338a2.4,2.4,0,0,1,2.4,2.4v4.288A2.4,2.4,0,0,1,129.289,69.967Z" transform="translate(-71.875 -30.684)" fill="#f0c020"/>
      <circle id="Elipse_11152" data-name="Elipse 11152" cx="1.896" cy="1.896" r="1.896" transform="translate(29.054 32.843)" fill="#f2e1d6"/>
      <path id="Trazado_841063" data-name="Trazado 841063" d="M129.289,32.1H98.95a2.4,2.4,0,0,1-2.4-2.4V25.408a2.4,2.4,0,0,1,2.4-2.4h30.338a2.4,2.4,0,0,1,2.4,2.4V29.7A2.4,2.4,0,0,1,129.289,32.1Z" transform="translate(-71.875 -1.899)" fill="#f0c020"/>
      <circle id="Elipse_11153" data-name="Elipse 11153" cx="1.896" cy="1.896" r="1.896" transform="translate(29.054 23.757)" fill="#f2e1d6"/>
      <path id="Trazado_841064" data-name="Trazado 841064" d="M56.737,157.625l-6.389,6.253,0,0a1.783,1.783,0,0,1-1.245.516H36.933a2.213,2.213,0,0,1-2.231-2.056,2.165,2.165,0,0,1,2.154-2.26h4.928a3.106,3.106,0,1,0,.053-6.212H31.42c-3.528,0-5.991,1.427-8.386,3.943a4.79,4.79,0,0,1-3.764,1.828h-.5v-.8a1.517,1.517,0,0,0-1.514-1.514h-5.55a.6.6,0,1,0,0,1.2h5.55a.314.314,0,0,1,.314.314v13.1a.314.314,0,0,1-.314.314H2.588a.6.6,0,0,0,0,1.2H17.255a1.516,1.516,0,0,0,1.507-1.37H50.122a3.6,3.6,0,0,0,2.56-1.06,0,0,0,0,0,0,0l1.622-1.6a.6.6,0,0,0,.007-.847.612.612,0,0,0-.847-.007l-1.629,1.6,0,0a2.4,2.4,0,0,1-1.713.71H18.771V160.84h.5a5.99,5.99,0,0,0,4.7-2.277,9.662,9.662,0,0,1,7.452-3.493H41.838a1.912,1.912,0,0,1,1.9,1.951,1.938,1.938,0,0,1-1.958,1.862H36.857A3.363,3.363,0,0,0,33.5,162.4a3.4,3.4,0,0,0,3.431,3.2H49.1a2.936,2.936,0,0,0,2.092-.866h0l6.382-6.245,0,0a2.152,2.152,0,1,1,3.045,3.042s0,0,0,0L56.886,165.2a.6.6,0,0,0-.007.849.615.615,0,0,0,.849,0l3.74-3.683.005,0a3.353,3.353,0,0,0-4.737-4.746Z" transform="translate(0 -101.363)"/>
      <path id="Trazado_841065" data-name="Trazado 841065" d="M223.946,208.443a.6.6,0,0,0,.007-.849.615.615,0,0,0-.849,0,.6.6,0,0,0,.842.854Z" transform="translate(-167.928 -142.066)"/>
      <circle id="Elipse_11154" data-name="Elipse 11154" cx="0.6" cy="0.6" r="0.6" transform="translate(8.706 55.962)"/>
      <path id="Trazado_841066" data-name="Trazado 841066" d="M2.588,168.27a.6.6,0,0,0,0,1.2H6.907a.6.6,0,0,0,0-1.2Z" transform="translate(0 -112.308)"/>
      <path id="Trazado_841067" data-name="Trazado 841067" d="M145.635,116.387h9.344a.6.6,0,0,0,0-1.2h-9.344a.6.6,0,1,0,0,1.2Z" transform="translate(-108.726 -71.961)"/>
      <path id="Trazado_841068" data-name="Trazado 841068" d="M199.867,111.649h.285a.6.6,0,0,0,0-1.2h-.285a.6.6,0,1,0,0,1.2Z" transform="translate(-149.946 -68.36)"/>
      <path id="Trazado_841069" data-name="Trazado 841069" d="M207.134,121.118h.285a.6.6,0,0,0,0-1.2h-.285a.6.6,0,1,0,0,1.2Z" transform="translate(-155.47 -75.557)"/>
      <path id="Trazado_841070" data-name="Trazado 841070" d="M214.4,111.649h.285a.6.6,0,1,0,0-1.2H214.4a.6.6,0,1,0,0,1.2Z" transform="translate(-160.992 -68.36)"/>
      <path id="Trazado_841071" data-name="Trazado 841071" d="M221.667,121.118h.285a.6.6,0,1,0,0-1.2h-.285a.6.6,0,1,0,0,1.2Z" transform="translate(-166.516 -75.557)"/>
      <path id="Trazado_841072" data-name="Trazado 841072" d="M114.791,112.277a2.5,2.5,0,1,0-2.5-2.5A2.5,2.5,0,0,0,114.791,112.277Zm0-3.792a1.3,1.3,0,1,1-1.3,1.3A1.3,1.3,0,0,1,114.791,108.486Z" transform="translate(-83.841 -65.956)"/>
      <path id="Trazado_841073" data-name="Trazado 841073" d="M154.979,77.316h-9.344a.6.6,0,1,0,0,1.2h9.344a.6.6,0,1,0,0-1.2Z" transform="translate(-108.726 -43.177)"/>
      <path id="Trazado_841074" data-name="Trazado 841074" d="M200.152,72.578h-.285a.6.6,0,1,0,0,1.2h.285a.6.6,0,0,0,0-1.2Z" transform="translate(-149.946 -39.575)"/>
      <path id="Trazado_841075" data-name="Trazado 841075" d="M207.418,82.047h-.285a.6.6,0,1,0,0,1.2h.285a.6.6,0,1,0,0-1.2Z" transform="translate(-155.469 -46.773)"/>
      <path id="Trazado_841076" data-name="Trazado 841076" d="M214.685,72.578H214.4a.6.6,0,1,0,0,1.2h.285a.6.6,0,1,0,0-1.2Z" transform="translate(-160.992 -39.575)"/>
      <path id="Trazado_841077" data-name="Trazado 841077" d="M221.952,82.047h-.285a.6.6,0,1,0,0,1.2h.285a.6.6,0,1,0,0-1.2Z" transform="translate(-166.516 -46.773)"/>
      <path id="Trazado_841078" data-name="Trazado 841078" d="M114.791,69.414a2.5,2.5,0,1,0,2.5,2.5A2.5,2.5,0,0,0,114.791,69.414Zm0,3.792a1.3,1.3,0,1,1,1.3-1.3A1.3,1.3,0,0,1,114.791,73.206Z" transform="translate(-83.841 -37.171)"/>
      <path id="Trazado_841079" data-name="Trazado 841079" d="M145.035,40.045a.6.6,0,0,0,.6.6h9.344a.6.6,0,1,0,0-1.2h-9.344A.6.6,0,0,0,145.035,40.045Z" transform="translate(-108.726 -14.392)"/>
      <path id="Trazado_841080" data-name="Trazado 841080" d="M200.152,35.907a.6.6,0,0,0,0-1.2h-.285a.6.6,0,1,0,0,1.2Z" transform="translate(-149.946 -10.791)"/>
      <path id="Trazado_841081" data-name="Trazado 841081" d="M207.418,45.376a.6.6,0,1,0,0-1.2h-.285a.6.6,0,1,0,0,1.2Z" transform="translate(-155.469 -17.988)"/>
      <path id="Trazado_841082" data-name="Trazado 841082" d="M214.685,35.907a.6.6,0,1,0,0-1.2H214.4a.6.6,0,1,0,0,1.2Z" transform="translate(-160.992 -10.791)"/>
      <path id="Trazado_841083" data-name="Trazado 841083" d="M221.952,45.376a.6.6,0,1,0,0-1.2h-.285a.6.6,0,1,0,0,1.2Z" transform="translate(-166.516 -17.988)"/>
      <path id="Trazado_841084" data-name="Trazado 841084" d="M112.3,34.039a2.5,2.5,0,1,0,2.5-2.5A2.5,2.5,0,0,0,112.3,34.039Zm3.792,0a1.3,1.3,0,1,1-1.3-1.3A1.3,1.3,0,0,1,116.088,34.039Z" transform="translate(-83.842 -8.387)"/>
      <path id="Trazado_841085" data-name="Trazado 841085" d="M130.386,27.8V23.509a3,3,0,0,0-3-3H112.463a.6.6,0,0,0,0,1.2h14.924a1.806,1.806,0,0,1,1.8,1.8V27.8a1.806,1.806,0,0,1-1.8,1.8H97.048a1.808,1.808,0,0,1-1.8-1.8V23.509a1.808,1.808,0,0,1,1.8-1.8h10.617a.6.6,0,0,0,0-1.2H97.048a3,3,0,0,0-3,3V27.8a2.994,2.994,0,0,0,1.208,2.4,2.994,2.994,0,0,0-1.207,2.4v4.288a2.993,2.993,0,0,0,1.207,2.4,2.994,2.994,0,0,0-1.207,2.4v4.288a3,3,0,0,0,3,3h30.338a3,3,0,0,0,3-3V41.681a2.993,2.993,0,0,0-1.207-2.4,2.994,2.994,0,0,0,1.207-2.4V32.6a2.993,2.993,0,0,0-1.208-2.4,3,3,0,0,0,1.208-2.4Zm-1.2,13.885V45.97a1.8,1.8,0,0,1-1.8,1.8H97.049a1.8,1.8,0,0,1-1.8-1.8V41.682a1.8,1.8,0,0,1,1.8-1.8h30.338A1.8,1.8,0,0,1,129.186,41.682Zm0-4.8a1.8,1.8,0,0,1-1.8,1.8H97.049a1.8,1.8,0,0,1-1.8-1.8V32.6a1.8,1.8,0,0,1,1.8-1.8h30.338a1.8,1.8,0,0,1,1.8,1.8Z" transform="translate(-69.973 0)"/>
      <circle id="Elipse_11155" data-name="Elipse 11155" cx="0.6" cy="0.6" r="0.6" transform="translate(39.491 20.51)"/>
    </g>
  </g>
</svg>
