<svg xmlns="http://www.w3.org/2000/svg" xmlns:xlink="http://www.w3.org/1999/xlink" width="400" height="408" viewBox="0 0 400 408">
  <defs>
    <clipPath id="clip-path">
      <rect id="Rectángulo_391603" data-name="Rectángulo 391603" width="400" height="408" transform="translate(180 821)" fill="#021456" opacity="0.23"/>
    </clipPath>
  </defs>
  <g id="Enmascarar_grupo_1092464" data-name="Enmascarar grupo 1092464" transform="translate(-180 -821)" clip-path="url(#clip-path)">
    <g id="Grupo_1104265" data-name="Grupo 1104265" transform="translate(184 821.422)">
      <rect id="Rectángulo_391542" data-name="Rectángulo 391542" width="210" height="401.893" rx="6" transform="translate(157.289 0)" fill="#fff0b7"/>
      <g id="Grupo_1104261" data-name="Grupo 1104261" transform="translate(28.896 21.352)">
        <g id="Grupo_1104477" data-name="Grupo 1104477" transform="translate(12)">
          <path id="Trazado_841086" data-name="Trazado 841086" d="M0,0H192.867V133.175H0Z" transform="translate(96.503 0.02)" fill="#ececec"/>
          <g id="Grupo_1104246" data-name="Grupo 1104246" transform="translate(96.503)">
            <path id="Trazado_841088" data-name="Trazado 841088" d="M348.32,39.68l109.623.019.19,47.187" transform="translate(-265.266 -39.68)" fill="none" stroke="#31313c" stroke-linecap="round" stroke-linejoin="round" stroke-width="1"/>
            <path id="Trazado_841089" data-name="Trazado 841089" d="M344.7,172.874l-127.42-.71V39.7L273.7,39.68" transform="translate(-217.28 -39.68)" fill="none" stroke="#31313c" stroke-linecap="round" stroke-linejoin="round" stroke-width="1"/>
            <line id="Línea_3829" data-name="Línea 3829" x2="184.615" transform="translate(2.63 11.079)" fill="none" stroke="#31313c" stroke-linecap="round" stroke-linejoin="round" stroke-width="1"/>
            <line id="Línea_3830" data-name="Línea 3830" x2="8.018" transform="translate(157.665 6.281)" fill="none" stroke="#31313c" stroke-linecap="round" stroke-linejoin="round" stroke-width="1"/>
            <rect id="Rectángulo_391543" data-name="Rectángulo 391543" width="8.227" height="6.256" transform="translate(169.258 2.345)" fill="none" stroke="#31313c" stroke-linecap="round" stroke-linejoin="round" stroke-width="1"/>
            <g id="Grupo_1104245" data-name="Grupo 1104245" transform="translate(182.453 2.973)">
              <line id="Línea_3831" data-name="Línea 3831" x2="5.229" y2="5.229" transform="translate(0)" fill="none" stroke="#31313c" stroke-linecap="round" stroke-linejoin="round" stroke-width="1"/>
              <line id="Línea_3832" data-name="Línea 3832" x1="5.229" y2="5.229" transform="translate(0)" fill="none" stroke="#31313c" stroke-linecap="round" stroke-linejoin="round" stroke-width="1"/>
            </g>
          </g>
        </g>
        <g id="Grupo_1104372" data-name="Grupo 1104372" transform="translate(0 76.889)">
          <path id="Trazado_841087" data-name="Trazado 841087" d="M0,0H92.681V107.233H0Z" transform="translate(226.985 46.88)" fill="#fee586"/>
          <g id="Grupo_1104248" data-name="Grupo 1104248" transform="translate(226.985 46.88)">
            <path id="Trazado_841090" data-name="Trazado 841090" d="M472.872,232.525H423.15V124.69h92.295V232.525H491.835" transform="translate(-423.15 -124.69)" fill="none" stroke="#31313c" stroke-linecap="round" stroke-linejoin="round" stroke-width="1"/>
            <line id="Línea_3833" data-name="Línea 3833" x2="82.705" transform="translate(3.968 11.079)" fill="none" stroke="#31313c" stroke-linecap="round" stroke-linejoin="round" stroke-width="1"/>
            <line id="Línea_3834" data-name="Línea 3834" x2="8.018" transform="translate(57.093 6.275)" fill="none" stroke="#31313c" stroke-linecap="round" stroke-linejoin="round" stroke-width="1"/>
            <rect id="Rectángulo_391544" data-name="Rectángulo 391544" width="8.227" height="6.256" transform="translate(68.685 2.339)" fill="none" stroke="#31313c" stroke-linecap="round" stroke-linejoin="round" stroke-width="1"/>
            <g id="Grupo_1104247" data-name="Grupo 1104247" transform="translate(81.881 2.973)">
              <line id="Línea_3835" data-name="Línea 3835" x2="5.223" y2="5.229" transform="translate(0)" fill="none" stroke="#31313c" stroke-linecap="round" stroke-linejoin="round" stroke-width="1"/>
              <line id="Línea_3836" data-name="Línea 3836" x1="5.223" y2="5.229" transform="translate(0)" fill="none" stroke="#31313c" stroke-linecap="round" stroke-linejoin="round" stroke-width="1"/>
            </g>
          </g>
          <path id="Trazado_841091" data-name="Trazado 841091" d="M0,0H76.785V31.766H0Z" transform="translate(235.098 114.354)" fill="none" stroke="#31313c" stroke-linecap="round" stroke-width="1"/>
          <g id="Grupo_1104250" data-name="Grupo 1104250" transform="translate(299.784 25.882)">
            <path id="Trazado_841095" data-name="Trazado 841095" d="M538.01,91.56l6.23,6.237-6.23,6.23" transform="translate(-538.01 -91.56)" fill="none" stroke="#3a3e44" stroke-linecap="round" stroke-linejoin="round" stroke-width="1"/>
            <path id="Trazado_841096" data-name="Trazado 841096" d="M550.43,91.56l6.23,6.237-6.23,6.23" transform="translate(-542.558 -91.56)" fill="none" stroke="#3a3e44" stroke-linecap="round" stroke-linejoin="round" stroke-width="1"/>
            <path id="Trazado_841097" data-name="Trazado 841097" d="M562.85,91.56l6.23,6.237-6.23,6.23" transform="translate(-547.106 -91.56)" fill="none" stroke="#3a3e44" stroke-linecap="round" stroke-linejoin="round" stroke-width="1"/>
          </g>
        </g>
        <g id="Grupo_1104255" data-name="Grupo 1104255" transform="translate(331.087 140.717)">
          <g id="Grupo_1104252" data-name="Grupo 1104252" transform="translate(0 0)">
            <path id="Trazado_841101" data-name="Trazado 841101" d="M590.968,263.481a1.784,1.784,0,1,1-1.787-1.781A1.789,1.789,0,0,1,590.968,263.481Z" transform="translate(-587.4 -261.7)" fill="#fed743"/>
            <path id="Trazado_841102" data-name="Trazado 841102" d="M606.678,263.481a1.784,1.784,0,1,1-1.787-1.781A1.789,1.789,0,0,1,606.678,263.481Z" transform="translate(-593.153 -261.7)" fill="#fed743"/>
            <path id="Trazado_841103" data-name="Trazado 841103" d="M622.378,263.481a1.784,1.784,0,1,1-1.787-1.781A1.789,1.789,0,0,1,622.378,263.481Z" transform="translate(-598.902 -261.7)" fill="#fed743"/>
          </g>
          <g id="Grupo_1104253" data-name="Grupo 1104253" transform="translate(0 8.835)">
            <path id="Trazado_841104" data-name="Trazado 841104" d="M590.968,277.427a1.784,1.784,0,1,1-1.787-1.787A1.784,1.784,0,0,1,590.968,277.427Z" transform="translate(-587.4 -275.64)" fill="#fed743"/>
            <path id="Trazado_841105" data-name="Trazado 841105" d="M606.678,277.427a1.784,1.784,0,1,1-1.787-1.787A1.784,1.784,0,0,1,606.678,277.427Z" transform="translate(-593.153 -275.64)" fill="#fed743"/>
            <path id="Trazado_841106" data-name="Trazado 841106" d="M622.378,277.427a1.784,1.784,0,1,1-1.787-1.787A1.784,1.784,0,0,1,622.378,277.427Z" transform="translate(-598.902 -275.64)" fill="#fed743"/>
          </g>
          <g id="Grupo_1104254" data-name="Grupo 1104254" transform="translate(0 17.67)">
            <path id="Trazado_841107" data-name="Trazado 841107" d="M590.968,291.367a1.784,1.784,0,1,1-1.787-1.787A1.784,1.784,0,0,1,590.968,291.367Z" transform="translate(-587.4 -289.58)" fill="#fed743"/>
            <path id="Trazado_841108" data-name="Trazado 841108" d="M606.678,291.367a1.784,1.784,0,1,1-1.787-1.787A1.784,1.784,0,0,1,606.678,291.367Z" transform="translate(-593.153 -289.58)" fill="#fed743"/>
            <path id="Trazado_841109" data-name="Trazado 841109" d="M622.378,291.367a1.784,1.784,0,1,1-1.787-1.787A1.784,1.784,0,0,1,622.378,291.367Z" transform="translate(-598.902 -289.58)" fill="#fed743"/>
          </g>
        </g>
        <g id="Grupo_1104317" data-name="Grupo 1104317" transform="translate(-24 -16.688)">
          <g id="Grupo_1104251" data-name="Grupo 1104251" transform="translate(0 0.045)">
            <path id="Trazado_841098" data-name="Trazado 841098" d="M65.02,39.75l6.237,6.237-6.237,6.23" transform="translate(-65.02 -39.75)" fill="none" stroke="#3a3e44" stroke-linecap="round" stroke-linejoin="round" stroke-width="1"/>
            <path id="Trazado_841099" data-name="Trazado 841099" d="M77.44,39.75l6.237,6.237-6.237,6.23" transform="translate(-69.568 -39.75)" fill="none" stroke="#3a3e44" stroke-linecap="round" stroke-linejoin="round" stroke-width="1"/>
            <path id="Trazado_841100" data-name="Trazado 841100" d="M89.86,39.75,96.1,45.987l-6.237,6.23" transform="translate(-74.116 -39.75)" fill="none" stroke="#3a3e44" stroke-linecap="round" stroke-linejoin="round" stroke-width="1"/>
          </g>
          <g id="Grupo_1104259" data-name="Grupo 1104259" transform="translate(30.065 17.166)">
            <g id="Grupo_1104256" data-name="Grupo 1104256" transform="translate(0)">
              <path id="Trazado_841110" data-name="Trazado 841110" d="M26.661,84.19a1.506,1.506,0,1,1-1.505-1.5A1.507,1.507,0,0,1,26.661,84.19Z" transform="translate(-23.65 -82.69)" fill="#3a3e44"/>
              <path id="Trazado_841111" data-name="Trazado 841111" d="M42.376,84.19a1.5,1.5,0,1,1-1.505-1.5A1.507,1.507,0,0,1,42.376,84.19Z" transform="translate(-30.978 -82.69)" fill="#3a3e44"/>
              <path id="Trazado_841112" data-name="Trazado 841112" d="M58.086,84.19a1.5,1.5,0,1,1-1.505-1.5A1.507,1.507,0,0,1,58.086,84.19Z" transform="translate(-38.301 -82.69)" fill="#3a3e44"/>
            </g>
            <g id="Grupo_1104257" data-name="Grupo 1104257" transform="translate(0 7.447)">
              <path id="Trazado_841113" data-name="Trazado 841113" d="M26.661,98.14a1.506,1.506,0,1,1-1.505-1.5A1.507,1.507,0,0,1,26.661,98.14Z" transform="translate(-23.65 -96.64)" fill="#3a3e44"/>
              <path id="Trazado_841114" data-name="Trazado 841114" d="M42.376,98.14a1.5,1.5,0,1,1-1.505-1.5A1.507,1.507,0,0,1,42.376,98.14Z" transform="translate(-30.978 -96.64)" fill="#3a3e44"/>
              <path id="Trazado_841115" data-name="Trazado 841115" d="M58.086,98.14a1.5,1.5,0,1,1-1.505-1.5A1.507,1.507,0,0,1,58.086,98.14Z" transform="translate(-38.301 -96.64)" fill="#3a3e44"/>
            </g>
            <g id="Grupo_1104258" data-name="Grupo 1104258" transform="translate(0 14.889)">
              <path id="Trazado_841116" data-name="Trazado 841116" d="M26.661,112.085a1.505,1.505,0,1,1-1.505-1.505A1.507,1.507,0,0,1,26.661,112.085Z" transform="translate(-23.65 -110.58)" fill="#3a3e44"/>
              <path id="Trazado_841117" data-name="Trazado 841117" d="M42.376,112.085a1.5,1.5,0,1,1-1.505-1.505A1.507,1.507,0,0,1,42.376,112.085Z" transform="translate(-30.978 -110.58)" fill="#3a3e44"/>
              <path id="Trazado_841118" data-name="Trazado 841118" d="M58.086,112.085a1.5,1.5,0,1,1-1.505-1.505A1.507,1.507,0,0,1,58.086,112.085Z" transform="translate(-38.301 -110.58)" fill="#3a3e44"/>
            </g>
          </g>
        </g>
      </g>
      <g id="Grupo_1104320" data-name="Grupo 1104320" transform="translate(177.178 282.068)">
        <path id="Trazado_840831" data-name="Trazado 840831" d="M164.009,438.2l1.633-2.088-6.355-5,6.355-5-1.633-2.087L155,431.1Zm20.111-2.088-6.355-5,6.355-5-1.632-2.087-9.006,7.092,9.006,7.092Zm18.479,0-6.355-5,6.355-5-1.632-2.087-9.006,7.092,9.006,7.092Z" transform="translate(-135.599 -424.011)" fill="#5317a4" fill-rule="evenodd"/>
        <g id="Grupo_1104217" data-name="Grupo 1104217" transform="translate(0 0.544)">
          <g id="Grupo_1096383" data-name="Grupo 1096383" transform="translate(0 0)">
            <path id="Trazado_118580" data-name="Trazado 118580" d="M325.19,446.816a2.4,2.4,0,0,0,.705,1.7l2.437,2.436-2.437,2.436A2.408,2.408,0,0,0,329.3,456.8l2.436-2.436,2.436,2.436a2.408,2.408,0,0,0,3.405-3.406l-2.436-2.436,2.436-2.436a2.408,2.408,0,0,0,0-3.405h0a2.408,2.408,0,0,0-3.405,0l-2.436,2.436-2.436-2.436a2.409,2.409,0,0,0-3.406,0h0a2.4,2.4,0,0,0-.705,1.7Z" transform="translate(-325.19 -444.408)" fill="none" stroke="#5317a4" stroke-width="1"/>
          </g>
        </g>
      </g>
    </g>
    <g id="Browser" transform="translate(318.435 641.572)">
      <g id="Grupo_1104341" data-name="Grupo 1104341" transform="translate(30.379 259.85)">
        <rect id="Rectángulo_391600" data-name="Rectángulo 391600" width="209.272" height="35.332" rx="17.666" transform="translate(0.146 0.153)" fill="#fafafa"/>
        <path id="Trazado_841685" data-name="Trazado 841685" d="M316.97,260.057l48.859-.007c8.725,0,13.712,7.094,13.712,15.82v3.7c0,8.725-4.987,15.8-13.712,15.8l-48.859.007V260.05h0Z" transform="translate(-170.123 -259.904)" fill="#5317a4"/>
        <g id="Grupo_1104339" data-name="Grupo 1104339" transform="translate(22.069 10.401)">
          <path id="Trazado_841686" data-name="Trazado 841686" d="M68.706,282.877v4.669H66.8v-4.428c0-1.449-.714-2.149-1.937-2.149a2.164,2.164,0,0,0-2.272,2.455v4.122H60.68V276.22h1.908v4.122a3.638,3.638,0,0,1,2.717-1.034c1.952,0,3.4,1.114,3.4,3.569Z" transform="translate(-60.68 -274.698)" fill="#263238"/>
          <path id="Trazado_841687" data-name="Trazado 841687" d="M79.53,287.615a3.006,3.006,0,0,1-1.828.546,2.507,2.507,0,0,1-2.811-2.746V281.5H73.55v-1.522h1.34V278.11H76.8v1.865h2.185V281.5H76.8v3.875c0,.794.393,1.224,1.129,1.224A1.751,1.751,0,0,0,79,286.26l.532,1.355Z" transform="translate(-64.176 -275.211)" fill="#263238"/>
          <path id="Trazado_841688" data-name="Trazado 841688" d="M88.14,287.615a3.006,3.006,0,0,1-1.828.546,2.507,2.507,0,0,1-2.811-2.746V281.5H82.16v-1.522H83.5V278.11h1.908v1.865h2.185V281.5H85.408v3.875c0,.794.393,1.224,1.129,1.224a1.751,1.751,0,0,0,1.071-.335l.532,1.355Z" transform="translate(-66.515 -275.211)" fill="#263238"/>
          <path id="Trazado_841689" data-name="Trazado 841689" d="M101.183,284.619a3.969,3.969,0,0,1-4.137,4.181,3.341,3.341,0,0,1-2.607-1.1v3.955H92.53V280.547h1.814v1.071a3.357,3.357,0,0,1,2.7-1.158,3.965,3.965,0,0,1,4.137,4.166Zm-1.937,0a2.421,2.421,0,1,0-2.411,2.549A2.367,2.367,0,0,0,99.245,284.619Z" transform="translate(-69.332 -275.85)" fill="#263238"/>
          <path id="Trazado_841690" data-name="Trazado 841690" d="M106.02,281.717a1.253,1.253,0,1,1,1.253,1.267A1.242,1.242,0,0,1,106.02,281.717Zm0,5.812a1.253,1.253,0,1,1,1.253,1.267A1.242,1.242,0,0,1,106.02,287.529Z" transform="translate(-72.997 -275.847)" fill="#263238"/>
          <path id="Trazado_841691" data-name="Trazado 841691" d="M115.753,274.13h1.712l-5.033,14.377H110.72l5.033-14.377Z" transform="translate(-74.274 -274.13)" fill="#263238"/>
          <path id="Trazado_841692" data-name="Trazado 841692" d="M122.063,274.13h1.712l-5.033,14.377H117.03Z" transform="translate(-75.988 -274.13)" fill="#263238"/>
          <path id="Trazado_841693" data-name="Trazado 841693" d="M138.787,280.58l-3.008,8.15h-1.828l-2.1-5.615-2.134,5.615h-1.828l-2.993-8.15h1.8l2.149,6.009,2.243-6.009h1.6l2.2,6.045,2.214-6.045h1.7Z" transform="translate(-78.123 -275.882)" fill="#263238"/>
          <path id="Trazado_841694" data-name="Trazado 841694" d="M157.837,280.58l-3.008,8.15H153l-2.1-5.615-2.134,5.615h-1.828l-2.993-8.15h1.8l2.149,6.009,2.243-6.009h1.6l2.2,6.045,2.214-6.045h1.7Z" transform="translate(-83.299 -275.882)" fill="#263238"/>
          <path id="Trazado_841695" data-name="Trazado 841695" d="M176.877,280.58l-3.008,8.15h-1.828l-2.1-5.615L167.8,288.73h-1.828l-2.993-8.15h1.8l2.149,6.009,2.243-6.009h1.6l2.2,6.045,2.214-6.045h1.7Z" transform="translate(-88.471 -275.882)" fill="#263238"/>
          <path id="Trazado_841696" data-name="Trazado 841696" d="M182.3,289.7a1.253,1.253,0,1,1,1.253,1.267A1.242,1.242,0,0,1,182.3,289.7Z" transform="translate(-93.72 -278.015)" fill="#263238"/>
        </g>
        <path id="Trazado_841697" data-name="Trazado 841697" d="M227.14,295.335s.394-.036,1.164-.095c.382-.044.855-.16,1.417-.277a11.19,11.19,0,0,0,1.895-.743,12.954,12.954,0,0,0,4.593-3.926,18.3,18.3,0,0,0,2.08-3.693,20.263,20.263,0,0,0,1.288-4.916,38.631,38.631,0,0,0,.169-5.827,20.262,20.262,0,0,0-1.124-6.213,17.072,17.072,0,0,0-3.216-5.565,11.779,11.779,0,0,0-5.128-3.474,9.974,9.974,0,0,0-3.042-.517h-9.9q-6.9,0-14.568.015c-40.847.015-97.267.029-159.58.044-3.863,0-7.669,2.4-9.957,6.366a19.018,19.018,0,0,0-2.356,6.65c-.062.6-.163,1.209-.2,1.821-.017.612-.062,1.216-.056,1.835v1.85c.006.612.045,1.216.062,1.828.36,4.858,2.5,9.374,5.6,12a11.047,11.047,0,0,0,5.133,2.5,7.867,7.867,0,0,0,1.366.153c.455.044.922.022,1.383.029h2.761c14.7,0,28.871,0,42.37.007,27,.015,51.321.022,71.742.036s36.945.036,48.369.051c5.707.015,10.143.022,13.151.029,1.5,0,2.648.015,3.418.015s1.164.015,1.164.015-.394.007-1.164.015-1.917.007-3.418.015c-3.008,0-7.444.015-13.151.029-11.425.015-27.949.029-48.369.051s-44.737.022-71.742.036c-13.5,0-27.679,0-42.37.007H44.166a12.661,12.661,0,0,1-1.389-.029,8.2,8.2,0,0,1-1.394-.153,11.28,11.28,0,0,1-5.229-2.542c-3.165-2.673-5.347-7.269-5.712-12.221-.022-.619-.056-1.238-.062-1.857v-1.85c-.006-.612.039-1.245.056-1.865.034-.619.135-1.238.2-1.85a19.332,19.332,0,0,1,2.4-6.774c2.333-4.05,6.213-6.489,10.148-6.489,62.313.015,118.739.036,159.58.044q7.658,0,14.568.015h6.7c1.085,0,2.148,0,3.2.007a10.2,10.2,0,0,1,3.075.532,11.855,11.855,0,0,1,5.173,3.518,17.025,17.025,0,0,1,3.239,5.623,20.327,20.327,0,0,1,1.124,6.271,38.334,38.334,0,0,1-.18,5.856,20.409,20.409,0,0,1-1.3,4.945,17.985,17.985,0,0,1-2.1,3.707,12.91,12.91,0,0,1-4.627,3.918,11.728,11.728,0,0,1-1.906.728c-.562.109-1.04.218-1.422.262-.77.044-1.164.058-1.164.058Z" transform="translate(-30.379 -259.85)" fill="#263238"/>
        <g id="Grupo_1104340" data-name="Grupo 1104340" transform="translate(165.769 7.334)">
          <path id="Trazado_841698" data-name="Trazado 841698" d="M350.6,285.23a7.655,7.655,0,1,1,7.655-7.655A7.664,7.664,0,0,1,350.6,285.23Zm0-14.7a7.05,7.05,0,1,0,7.05,7.05A7.056,7.056,0,0,0,350.6,270.532Z" transform="translate(-342.95 -269.92)" fill="#fff"/>
          <path id="Trazado_841699" data-name="Trazado 841699" d="M367.245,295.793a.288.288,0,0,1-.218-.095l-6.977-7.509a.3.3,0,1,1,.444-.415l6.985,7.509a.3.3,0,0,1-.015.43.313.313,0,0,1-.2.08Z" transform="translate(-347.573 -274.744)" fill="#fff"/>
        </g>
        <path id="Trazado_841700" data-name="Trazado 841700" d="M189.46,289.407c-.087,0-.16-3.6-.16-8.034s.073-8.034.16-8.034.16,3.6.16,8.034S189.548,289.407,189.46,289.407Z" transform="translate(-70.202 -263.515)" fill="#5317a4"/>
      </g>
    </g>
    <path id="Trazado_819202" data-name="Trazado 819202" d="M357.531,50.753l-3.4.728a1.971,1.971,0,0,0-.325.1,16.677,16.677,0,0,0-3.321-4.781,1.942,1.942,0,0,0,.214-.273l1.876-2.928a1.965,1.965,0,0,0-.594-2.711l-2.928-1.876a1.964,1.964,0,0,0-2.711.594l-1.876,2.928a2.023,2.023,0,0,0-.158.308,16.662,16.662,0,0,0-5.574-1.017,1.929,1.929,0,0,0-.041-.338l-.727-3.4a1.965,1.965,0,0,0-2.33-1.508l-3.4.728a1.965,1.965,0,0,0-1.508,2.329l.728,3.4a1.983,1.983,0,0,0,.1.324,16.675,16.675,0,0,0-4.781,3.321,1.981,1.981,0,0,0-.272-.214L323.577,44.6a1.947,1.947,0,0,0-1.469-.267l-.009,0a1.95,1.95,0,0,0-1.233.858l-1.875,2.928h0a1.965,1.965,0,0,0,.594,2.711l2.928,1.876a1.9,1.9,0,0,0,.308.156,16.654,16.654,0,0,0-1.018,5.575,1.939,1.939,0,0,0-.338.041l-3.4.727a1.965,1.965,0,0,0-1.508,2.33l.728,3.4a1.965,1.965,0,0,0,2.33,1.508l3.4-.728a1.985,1.985,0,0,0,.324-.1,16.671,16.671,0,0,0,3.322,4.782,2,2,0,0,0-.215.271l-1.875,2.928a1.962,1.962,0,0,0,.594,2.711l2.928,1.876a1.965,1.965,0,0,0,2.711-.594l1.875-2.928a1.9,1.9,0,0,0,.156-.308,16.675,16.675,0,0,0,5.575,1.018,1.939,1.939,0,0,0,.041.338l.728,3.4a1.964,1.964,0,0,0,2.329,1.508l3.4-.728a1.965,1.965,0,0,0,1.508-2.33l-.728-3.4a1.908,1.908,0,0,0-.1-.325,16.661,16.661,0,0,0,4.782-3.322,1.993,1.993,0,0,0,.271.216l2.929,1.876a1.966,1.966,0,0,0,2.711-.594l1.876-2.928a1.965,1.965,0,0,0-.594-2.711l-2.929-1.876a1.958,1.958,0,0,0-.308-.158,16.666,16.666,0,0,0,1.017-5.574,1.924,1.924,0,0,0,.338-.041l3.4-.728a1.964,1.964,0,0,0,1.508-2.329l-.728-3.4a1.964,1.964,0,0,0-2.329-1.508M340.5,67.608a9.216,9.216,0,1,1,7.082-10.941A9.226,9.226,0,0,1,340.5,67.608" transform="translate(-18.695 853.909)" fill="#0f1b63"/>
    <g id="Grupo_1104429" data-name="Grupo 1104429" transform="translate(180.117 1005.525)">
      <g id="Grupo_1104427" data-name="Grupo 1104427" transform="translate(34.925 32.239)">
        <path id="Trazado_841456" data-name="Trazado 841456" d="M174.366,38.391H212.63a1.356,1.356,0,0,1,1.356,1.356V90.818a1.356,1.356,0,0,1-1.356,1.356H174.366a1.357,1.357,0,0,1-1.356-1.356V39.747a1.357,1.357,0,0,1,1.356-1.356" transform="translate(-173.01 -38.391)" fill="#ececec"/>
        <path id="Trazado_841457" data-name="Trazado 841457" d="M199.014,75.683h-8.135a1.356,1.356,0,0,1-1.356-1.356V66.192a1.356,1.356,0,0,1,1.356-1.356h8.135a1.356,1.356,0,0,1,1.356,1.356v8.135a1.356,1.356,0,0,1-1.356,1.356" transform="translate(-181.783 -57.756)" fill="#fed743"/>
        <path id="Trazado_841458" data-name="Trazado 841458" d="M203.747,47.961a28.341,28.341,0,0,1-3.993,1.481,12.983,12.983,0,0,1-3.593.712c-1.371-.016-1.679-.986-1.958-2.133a4.255,4.255,0,0,0-1.219-2.381c-1.517-1.284-3.742-.663-5.453-.212l-8.073,2.126a.678.678,0,0,0,.361,1.307l8.233-2.168a7.634,7.634,0,0,1,3.1-.42c1.213.2,1.509,1.167,1.767,2.222a4.171,4.171,0,0,0,1.176,2.346,3.618,3.618,0,0,0,2.853.61,26.08,26.08,0,0,0,7.48-2.32c.792-.362.1-1.531-.685-1.17" transform="translate(-171.898 -6.51)" fill="#2b244a"/>
        <path id="Trazado_841459" data-name="Trazado 841459" d="M187.849,61.738a3.394,3.394,0,0,1-4.34.344,5.526,5.526,0,0,0-2.274-1.308,2,2,0,0,0-2.171.957c-.38.781.79,1.47,1.17.683.312-.641,1.186-.2,1.6.079a8.227,8.227,0,0,0,2.27,1.383,4.788,4.788,0,0,0,4.707-1.18.678.678,0,0,0-.959-.959" transform="translate(-156.137 -40.597)" fill="#2b244a"/>
        <path id="Trazado_841460" data-name="Trazado 841460" d="M202.658,55.088a9.336,9.336,0,0,1-3.951,1.643c-.729.018-.549-.408-.409-.946a1.994,1.994,0,0,0,.057-1.2c-.426-1.155-1.782-.7-2.636-.4a21.98,21.98,0,0,0-3.8,1.757c-.145.084-.572.389-.743.305.095.046.214-.329.258-.518a1.307,1.307,0,0,0-.274-1.169c-.645-.717-1.756-.481-2.55-.222-1.429.466-2.85.959-4.275,1.436-1.466.491-3,1.055-4.518.454-.811-.321-1.163.99-.359,1.307a6.2,6.2,0,0,0,4.081-.079c1.52-.447,3.014-1,4.515-1.5.268-.089,1.756-.8,2.023-.5.06.066-.212.609-.228.7a1.384,1.384,0,0,0,.011.559c.277,1.085,1.554.978,2.348.611a40,40,0,0,1,4.017-1.882c.077-.026.94-.271.854-.38.068.087-.169.643-.194.751a2.048,2.048,0,0,0,.054,1.379c1.075,2.271,5.132-.175,6.408-.937a.678.678,0,0,0-.685-1.17" transform="translate(-170.809 -25.307)" fill="#2b244a"/>
      </g>
      <g id="Grupo_1104428" data-name="Grupo 1104428" transform="translate(0 0)">
        <path id="Trazado_841456-2" data-name="Trazado 841456" d="M174.366,38.391H212.63a1.356,1.356,0,0,1,1.356,1.356V90.818a1.356,1.356,0,0,1-1.356,1.356H174.366a1.357,1.357,0,0,1-1.356-1.356V39.747a1.357,1.357,0,0,1,1.356-1.356" transform="translate(-173.01 -38.391)" fill="#dfcbfa"/>
        <path id="Trazado_841457-2" data-name="Trazado 841457" d="M199.014,75.683h-8.135a1.356,1.356,0,0,1-1.356-1.356V66.192a1.356,1.356,0,0,1,1.356-1.356h8.135a1.356,1.356,0,0,1,1.356,1.356v8.135a1.356,1.356,0,0,1-1.356,1.356" transform="translate(-181.783 -57.756)" fill="#fed743"/>
        <path id="Trazado_841458-2" data-name="Trazado 841458" d="M203.747,47.961a28.341,28.341,0,0,1-3.993,1.481,12.983,12.983,0,0,1-3.593.712c-1.371-.016-1.679-.986-1.958-2.133a4.255,4.255,0,0,0-1.219-2.381c-1.517-1.284-3.742-.663-5.453-.212l-8.073,2.126a.678.678,0,0,0,.361,1.307l8.233-2.168a7.634,7.634,0,0,1,3.1-.42c1.213.2,1.509,1.167,1.767,2.222a4.171,4.171,0,0,0,1.176,2.346,3.618,3.618,0,0,0,2.853.61,26.08,26.08,0,0,0,7.48-2.32c.792-.362.1-1.531-.685-1.17" transform="translate(-171.898 -6.51)" fill="#2b244a"/>
        <path id="Trazado_841459-2" data-name="Trazado 841459" d="M187.849,61.738a3.394,3.394,0,0,1-4.34.344,5.526,5.526,0,0,0-2.274-1.308,2,2,0,0,0-2.171.957c-.38.781.79,1.47,1.17.683.312-.641,1.186-.2,1.6.079a8.227,8.227,0,0,0,2.27,1.383,4.788,4.788,0,0,0,4.707-1.18.678.678,0,0,0-.959-.959" transform="translate(-156.137 -40.597)" fill="#2b244a"/>
        <path id="Trazado_841460-2" data-name="Trazado 841460" d="M202.658,55.088a9.336,9.336,0,0,1-3.951,1.643c-.729.018-.549-.408-.409-.946a1.994,1.994,0,0,0,.057-1.2c-.426-1.155-1.782-.7-2.636-.4a21.98,21.98,0,0,0-3.8,1.757c-.145.084-.572.389-.743.305.095.046.214-.329.258-.518a1.307,1.307,0,0,0-.274-1.169c-.645-.717-1.756-.481-2.55-.222-1.429.466-2.85.959-4.275,1.436-1.466.491-3,1.055-4.518.454-.811-.321-1.163.99-.359,1.307a6.2,6.2,0,0,0,4.081-.079c1.52-.447,3.014-1,4.515-1.5.268-.089,1.756-.8,2.023-.5.06.066-.212.609-.228.7a1.384,1.384,0,0,0,.011.559c.277,1.085,1.554.978,2.348.611a40,40,0,0,1,4.017-1.882c.077-.026.94-.271.854-.38.068.087-.169.643-.194.751a2.048,2.048,0,0,0,.054,1.379c1.075,2.271,5.132-.175,6.408-.937a.678.678,0,0,0-.685-1.17" transform="translate(-170.809 -25.307)" fill="#2b244a"/>
      </g>
    </g>
    <g id="Grupo_1104319" data-name="Grupo 1104319" transform="translate(0 38)">
      <g id="Grupo_1104318" data-name="Grupo 1104318" transform="translate(-2 15.779)">
        <g id="Character" transform="translate(80.718 639.794)">
          <g id="Grupo_1104288" data-name="Grupo 1104288" transform="translate(138.261 370.436)">
            <path id="Trazado_841364" data-name="Trazado 841364" d="M137,439.156l-7.317,60.566H253.5l-37.16-17.866s3.722-5.2,4.1-8.562c.35-3.2-9.808-21.658-10.717-23.323l-.825-5.512s-1.777-26.065-.756-31.13,3.54-16.957-1.525-30.374S188.4,346.509,188.4,346.509l-39.23-11.389s-17.964,24.806-14.676,51.123a397.3,397.3,0,0,1,2.532,52.9Z" transform="translate(-129.68 -335.12)" fill="#5317a4" stroke="#263238" stroke-linecap="round" stroke-linejoin="round" stroke-width="1"/>
            <path id="Trazado_841365" data-name="Trazado 841365" d="M237.566,457.866,200.406,440,169.57,457.866Z" transform="translate(-113.76 -293.264)" fill="#5317a4" stroke="#263238" stroke-linecap="round" stroke-linejoin="round" stroke-width="1"/>
            <line id="Línea_3837" data-name="Línea 3837" x1="49.877" y2="14.523" transform="translate(36.768 146.736)" fill="#fff" stroke="#263238" stroke-linecap="round" stroke-linejoin="round" stroke-width="1"/>
            <line id="Línea_3838" data-name="Línea 3838" x1="10.423" y2="8.562" transform="translate(34.166 154.935)" fill="#fff" stroke="#263238" stroke-linecap="round" stroke-linejoin="round" stroke-width="1"/>
          </g>
          <g id="Grupo_1104291" data-name="Grupo 1104291" transform="translate(137.834 246.628)">
            <g id="Grupo_1104289" data-name="Grupo 1104289" transform="translate(30.004 43.369)">
              <path id="Trazado_841366" data-name="Trazado 841366" d="M208.085,279.632a57.6,57.6,0,0,1,3.078,14.564c.853,9-.923,13.893,1.329,16.677s4.477,3.512,3.148,6.436-6.87,4.883-6.87,4.883-5.3,11.92-8.492,15.656-15.264-.056-15.264-.056l-4.127,12.8-28.108-13.6,3.652-13.109-5.61-17.125s12.844-38.111,57.251-27.156Z" transform="translate(-150.82 -277.626)" fill="#fff" stroke="#263238" stroke-linecap="round" stroke-linejoin="round" stroke-width="1"/>
              <path id="Trazado_841367" data-name="Trazado 841367" d="M177.006,321.57l-6.086-3.26,3.176,10.311Z" transform="translate(-142.798 -261.39)" fill="#263238" stroke="#263238" stroke-linecap="round" stroke-linejoin="round" stroke-width="1"/>
              <path id="Trazado_841368" data-name="Trazado 841368" d="M182.67,308.86s3.134,4.141,7.219,4.057" transform="translate(-138.109 -265.161)" fill="none" stroke="#263238" stroke-linecap="round" stroke-linejoin="round" stroke-width="1"/>
              <path id="Trazado_841369" data-name="Trazado 841369" d="M192.475,298.095c-.2,1.945-1.091,3.442-2,3.358s-1.469-1.749-1.273-3.694,1.091-3.442,2-3.358S192.671,296.15,192.475,298.095Z" transform="translate(-135.518 -270.933)" fill="#263238"/>
              <path id="Trazado_841370" data-name="Trazado 841370" d="M188.21,292.75s3.26-4.491,6.394-.35" transform="translate(-135.898 -272.43)" fill="none" stroke="#263238" stroke-linecap="round" stroke-linejoin="round" stroke-width="1"/>
            </g>
            <path id="Trazado_841371" data-name="Trazado 841371" d="M173.137,261.828s-22.2-1.791-28.192,11.836-6.156,32.445-3.778,39.048,9.738,16.523,12.746,19.377,7.891,4.883,12.158,3.036,9.43-9.961,10.731-15.18.532-10.115,1.819-10.241,2.994.56,9.22-.574,18.762-6.716,25.589-16.187,5.638-20.021,3.008-24.12-30.29-14.578-43.288-7.023Z" transform="translate(-125.238 -241.637)" fill="#263238" stroke="#263238" stroke-linecap="round" stroke-linejoin="round" stroke-width="1"/>
            <g id="Grupo_1104290" data-name="Grupo 1104290">
              <path id="Trazado_841372" data-name="Trazado 841372" d="M176.937,262.706s.266,4.855-2.84,7.849-18.51,9.276-18.51,9.276-5.079,12.2-6.981,15.81-4.015,4.421-6.436,3.148-13.5-7.247-12.76-9.458,3.19-3.736,3.246-6.786-2.113-6.576-.378-8.688a51.789,51.789,0,0,1,5.638-5.275s-3.484-10.535-.518-12.27,10-.742,11.808-1.063,4.519-9.206,12.844-8.59a14.049,14.049,0,0,1,11.486,7.037s3.372-.672,4.323,2.476-.923,6.52-.923,6.52Z" transform="translate(-129.375 -246.628)" fill="#b98df6" stroke="#263238" stroke-linecap="round" stroke-linejoin="round" stroke-width="1"/>
              <line id="Línea_3839" data-name="Línea 3839" x2="6.212" y2="1.413" transform="translate(19.833 8.635)" fill="none" stroke="#263238" stroke-linecap="round" stroke-linejoin="round" stroke-width="1"/>
              <path id="Trazado_841373" data-name="Trazado 841373" d="M154.053,250.93s.392,3.6-2.7,8.884-13.585,18.188-17.5,21.6" transform="translate(-127.589 -244.911)" fill="none" stroke="#263238" stroke-linecap="round" stroke-linejoin="round" stroke-width="1"/>
              <path id="Trazado_841374" data-name="Trazado 841374" d="M135.47,263.453s4.883-5.345,12.074-3.582" transform="translate(-126.942 -241.485)" fill="none" stroke="#263238" stroke-linecap="round" stroke-linejoin="round" stroke-width="1"/>
              <path id="Trazado_841375" data-name="Trazado 841375" d="M169.2,252.87s-9.276,11-15.88,18.2S138.1,282.978,137.27,288.491" transform="translate(-126.224 -244.137)" fill="none" stroke="#263238" stroke-linecap="round" stroke-linejoin="round" stroke-width="1"/>
              <path id="Trazado_841376" data-name="Trazado 841376" d="M154.88,260.175s7.5-6.1,11.864-1.567" transform="translate(-119.196 -242.516)" fill="none" stroke="#263238" stroke-linecap="round" stroke-linejoin="round" stroke-width="1"/>
            </g>
            <path id="Trazado_841377" data-name="Trazado 841377" d="M176.744,302.277s-4.9-11.7-10.045-8.674-3.68,15.908-1.245,19.461,7.079.476,7.079.476" transform="translate(-115.863 -228.081)" fill="#fff" stroke="#263238" stroke-linecap="round" stroke-linejoin="round" stroke-width="1"/>
          </g>
          <path id="Trazado_841378" data-name="Trazado 841378" d="M151.415,318.07s37.2,9.864,39.482,12.914,1.777,5.568.5,7.345-3.288,7.849-3.288,7.849,1.777,5.568.756,7.849-5.065,4.309-7.849,3.54-35.943-12.144-37.2-12.914-1.777-6.576.755-8.353,1.259.252,2.532-1.777-2.784-15.7,4.309-16.453Z" transform="translate(13.806 28.511)" fill="#925dda" stroke="#263238" stroke-linecap="round" stroke-linejoin="round" stroke-width="1"/>
          <g id="Grupo_1104292" data-name="Grupo 1104292" transform="translate(274.546 455.878)">
            <path id="Trazado_841379" data-name="Trazado 841379" d="M231.847,396.19s18.412,2.378,19.6,2.183,7.527,4.561,12.676,7.723,7.135,5.736,9.905,8.52,6.534,4.155,4.953,5.344-2.378,1.189-4.757.392-5.149-1.777-5.149-1.777a8.764,8.764,0,0,1-5.736,1.189,80.345,80.345,0,0,1-9.71-3.372s-5.345.588-9.108-.588-11.487-8.311-11.487-8.311l-4.561.392-1.385-10.493,4.757-1.189Z" transform="translate(-227.09 -396.19)" fill="#fff" stroke="#263238" stroke-linecap="round" stroke-linejoin="round" stroke-width="1"/>
            <path id="Trazado_841380" data-name="Trazado 841380" d="M246.63,404.97a21.456,21.456,0,0,1,3.162,2.183c2.966,2.183,13.669,3.959,11.487,7.919" transform="translate(-219.292 -392.686)" fill="none" stroke="#263238" stroke-linecap="round" stroke-linejoin="round" stroke-width="1"/>
          </g>
          <g id="Grupo_1104293" data-name="Grupo 1104293" transform="translate(275.036 440.929)">
            <path id="Trazado_841381" data-name="Trazado 841381" d="M270.361,406.9s.336,3.19-.168,4.029-2.35.839-3.358-1.175a16.722,16.722,0,0,1-1.175-5.373Z" transform="translate(-212.187 -377.972)" fill="#fff" stroke="#263238" stroke-miterlimit="10" stroke-width="1"/>
            <path id="Trazado_841382" data-name="Trazado 841382" d="M267.907,407.133s-1.105,3.008-1.917,3.54-2.476-.28-2.49-2.532a16.81,16.81,0,0,1,1.3-5.331Z" transform="translate(-213.049 -378.599)" fill="#fff" stroke="#263238" stroke-miterlimit="10" stroke-width="1"/>
            <path id="Trazado_841383" data-name="Trazado 841383" d="M269.379,403.9s3.358,3.022,3.022,6.03-2.686,2.35-3.358.336S267.7,405.9,267.7,405.9l1.679-2.015Z" transform="translate(-211.373 -378.168)" fill="#fff" stroke="#263238" stroke-miterlimit="10" stroke-width="1"/>
            <path id="Trazado_841384" data-name="Trazado 841384" d="M227.454,388.59s19.237-3.54,24.554-3.036,20.245,6.828,22.022,7.849,12.144,8.353,12.4,10.381a30.815,30.815,0,0,1-.5,6.324s5.065,1.007,3.288,3.288-5.568,1.777-7.849,1.007-9.612-5.568-11.389-6.324-8.1.756-12.914-.755-12.4-8.6-12.4-8.6l-15.7,4.561L227.44,388.6Z" transform="translate(-227.44 -385.505)" fill="#fff" stroke="#263238" stroke-miterlimit="10" stroke-width="1"/>
            <path id="Trazado_841385" data-name="Trazado 841385" d="M258.71,392.16s2.518.336,5.372,3.358,9.36,11.934,9.36,11.934c-7.233-1.147-13.725-8.073-13.725-8.073" transform="translate(-214.961 -382.849)" fill="#fff" stroke="#263238" stroke-miterlimit="10" stroke-width="1"/>
          </g>
          <g id="Grupo_1104294" data-name="Grupo 1104294" transform="translate(160.194 390.093)">
            <path id="Trazado_841386" data-name="Trazado 841386" d="M149.866,353.731s-7.345,14.173-3.288,49.6,18.216,56.187,26.317,56.439,68.835-17.209,74.907-20.748,18.216-7.079,18.986-7.345,2.784-7.6,1.007-17.461a115.244,115.244,0,0,0-2.784-12.914l-23.784,4.309-36.194,6.072a3.337,3.337,0,0,0-1.777-3.54,42.338,42.338,0,0,0-7.345-2.532s-6.576-44.8-20.245-56.439" transform="translate(-145.356 -349.17)" fill="#925dda" stroke="#263238" stroke-linecap="round" stroke-linejoin="round" stroke-width="1"/>
            <path id="Trazado_841387" data-name="Trazado 841387" d="M189.667,389.52s-20.5,13.669-28.6,15.18" transform="translate(-139.085 -333.067)" fill="none" stroke="#263238" stroke-linecap="round" stroke-linejoin="round" stroke-width="1"/>
            <path id="Trazado_841388" data-name="Trazado 841388" d="M164.694,408.92a50.321,50.321,0,0,1-5.624,3.47" transform="translate(-139.884 -325.325)" fill="none" stroke="#263238" stroke-linecap="round" stroke-linejoin="round" stroke-width="1"/>
            <path id="Trazado_841389" data-name="Trazado 841389" d="M185.435,393.68a174.926,174.926,0,0,1-20.1,19.014" transform="translate(-137.385 -331.407)" fill="none" stroke="#263238" stroke-linecap="round" stroke-linejoin="round" stroke-width="1"/>
            <path id="Trazado_841390" data-name="Trazado 841390" d="M182.156,407.63a16.931,16.931,0,0,1-2.826,2.756" transform="translate(-131.798 -325.84)" fill="none" stroke="#263238" stroke-linecap="round" stroke-linejoin="round" stroke-width="1"/>
            <path id="Trazado_841391" data-name="Trazado 841391" d="M188.562,395.49a53.52,53.52,0,0,1-5.722,14.075" transform="translate(-130.397 -330.684)" fill="none" stroke="#263238" stroke-linecap="round" stroke-linejoin="round" stroke-width="1"/>
            <path id="Trazado_841392" data-name="Trazado 841392" d="M219.958,403.81c0,1.343-.014,2.784-.1,4.3" transform="translate(-115.623 -327.364)" fill="none" stroke="#263238" stroke-linecap="round" stroke-linejoin="round" stroke-width="1"/>
            <path id="Trazado_841393" data-name="Trazado 841393" d="M215.88,389.88s4.239,3.428,5.386,14.341" transform="translate(-117.212 -332.923)" fill="none" stroke="#263238" stroke-linecap="round" stroke-linejoin="round" stroke-width="1"/>
          </g>
          <path id="Trazado_841394" data-name="Trazado 841394" d="M141.227,484.821H118.422s-14.788-58.915-8.828-104.33a8.769,8.769,0,0,1,8.7-7.611h0a8.76,8.76,0,0,1,8.772,8.814c-.1,16.187,1.385,53.585,14.159,103.126Z" transform="translate(0 50.385)" fill="#263238" stroke="#263238" stroke-linecap="round" stroke-linejoin="round" stroke-width="1"/>
        </g>
        <g id="Line" transform="translate(179.617 722.11)">
          <line id="Línea_3840" data-name="Línea 3840" x2="400.383" transform="translate(0.5 452.89)" fill="none" stroke="#263238" stroke-linecap="round" stroke-linejoin="round" stroke-width="1"/>
        </g>
      </g>
      <g id="Grupo_1104475" data-name="Grupo 1104475" transform="translate(0 -38)">
        <g id="Device_1" data-name="Device 1" transform="translate(376.004 1106.999)">
          <g id="Grupo_1104457" data-name="Grupo 1104457" transform="translate(139.45 0.5)">
            <g id="Grupo_1104456" data-name="Grupo 1104456" transform="translate(0.368 1.556)">
              <rect id="Rectángulo_391649" data-name="Rectángulo 391649" width="2.03" height="5.368" transform="translate(54.607 34.029)" fill="#263238" stroke="#263238" stroke-miterlimit="10" stroke-width="1"/>
              <rect id="Rectángulo_391650" data-name="Rectángulo 391650" width="2.03" height="5.368" transform="translate(54.607 65.694)" fill="#263238" stroke="#263238" stroke-miterlimit="10" stroke-width="1"/>
              <rect id="Rectángulo_391651" data-name="Rectángulo 391651" width="2.03" height="5.368" transform="translate(0 2.97)" fill="#263238" stroke="#263238" stroke-miterlimit="10" stroke-width="1"/>
              <rect id="Rectángulo_391652" data-name="Rectángulo 391652" width="2.03" height="5.368" transform="translate(0 50.064)" fill="#263238" stroke="#263238" stroke-miterlimit="10" stroke-width="1"/>
              <rect id="Rectángulo_391653" data-name="Rectángulo 391653" width="53.436" height="11.574" transform="translate(1.838)" fill="#fff" stroke="#263238" stroke-miterlimit="10" stroke-width="1"/>
              <rect id="Rectángulo_391654" data-name="Rectángulo 391654" width="36.828" height="5.667" transform="translate(4.406 2.953)" fill="#5317a4" stroke="#263238" stroke-miterlimit="10" stroke-width="1"/>
              <circle id="Elipse_11166" data-name="Elipse 11166" cx="1.427" cy="1.427" r="1.427" transform="translate(44.795 4.111)" fill="#fff" stroke="#263238" stroke-miterlimit="10" stroke-width="1"/>
              <path id="Trazado_842785" data-name="Trazado 842785" d="M261.065,15.187a1.427,1.427,0,1,0-1.427,1.427A1.427,1.427,0,0,0,261.065,15.187Z" transform="translate(-207.821 -9.649)" fill="#fed743" stroke="#263238" stroke-miterlimit="10" stroke-width="1"/>
              <circle id="Elipse_11167" data-name="Elipse 11167" cx="1.427" cy="1.427" r="1.427" transform="translate(36.465 4.111)" fill="#fff" stroke="#263238" stroke-miterlimit="10" stroke-width="1"/>
              <rect id="Rectángulo_391655" data-name="Rectángulo 391655" width="49.381" height="3.962" transform="translate(3.868 11.574)" fill="#263238" stroke="#263238" stroke-miterlimit="10" stroke-width="1"/>
              <rect id="Rectángulo_391656" data-name="Rectángulo 391656" width="53.436" height="11.574" transform="translate(1.838 15.536)" fill="#fff" stroke="#263238" stroke-miterlimit="10" stroke-width="1"/>
              <rect id="Rectángulo_391657" data-name="Rectángulo 391657" width="36.828" height="5.667" transform="translate(4.406 18.489)" fill="#5317a4" stroke="#263238" stroke-miterlimit="10" stroke-width="1"/>
              <circle id="Elipse_11168" data-name="Elipse 11168" cx="1.427" cy="1.427" r="1.427" transform="translate(44.795 19.651)" fill="#fed743" stroke="#263238" stroke-miterlimit="10" stroke-width="1"/>
              <path id="Trazado_842786" data-name="Trazado 842786" d="M261.065,51.547a1.427,1.427,0,1,0-1.427,1.427A1.427,1.427,0,0,0,261.065,51.547Z" transform="translate(-207.821 -30.469)" fill="#fff" stroke="#263238" stroke-miterlimit="10" stroke-width="1"/>
              <circle id="Elipse_11169" data-name="Elipse 11169" cx="1.427" cy="1.427" r="1.427" transform="translate(36.465 19.651)" fill="#fff" stroke="#263238" stroke-miterlimit="10" stroke-width="1"/>
              <rect id="Rectángulo_391658" data-name="Rectángulo 391658" width="49.381" height="3.962" transform="translate(3.868 27.114)" fill="#263238" stroke="#263238" stroke-miterlimit="10" stroke-width="1"/>
              <rect id="Rectángulo_391659" data-name="Rectángulo 391659" width="53.436" height="11.574" transform="translate(1.838 31.075)" fill="#fff" stroke="#263238" stroke-miterlimit="10" stroke-width="1"/>
              <rect id="Rectángulo_391660" data-name="Rectángulo 391660" width="36.828" height="5.667" transform="translate(4.406 34.029)" fill="#5317a4" stroke="#263238" stroke-miterlimit="10" stroke-width="1"/>
              <circle id="Elipse_11170" data-name="Elipse 11170" cx="1.427" cy="1.427" r="1.427" transform="translate(44.795 35.187)" fill="#fff" stroke="#263238" stroke-miterlimit="10" stroke-width="1"/>
              <path id="Trazado_842787" data-name="Trazado 842787" d="M261.065,87.9a1.427,1.427,0,1,0-1.427,1.427A1.427,1.427,0,0,0,261.065,87.9Z" transform="translate(-207.821 -51.283)" fill="#fed743" stroke="#263238" stroke-miterlimit="10" stroke-width="1"/>
              <circle id="Elipse_11171" data-name="Elipse 11171" cx="1.427" cy="1.427" r="1.427" transform="translate(36.465 35.187)" fill="#fff" stroke="#263238" stroke-miterlimit="10" stroke-width="1"/>
              <rect id="Rectángulo_391661" data-name="Rectángulo 391661" width="49.381" height="3.962" transform="translate(3.868 42.649)" fill="#263238" stroke="#263238" stroke-miterlimit="10" stroke-width="1"/>
              <rect id="Rectángulo_391662" data-name="Rectángulo 391662" width="53.436" height="11.574" transform="translate(1.838 46.611)" fill="#fff" stroke="#263238" stroke-miterlimit="10" stroke-width="1"/>
              <rect id="Rectángulo_391663" data-name="Rectángulo 391663" width="36.828" height="5.667" transform="translate(4.406 49.564)" fill="#5317a4" stroke="#263238" stroke-miterlimit="10" stroke-width="1"/>
              <circle id="Elipse_11172" data-name="Elipse 11172" cx="1.427" cy="1.427" r="1.427" transform="translate(44.795 50.727)" fill="#fed743" stroke="#263238" stroke-miterlimit="10" stroke-width="1"/>
              <path id="Trazado_842788" data-name="Trazado 842788" d="M261.065,124.257a1.427,1.427,0,1,0-1.427,1.427A1.427,1.427,0,0,0,261.065,124.257Z" transform="translate(-207.821 -72.103)" fill="#fff" stroke="#263238" stroke-miterlimit="10" stroke-width="1"/>
              <circle id="Elipse_11173" data-name="Elipse 11173" cx="1.427" cy="1.427" r="1.427" transform="translate(36.465 50.727)" fill="#fff" stroke="#263238" stroke-miterlimit="10" stroke-width="1"/>
              <rect id="Rectángulo_391664" data-name="Rectángulo 391664" width="49.381" height="3.962" transform="translate(3.868 58.189)" fill="#263238" stroke="#263238" stroke-miterlimit="10" stroke-width="1"/>
              <rect id="Rectángulo_391665" data-name="Rectángulo 391665" width="53.436" height="11.574" transform="translate(1.838 62.151)" fill="#fff" stroke="#263238" stroke-miterlimit="10" stroke-width="1"/>
              <rect id="Rectángulo_391666" data-name="Rectángulo 391666" width="36.828" height="5.667" transform="translate(4.406 65.104)" fill="#5317a4" stroke="#263238" stroke-miterlimit="10" stroke-width="1"/>
              <circle id="Elipse_11174" data-name="Elipse 11174" cx="1.427" cy="1.427" r="1.427" transform="translate(44.795 66.262)" fill="#fff" stroke="#263238" stroke-miterlimit="10" stroke-width="1"/>
              <path id="Trazado_842789" data-name="Trazado 842789" d="M261.065,160.607a1.427,1.427,0,1,0-1.427,1.427A1.427,1.427,0,0,0,261.065,160.607Z" transform="translate(-207.821 -92.918)" fill="#fed743" stroke="#263238" stroke-miterlimit="10" stroke-width="1"/>
              <circle id="Elipse_11175" data-name="Elipse 11175" cx="1.427" cy="1.427" r="1.427" transform="translate(36.465 66.262)" fill="#fff" stroke="#263238" stroke-miterlimit="10" stroke-width="1"/>
            </g>
            <line id="Línea_3850" data-name="Línea 3850" x2="2.992" transform="translate(32.482)" fill="none" stroke="#263238" stroke-linecap="round" stroke-linejoin="round" stroke-width="1"/>
            <line id="Línea_3851" data-name="Línea 3851" x2="17.309" transform="translate(11.753)" fill="none" stroke="#263238" stroke-linecap="round" stroke-linejoin="round" stroke-width="1"/>
            <line id="Línea_3852" data-name="Línea 3852" y2="2.137" transform="translate(0 70.305)" fill="none" stroke="#263238" stroke-linecap="round" stroke-linejoin="round" stroke-width="1"/>
            <line id="Línea_3853" data-name="Línea 3853" y2="4.488" transform="translate(0 63.681)" fill="none" stroke="#263238" stroke-linecap="round" stroke-linejoin="round" stroke-width="1"/>
          </g>
        </g>
        <path id="Trazado_843106" data-name="Trazado 843106" d="M-114.546-10538.071H-126.5v-39.3h-20.609v-36.77h-26.146" transform="translate(632 11700)" fill="none" stroke="#5317a4" stroke-linecap="round" stroke-width="0.7" stroke-dasharray="3"/>
      </g>
      <g id="Grupo_1104316" data-name="Grupo 1104316" transform="translate(2.715 -435.643)">
        <g id="Table" transform="translate(325.58 1580.551)">
          <g id="Grupo_1104285" data-name="Grupo 1104285">
            <rect id="Rectángulo_391559" data-name="Rectángulo 391559" width="236.763" height="45.871" transform="translate(6.971)" fill="#fff" stroke="#263238" stroke-linecap="round" stroke-linejoin="round" stroke-width="1"/>
            <rect id="Rectángulo_391560" data-name="Rectángulo 391560" width="236.763" height="15.309" transform="translate(6.971)" fill="#263238" stroke="#263238" stroke-linecap="round" stroke-linejoin="round" stroke-width="1"/>
            <rect id="Rectángulo_391561" data-name="Rectángulo 391561" width="250.705" height="8.16" fill="#fff" stroke="#263238" stroke-linecap="round" stroke-linejoin="round" stroke-width="1"/>
          </g>
        </g>
        <g id="Device" transform="translate(352.001 1414.783)">
          <g id="Grupo_1104287" data-name="Grupo 1104287" transform="translate(0 0)">
            <g id="Grupo_1104286" data-name="Grupo 1104286" transform="translate(93.841)">
              <path id="Trazado_841362" data-name="Trazado 841362" d="M346.195,428.075l-29.565-73.59a2.048,2.048,0,0,0-3.8,1.531l29.565,73.59a7.71,7.71,0,0,1,.574,2.939,7.884,7.884,0,0,1-7.873,7.873H311.45v4.1H335.1a11.983,11.983,0,0,0,11.112-16.443Z" transform="translate(-302.71 -277.821)" fill="#263238"/>
              <rect id="Rectángulo_391562" data-name="Rectángulo 391562" width="7.818" height="139.923" transform="matrix(0.995, 0.098, -0.098, 0.995, 13.679, 0)" fill="#fff" stroke="#263238" stroke-linecap="round" stroke-linejoin="round" stroke-width="1"/>
            </g>
            <path id="Trazado_841363" data-name="Trazado 841363" d="M312.765,413.81,236.4,417.172v3.841h76.365Z" transform="translate(-236.4 -255.587)" fill="#fff" stroke="#263238" stroke-linecap="round" stroke-linejoin="round" stroke-width="1"/>
          </g>
        </g>
      </g>
    </g>
    <g id="Bubbles" transform="translate(229.812 921.465)">
      <g id="Grupo_1104415" data-name="Grupo 1104415" transform="translate(-18 3)">
        <g id="Grupo_1104413" data-name="Grupo 1104413">
          <circle id="Elipse_11162" data-name="Elipse 11162" cx="23.86" cy="23.86" r="23.86" transform="translate(153.29 28.32)" fill="#fafafa"/>
          <path id="Trazado_842047" data-name="Trazado 842047" d="M201.02,52.18s-.02-.13-.05-.39c-.02-.28-.05-.65-.08-1.13-.02-.25-.03-.53-.05-.83s-.1-.64-.16-.99a17.761,17.761,0,0,0-.51-2.46,22.942,22.942,0,0,0-2.65-6.31,23.651,23.651,0,0,0-28.41-10.08,23.28,23.28,0,0,0-3.08,1.36,25.33,25.33,0,0,0-2.89,1.86,26.069,26.069,0,0,0-2.68,2.28,26.547,26.547,0,0,0-2.31,2.74,22.942,22.942,0,0,0-3.37,6.5,25.432,25.432,0,0,0-1.22,7.45,25.105,25.105,0,0,0,1.22,7.45,23,23,0,0,0,3.37,6.51,26.547,26.547,0,0,0,2.31,2.74,27.386,27.386,0,0,0,2.68,2.28,24.147,24.147,0,0,0,2.9,1.86,24.666,24.666,0,0,0,3.08,1.36A23.726,23.726,0,0,0,197.53,64.3a22.637,22.637,0,0,0,2.65-6.31,16.269,16.269,0,0,0,.5-2.46c.06-.36.12-.69.16-.99.02-.3.04-.58.05-.83.03-.48.06-.85.08-1.13a1.689,1.689,0,0,1,.05-.39,1.907,1.907,0,0,1,0,.39c0,.28-.02.66-.03,1.14,0,.25-.02.53-.03.84-.03.31-.08.64-.13,1a16.994,16.994,0,0,1-.46,2.48,22.748,22.748,0,0,1-2.6,6.41A24.014,24.014,0,0,1,181.6,75.84a24.119,24.119,0,0,1-12.66-1.01,24.885,24.885,0,0,1-3.15-1.38,26.44,26.44,0,0,1-2.96-1.89,27.132,27.132,0,0,1-2.74-2.32,27.685,27.685,0,0,1-2.37-2.79,23.3,23.3,0,0,1-3.45-6.64,25.861,25.861,0,0,1-1.25-7.61,25.485,25.485,0,0,1,1.25-7.61,23.42,23.42,0,0,1,3.45-6.64,25.468,25.468,0,0,1,2.37-2.79,27.128,27.128,0,0,1,2.74-2.32,23.861,23.861,0,0,1,2.96-1.89,25.72,25.72,0,0,1,3.15-1.38,24.016,24.016,0,0,1,28.83,10.38,22.749,22.749,0,0,1,2.6,6.41,17.494,17.494,0,0,1,.46,2.48c.05.36.11.7.13,1s.02.59.03.84q.015.72.03,1.14v.39Z" fill="#263238"/>
        </g>
        <text id="_.edu" data-name=".edu" transform="translate(161.188 58.535)" fill="#12263f" font-size="16" font-family="Roboto-Bold, Roboto" font-weight="700"><tspan x="0" y="0">.edu</tspan></text>
      </g>
      <g id="Grupo_1104418" data-name="Grupo 1104418" transform="translate(-14.45 -49.98)">
        <g id="Grupo_1104416" data-name="Grupo 1104416">
          <circle id="Elipse_11163" data-name="Elipse 11163" cx="31.7" cy="31.7" r="31.7" transform="translate(95.06 154.53)" fill="#fafafa"/>
          <path id="Trazado_842051" data-name="Trazado 842051" d="M158.47,186.23a4.965,4.965,0,0,1-.05-.51c-.02-.36-.06-.86-.1-1.5-.02-.33-.04-.7-.07-1.11s-.13-.85-.2-1.32a23.65,23.65,0,0,0-.66-3.27,30.1,30.1,0,0,0-3.52-8.4,31.7,31.7,0,0,0-21.29-14.82,30.476,30.476,0,0,0-3.98-.46c-.68-.02-1.36-.09-2.05-.08-.69.04-1.38.07-2.08.11-.35.02-.7.02-1.05.07l-1.05.16c-.7.12-1.41.2-2.12.34a34,34,0,0,0-4.2,1.23,32.921,32.921,0,0,0-4.1,1.8c-.66.36-1.3.78-1.96,1.17a16.056,16.056,0,0,0-1.9,1.31,36.436,36.436,0,0,0-3.57,3.03,34.946,34.946,0,0,0-3.08,3.65,30.613,30.613,0,0,0-4.5,8.66,33.292,33.292,0,0,0-1.62,9.92,33.888,33.888,0,0,0,1.62,9.92,30.284,30.284,0,0,0,4.5,8.67,34.944,34.944,0,0,0,3.08,3.65,33.869,33.869,0,0,0,3.57,3.03,15.275,15.275,0,0,0,1.9,1.31c.66.39,1.29.81,1.96,1.17a32.924,32.924,0,0,0,4.1,1.8,34,34,0,0,0,4.2,1.23c.7.15,1.42.23,2.12.34l1.05.16c.35.05.7.04,1.05.07.7.04,1.39.07,2.08.11.69.01,1.37-.06,2.05-.08a28.846,28.846,0,0,0,3.98-.46,31.7,31.7,0,0,0,21.29-14.82,30.1,30.1,0,0,0,3.52-8.4,22.005,22.005,0,0,0,.66-3.27c.07-.48.16-.92.2-1.32s.05-.77.07-1.11c.04-.64.08-1.14.1-1.5.03-.34.05-.51.05-.51v.51c-.01.36-.03.86-.05,1.51-.01.33-.03.71-.04,1.11-.04.41-.12.85-.18,1.33a23.657,23.657,0,0,1-.62,3.3,29.974,29.974,0,0,1-3.46,8.5,31.885,31.885,0,0,1-21.45,15.09,29.536,29.536,0,0,1-4.04.48c-.69.03-1.38.09-2.08.09-.7-.03-1.4-.07-2.11-.1-.35-.02-.71-.02-1.07-.07l-1.07-.16c-.71-.12-1.43-.2-2.15-.34a33.24,33.24,0,0,1-4.26-1.24,34.659,34.659,0,0,1-4.17-1.82c-.68-.36-1.32-.79-1.99-1.19a16.562,16.562,0,0,1-1.93-1.33,35.005,35.005,0,0,1-3.63-3.08,36.067,36.067,0,0,1-3.14-3.7,30.893,30.893,0,0,1-4.58-8.81,31.645,31.645,0,0,1,0-20.17,30.837,30.837,0,0,1,4.58-8.8,29.436,29.436,0,0,1,6.77-6.78,16.562,16.562,0,0,1,1.93-1.33c.67-.4,1.32-.82,1.99-1.18a35.052,35.052,0,0,1,8.43-3.06c.72-.15,1.44-.23,2.15-.34l1.07-.16c.35-.05.71-.04,1.07-.07.71-.03,1.41-.07,2.11-.1.7,0,1.39.06,2.08.09a29.39,29.39,0,0,1,4.03.48,31.885,31.885,0,0,1,21.45,15.09,29.974,29.974,0,0,1,3.46,8.5,23.39,23.39,0,0,1,.62,3.3c.06.48.14.92.18,1.33.02.41.03.78.04,1.11.02.65.04,1.15.05,1.51v.51Z" fill="#263238"/>
        </g>
        <text id="_.com" data-name=".com" transform="translate(102.638 194.516)" fill="#12263f" font-size="21" font-family="Roboto-Bold, Roboto" font-weight="700"><tspan x="0" y="0">.com</tspan></text>
      </g>
      <g id="Grupo_1104421" data-name="Grupo 1104421" transform="translate(-331 -219)">
        <g id="Grupo_1104419" data-name="Grupo 1104419">
          <circle id="Elipse_11164" data-name="Elipse 11164" cx="31.7" cy="31.7" r="31.7" transform="translate(299.5 169.38)" fill="#fafafa"/>
          <path id="Trazado_842056" data-name="Trazado 842056" d="M362.91,201.08a4.963,4.963,0,0,1-.05-.51c-.02-.36-.06-.86-.1-1.5-.02-.33-.04-.7-.07-1.11s-.13-.85-.2-1.32a23.648,23.648,0,0,0-.66-3.27,30.1,30.1,0,0,0-3.52-8.4,31.7,31.7,0,0,0-21.29-14.82,30.476,30.476,0,0,0-3.98-.46c-.68-.02-1.36-.09-2.05-.08-.69.04-1.38.07-2.08.11-.35.02-.7.02-1.05.07l-1.05.16c-.7.12-1.41.2-2.12.34a34,34,0,0,0-4.2,1.23,32.922,32.922,0,0,0-4.1,1.8c-.66.36-1.3.78-1.96,1.17a16.054,16.054,0,0,0-1.9,1.31,36.438,36.438,0,0,0-3.57,3.03,34.942,34.942,0,0,0-3.08,3.65,30.613,30.613,0,0,0-4.5,8.66,31.182,31.182,0,0,0,0,19.84,30.283,30.283,0,0,0,4.5,8.67,34.945,34.945,0,0,0,3.08,3.65,33.871,33.871,0,0,0,3.57,3.03,15.275,15.275,0,0,0,1.9,1.31c.66.39,1.29.81,1.96,1.17a32.922,32.922,0,0,0,4.1,1.8,34,34,0,0,0,4.2,1.23c.7.15,1.42.23,2.12.34l1.05.16c.35.05.7.04,1.05.07.7.04,1.39.07,2.08.11.69.01,1.37-.06,2.05-.08a28.847,28.847,0,0,0,3.98-.46,31.7,31.7,0,0,0,21.29-14.82,30.1,30.1,0,0,0,3.52-8.4,22,22,0,0,0,.66-3.27c.07-.48.16-.92.2-1.32s.05-.77.07-1.11c.04-.64.08-1.14.1-1.5.03-.34.05-.51.05-.51v.51c-.01.36-.03.86-.05,1.51-.01.33-.03.71-.04,1.11-.04.41-.12.85-.18,1.33a23.657,23.657,0,0,1-.62,3.3,29.974,29.974,0,0,1-3.46,8.5,31.885,31.885,0,0,1-21.45,15.09,29.536,29.536,0,0,1-4.04.48c-.69.03-1.38.09-2.08.09-.7-.03-1.4-.07-2.11-.1-.35-.02-.71-.02-1.07-.07l-1.07-.16c-.71-.12-1.43-.2-2.15-.34a33.241,33.241,0,0,1-4.26-1.24,34.661,34.661,0,0,1-4.17-1.82c-.68-.36-1.32-.79-1.99-1.19a16.563,16.563,0,0,1-1.93-1.33,35.008,35.008,0,0,1-3.63-3.08,36.072,36.072,0,0,1-3.14-3.7,30.893,30.893,0,0,1-4.58-8.81,31.645,31.645,0,0,1,0-20.17,30.838,30.838,0,0,1,4.58-8.8,29.437,29.437,0,0,1,6.77-6.78,16.563,16.563,0,0,1,1.93-1.33c.67-.4,1.32-.82,1.99-1.18a35.053,35.053,0,0,1,8.43-3.06c.72-.15,1.44-.23,2.15-.34l1.07-.16c.35-.05.71-.04,1.07-.07.71-.03,1.41-.07,2.11-.1.7,0,1.39.06,2.08.09a29.39,29.39,0,0,1,4.03.48,31.885,31.885,0,0,1,21.45,15.09,29.974,29.974,0,0,1,3.46,8.5,23.387,23.387,0,0,1,.62,3.3c.06.48.14.92.18,1.33.02.41.03.78.04,1.11.02.65.04,1.15.05,1.51v.51Z" fill="#263238"/>
        </g>
        <text id="_.gov" data-name=".gov" transform="translate(310.188 208.535)" fill="#263238" font-size="22" font-family="Roboto-Bold, Roboto" font-weight="700"><tspan x="0" y="0">.gov</tspan></text>
      </g>
      <g id="Grupo_1104424" data-name="Grupo 1104424" transform="translate(8 50.015)">
        <g id="Grupo_1104422" data-name="Grupo 1104422" transform="translate(267.066 37.124)">
          <circle id="Elipse_11165" data-name="Elipse 11165" cx="23.692" cy="23.692" r="23.692" transform="translate(0 46.151) rotate(-76.9)" fill="#fafafa"/>
          <path id="Trazado_842061" data-name="Trazado 842061" d="M320.672,67.039a3.765,3.765,0,0,1-.038-.387c-.015-.273-.046-.645-.076-1.123-.015-.25-.03-.524-.053-.827s-.1-.63-.152-.987a17.4,17.4,0,0,0-.493-2.444A22.565,22.565,0,0,0,317.234,55a23.623,23.623,0,0,0-15.906-11.064,22.434,22.434,0,0,0-2.975-.341c-.508-.015-1.017-.068-1.533-.061-.516.03-1.032.053-1.556.083-.258.015-.524.015-.789.053l-.782.121c-.524.083-1.055.152-1.578.258a24.952,24.952,0,0,0-3.134.918,24.292,24.292,0,0,0-3.066,1.351c-.493.266-.971.584-1.465.873a12.752,12.752,0,0,0-1.419.979,21.532,21.532,0,0,0-4.963,4.993,22.923,22.923,0,0,0-3.362,6.473,23.244,23.244,0,0,0,0,14.828,22.539,22.539,0,0,0,3.362,6.473,26.587,26.587,0,0,0,2.3,2.724,26.816,26.816,0,0,0,2.664,2.269,12.753,12.753,0,0,0,1.419.979c.493.288.964.607,1.465.873a25.434,25.434,0,0,0,3.066,1.351,24.954,24.954,0,0,0,3.134.918c.524.106,1.062.167,1.578.258l.782.121c.258.038.524.03.789.053.524.03,1.04.053,1.556.083.516.008,1.024-.038,1.533-.061a21.237,21.237,0,0,0,2.975-.341A23.661,23.661,0,0,0,317.234,79.09a22.565,22.565,0,0,0,2.626-6.276,17.4,17.4,0,0,0,.493-2.444c.053-.357.121-.683.152-.987.015-.3.038-.577.053-.827.03-.478.061-.858.076-1.123.023-.25.038-.387.038-.387v.387c-.008.273-.023.645-.038,1.131-.008.25-.023.524-.03.835-.023.3-.083.637-.137.994A16.222,16.222,0,0,1,320,72.86a22.649,22.649,0,0,1-2.588,6.352A23.822,23.822,0,0,1,301.381,90.5a21.782,21.782,0,0,1-3.013.357c-.516.023-1.032.068-1.556.061-.524-.023-1.047-.053-1.578-.076-.266-.015-.531-.015-.8-.053l-.8-.121c-.531-.083-1.07-.152-1.609-.258a25.86,25.86,0,0,1-6.306-2.292c-.508-.273-.987-.592-1.487-.888a11.591,11.591,0,0,1-1.442-.994,26.639,26.639,0,0,1-2.709-2.3,27.545,27.545,0,0,1-2.345-2.77,23.193,23.193,0,0,1-3.423-6.579,23.664,23.664,0,0,1,.008-15.079,23,23,0,0,1,3.423-6.579,22.015,22.015,0,0,1,5.054-5.062,13.159,13.159,0,0,1,1.442-.994c.5-.3.987-.615,1.487-.888a25.084,25.084,0,0,1,3.119-1.366,24.511,24.511,0,0,1,3.187-.926c.531-.106,1.078-.175,1.609-.258l.8-.121c.266-.038.531-.03.8-.053.531-.023,1.055-.053,1.578-.076.524,0,1.04.046,1.556.061a21.783,21.783,0,0,1,3.013.357,23.846,23.846,0,0,1,16.035,11.277,22.65,22.65,0,0,1,2.588,6.352,16.215,16.215,0,0,1,.463,2.466c.046.357.106.691.137.994.015.3.023.584.03.835.015.486.03.858.038,1.131v.387Z" transform="translate(-268.518 -38.584)" fill="#263238"/>
          <text id="_.co" data-name=".co" transform="translate(14.123 35.396)" fill="#12263f" font-size="20" font-family="Roboto-Bold, Roboto" font-weight="700"><tspan x="0" y="0">.co</tspan></text>
        </g>
      </g>
    </g>
  </g>
</svg>
