<svg xmlns="http://www.w3.org/2000/svg" xmlns:xlink="http://www.w3.org/1999/xlink" width="400" height="454" viewBox="0 0 400 454">
  <defs>
    <clipPath id="clip-path">
      <rect id="Rectángulo_382016" data-name="Rectángulo 382016" width="400" height="454" transform="translate(180 829)" fill="#021456" opacity="0.23"/>
    </clipPath>
  </defs>
  <g id="Enmascarar_grupo_1075558" data-name="Enmascarar grupo 1075558" transform="translate(-180 -829)" clip-path="url(#clip-path)">
    <g id="Grupo_1075456" data-name="Grupo 1075456" transform="translate(180 829.422)">
      <rect id="Rectángulo_376271" data-name="Rectángulo 376271" width="210" height="453.893" rx="6" transform="translate(157.289 0)" fill="#fff0b7"/>
      <g id="Grupo_1072676" data-name="Grupo 1072676" transform="translate(28.896 21.352)">
        <path id="Trazado_821583" data-name="Trazado 821583" d="M0,0H192.867V133.175H0Z" transform="translate(96.503 0.019)" fill="#ececec"/>
        <path id="Trazado_821584" data-name="Trazado 821584" d="M0,0H92.681V107.233H0Z" transform="translate(226.985 53.88)" fill="#fee586"/>
        <g id="Grupo_1072640" data-name="Grupo 1072640" transform="translate(96.503)">
          <path id="Trazado_821474" data-name="Trazado 821474" d="M348.32,39.68l109.623.019.19,47.187" transform="translate(-265.266 -39.68)" fill="none" stroke="#31313c" stroke-linecap="round" stroke-linejoin="round" stroke-width="1"/>
          <path id="Trazado_821475" data-name="Trazado 821475" d="M344.7,172.874l-127.42-.71V39.7L273.7,39.68" transform="translate(-217.28 -39.68)" fill="none" stroke="#31313c" stroke-linecap="round" stroke-linejoin="round" stroke-width="1"/>
          <line id="Línea_3786" data-name="Línea 3786" x2="184.615" transform="translate(2.63 11.079)" fill="none" stroke="#31313c" stroke-linecap="round" stroke-linejoin="round" stroke-width="1"/>
          <line id="Línea_3787" data-name="Línea 3787" x2="8.018" transform="translate(157.665 6.281)" fill="none" stroke="#31313c" stroke-linecap="round" stroke-linejoin="round" stroke-width="1"/>
          <rect id="Rectángulo_376276" data-name="Rectángulo 376276" width="8.227" height="6.256" transform="translate(169.258 2.345)" fill="none" stroke="#31313c" stroke-linecap="round" stroke-linejoin="round" stroke-width="1"/>
          <g id="Grupo_1072639" data-name="Grupo 1072639" transform="translate(182.453 2.973)">
            <line id="Línea_3788" data-name="Línea 3788" x2="5.229" y2="5.229" transform="translate(0)" fill="none" stroke="#31313c" stroke-linecap="round" stroke-linejoin="round" stroke-width="1"/>
            <line id="Línea_3789" data-name="Línea 3789" x1="5.229" y2="5.229" transform="translate(0)" fill="none" stroke="#31313c" stroke-linecap="round" stroke-linejoin="round" stroke-width="1"/>
          </g>
        </g>
        <g id="Grupo_1072642" data-name="Grupo 1072642" transform="translate(226.985 53.88)">
          <path id="Trazado_821476" data-name="Trazado 821476" d="M472.872,232.525H423.15V124.69h92.295V232.525H491.835" transform="translate(-423.15 -124.69)" fill="none" stroke="#31313c" stroke-linecap="round" stroke-linejoin="round" stroke-width="1"/>
          <line id="Línea_3790" data-name="Línea 3790" x2="82.705" transform="translate(3.968 11.079)" fill="none" stroke="#31313c" stroke-linecap="round" stroke-linejoin="round" stroke-width="1"/>
          <line id="Línea_3791" data-name="Línea 3791" x2="8.018" transform="translate(57.093 6.275)" fill="none" stroke="#31313c" stroke-linecap="round" stroke-linejoin="round" stroke-width="1"/>
          <rect id="Rectángulo_376277" data-name="Rectángulo 376277" width="8.227" height="6.256" transform="translate(68.685 2.339)" fill="none" stroke="#31313c" stroke-linecap="round" stroke-linejoin="round" stroke-width="1"/>
          <g id="Grupo_1072641" data-name="Grupo 1072641" transform="translate(81.881 2.973)">
            <line id="Línea_3792" data-name="Línea 3792" x2="5.223" y2="5.229" transform="translate(0)" fill="none" stroke="#31313c" stroke-linecap="round" stroke-linejoin="round" stroke-width="1"/>
            <line id="Línea_3793" data-name="Línea 3793" x1="5.223" y2="5.229" transform="translate(0)" fill="none" stroke="#31313c" stroke-linecap="round" stroke-linejoin="round" stroke-width="1"/>
          </g>
        </g>
        <text id="HTML_" data-name="HTML " transform="translate(106.885 34.77)" fill="#3a3e44" font-size="13" font-family="SegoeUI-Bold, Segoe UI" font-weight="700"><tspan x="0" y="0">HTML </tspan></text>
        <path id="Trazado_821585" data-name="Trazado 821585" d="M0,0H76.785V31.766H0Z" transform="translate(235.098 121.354)" fill="none" stroke="#31313c" stroke-linecap="round" stroke-width="1"/>
        <g id="Grupo_1072643" data-name="Grupo 1072643" transform="translate(175.905 48.223)">
          <path id="Trazado_821477" data-name="Trazado 821477" d="M375.69,210.51l6.23,6.23-6.23,6.237" transform="translate(-375.69 -210.51)" fill="none" stroke="#3a3e44" stroke-linecap="round" stroke-linejoin="round" stroke-width="1"/>
          <path id="Trazado_821478" data-name="Trazado 821478" d="M388.11,210.51l6.23,6.23-6.23,6.237" transform="translate(-380.238 -210.51)" fill="none" stroke="#3a3e44" stroke-linecap="round" stroke-linejoin="round" stroke-width="1"/>
          <path id="Trazado_821479" data-name="Trazado 821479" d="M400.53,210.51l6.23,6.23-6.23,6.237" transform="translate(-384.786 -210.51)" fill="none" stroke="#3a3e44" stroke-linecap="round" stroke-linejoin="round" stroke-width="1"/>
        </g>
        <g id="Grupo_1072644" data-name="Grupo 1072644" transform="translate(299.784 32.882)">
          <path id="Trazado_821480" data-name="Trazado 821480" d="M538.01,91.56l6.23,6.237-6.23,6.23" transform="translate(-538.01 -91.56)" fill="none" stroke="#3a3e44" stroke-linecap="round" stroke-linejoin="round" stroke-width="1"/>
          <path id="Trazado_821481" data-name="Trazado 821481" d="M550.43,91.56l6.23,6.237-6.23,6.23" transform="translate(-542.558 -91.56)" fill="none" stroke="#3a3e44" stroke-linecap="round" stroke-linejoin="round" stroke-width="1"/>
          <path id="Trazado_821482" data-name="Trazado 821482" d="M562.85,91.56l6.23,6.237-6.23,6.23" transform="translate(-547.106 -91.56)" fill="none" stroke="#3a3e44" stroke-linecap="round" stroke-linejoin="round" stroke-width="1"/>
        </g>
        <g id="Grupo_1072645" data-name="Grupo 1072645" transform="translate(0 0.044)">
          <path id="Trazado_821483" data-name="Trazado 821483" d="M65.02,39.75l6.237,6.237-6.237,6.23" transform="translate(-65.02 -39.75)" fill="none" stroke="#3a3e44" stroke-linecap="round" stroke-linejoin="round" stroke-width="1"/>
          <path id="Trazado_821484" data-name="Trazado 821484" d="M77.44,39.75l6.237,6.237-6.237,6.23" transform="translate(-69.568 -39.75)" fill="none" stroke="#3a3e44" stroke-linecap="round" stroke-linejoin="round" stroke-width="1"/>
          <path id="Trazado_821485" data-name="Trazado 821485" d="M89.86,39.75,96.1,45.987l-6.237,6.23" transform="translate(-74.116 -39.75)" fill="none" stroke="#3a3e44" stroke-linecap="round" stroke-linejoin="round" stroke-width="1"/>
        </g>
        <g id="Grupo_1072649" data-name="Grupo 1072649" transform="translate(331.087 140.717)">
          <g id="Grupo_1072646" data-name="Grupo 1072646" transform="translate(0 0)">
            <path id="Trazado_821486" data-name="Trazado 821486" d="M590.968,263.481a1.784,1.784,0,1,1-1.787-1.781A1.789,1.789,0,0,1,590.968,263.481Z" transform="translate(-587.4 -261.7)" fill="#fed743"/>
            <path id="Trazado_821487" data-name="Trazado 821487" d="M606.678,263.481a1.784,1.784,0,1,1-1.787-1.781A1.789,1.789,0,0,1,606.678,263.481Z" transform="translate(-593.153 -261.7)" fill="#fed743"/>
            <path id="Trazado_821488" data-name="Trazado 821488" d="M622.378,263.481a1.784,1.784,0,1,1-1.787-1.781A1.789,1.789,0,0,1,622.378,263.481Z" transform="translate(-598.902 -261.7)" fill="#fed743"/>
          </g>
          <g id="Grupo_1072647" data-name="Grupo 1072647" transform="translate(0 8.835)">
            <path id="Trazado_821489" data-name="Trazado 821489" d="M590.968,277.427a1.784,1.784,0,1,1-1.787-1.787A1.784,1.784,0,0,1,590.968,277.427Z" transform="translate(-587.4 -275.64)" fill="#fed743"/>
            <path id="Trazado_821490" data-name="Trazado 821490" d="M606.678,277.427a1.784,1.784,0,1,1-1.787-1.787A1.784,1.784,0,0,1,606.678,277.427Z" transform="translate(-593.153 -275.64)" fill="#fed743"/>
            <path id="Trazado_821491" data-name="Trazado 821491" d="M622.378,277.427a1.784,1.784,0,1,1-1.787-1.787A1.784,1.784,0,0,1,622.378,277.427Z" transform="translate(-598.902 -275.64)" fill="#fed743"/>
          </g>
          <g id="Grupo_1072648" data-name="Grupo 1072648" transform="translate(0 17.67)">
            <path id="Trazado_821492" data-name="Trazado 821492" d="M590.968,291.367a1.784,1.784,0,1,1-1.787-1.787A1.784,1.784,0,0,1,590.968,291.367Z" transform="translate(-587.4 -289.58)" fill="#fed743"/>
            <path id="Trazado_821493" data-name="Trazado 821493" d="M606.678,291.367a1.784,1.784,0,1,1-1.787-1.787A1.784,1.784,0,0,1,606.678,291.367Z" transform="translate(-593.153 -289.58)" fill="#fed743"/>
            <path id="Trazado_821494" data-name="Trazado 821494" d="M622.378,291.367a1.784,1.784,0,1,1-1.787-1.787A1.784,1.784,0,0,1,622.378,291.367Z" transform="translate(-598.902 -289.58)" fill="#fed743"/>
          </g>
        </g>
        <g id="Grupo_1072653" data-name="Grupo 1072653" transform="translate(0 23.774)">
          <g id="Grupo_1072650" data-name="Grupo 1072650" transform="translate(0)">
            <path id="Trazado_821495" data-name="Trazado 821495" d="M28.811,85.261a2.581,2.581,0,1,1-2.581-2.571A2.583,2.583,0,0,1,28.811,85.261Z" transform="translate(-23.65 -82.69)" fill="#3a3e44"/>
            <path id="Trazado_821496" data-name="Trazado 821496" d="M44.522,85.261a2.576,2.576,0,1,1-2.581-2.571A2.583,2.583,0,0,1,44.522,85.261Z" transform="translate(-24.984 -82.69)" fill="#3a3e44"/>
            <path id="Trazado_821497" data-name="Trazado 821497" d="M60.232,85.261a2.576,2.576,0,1,1-2.581-2.571A2.583,2.583,0,0,1,60.232,85.261Z" transform="translate(-26.318 -82.69)" fill="#3a3e44"/>
          </g>
          <g id="Grupo_1072651" data-name="Grupo 1072651" transform="translate(0 12.766)">
            <path id="Trazado_821498" data-name="Trazado 821498" d="M28.811,99.211a2.581,2.581,0,1,1-2.581-2.571A2.583,2.583,0,0,1,28.811,99.211Z" transform="translate(-23.65 -96.64)" fill="#3a3e44"/>
            <path id="Trazado_821499" data-name="Trazado 821499" d="M44.522,99.211a2.576,2.576,0,1,1-2.581-2.571A2.583,2.583,0,0,1,44.522,99.211Z" transform="translate(-24.984 -96.64)" fill="#3a3e44"/>
            <path id="Trazado_821500" data-name="Trazado 821500" d="M60.232,99.211a2.576,2.576,0,1,1-2.581-2.571A2.583,2.583,0,0,1,60.232,99.211Z" transform="translate(-26.318 -96.64)" fill="#3a3e44"/>
          </g>
          <g id="Grupo_1072652" data-name="Grupo 1072652" transform="translate(0 25.522)">
            <path id="Trazado_821501" data-name="Trazado 821501" d="M28.811,113.161a2.581,2.581,0,1,1-2.581-2.581A2.583,2.583,0,0,1,28.811,113.161Z" transform="translate(-23.65 -110.58)" fill="#3a3e44"/>
            <path id="Trazado_821502" data-name="Trazado 821502" d="M44.522,113.161a2.576,2.576,0,1,1-2.581-2.581A2.583,2.583,0,0,1,44.522,113.161Z" transform="translate(-24.984 -110.58)" fill="#3a3e44"/>
            <path id="Trazado_821503" data-name="Trazado 821503" d="M60.232,113.161a2.576,2.576,0,1,1-2.581-2.581A2.583,2.583,0,0,1,60.232,113.161Z" transform="translate(-26.318 -110.58)" fill="#3a3e44"/>
          </g>
        </g>
        <g id="Grupo_1093377" data-name="Grupo 1093377" transform="translate(177.777 100.487)">
          <path id="Trazado_152149" data-name="Trazado 152149" d="M284.056,78.472H239.325a5.6,5.6,0,0,1-5.6-5.6V10.962a5.6,5.6,0,0,1,5.6-5.6h28.369L289.653,28V72.875a5.6,5.6,0,0,1-5.6,5.6" transform="translate(-223.697 -5.172)" fill="#ececec"/>
          <path id="Trazado_152150" data-name="Trazado 152150" d="M280.08,5.364V22.789a5.205,5.205,0,0,0,5.2,5.206l16.755,0Z" transform="translate(-236.084 -5.172)" fill="#f5f5f5"/>
          <path id="Trazado_152151" data-name="Trazado 152151" d="M280.391,31.231a5.787,5.787,0,0,0,4.591,5.615,5.248,5.248,0,0,0,.551.125c2.187.391,16.589,2.952,16.589,2.622V34.91H285.368s-4.183-.143-4.976-3.679" transform="translate(-236.167 -12.085)" fill="#e1e1e1"/>
          <path id="Trazado_152152" data-name="Trazado 152152" d="M283.986,78.4c0-.026.336.007.967-.114a5.613,5.613,0,0,0,2.538-1.183,5.533,5.533,0,0,0,2-3.947c.029-1.806,0-3.9,0-6.239-.016-9.374-.04-22.787-.067-38.991l.045.111L267.492,5.422l.131.056-16.37.006H240.518a14.326,14.326,0,0,0-2.148.078,5.411,5.411,0,0,0-3.511,2.19,5.335,5.335,0,0,0-.99,2.752c-.04.992-.011,2.029-.02,3.037q0,3.04,0,6.039,0,6,0,11.807c0,7.741-.008,15.208-.011,22.321q0,5.334-.008,10.394,0,2.527-.005,4.979,0,1.226,0,2.432a12.82,12.82,0,0,0,.1,2.354,5.457,5.457,0,0,0,2.533,3.6,5.394,5.394,0,0,0,2.064.728,20.715,20.715,0,0,0,2.2.059l8.443.012,25.48.061,6.928.036,1.8.018c.406.007.614.02.614.02s-.208.013-.614.02l-1.8.019-6.928.035-25.48.061-8.443.012a20.859,20.859,0,0,1-2.242-.056,5.693,5.693,0,0,1-2.181-.764,5.764,5.764,0,0,1-2.686-3.8,13.14,13.14,0,0,1-.114-2.416q0-1.207,0-2.432,0-2.452,0-4.979,0-5.055-.008-10.394c0-7.113-.007-14.58-.011-22.321q0-5.806,0-11.807,0-3,0-6.039c.009-1.019-.021-2.017.02-3.064a5.725,5.725,0,0,1,1.06-2.947,5.792,5.792,0,0,1,3.76-2.344,14.462,14.462,0,0,1,2.211-.084h10.735l16.37.006h.078l.053.056L289.7,27.817l.046.047v.064c-.028,16.2-.051,29.617-.067,38.991-.015,2.343,0,4.424-.039,6.248a5.628,5.628,0,0,1-2.084,4.013,5.561,5.561,0,0,1-2.59,1.157,4.178,4.178,0,0,1-.728.065c-.164,0-.247,0-.247,0" transform="translate(-223.627 -5.102)" fill="#1a2e35"/>
          <path id="Trazado_152153" data-name="Trazado 152153" d="M301.97,28a1.855,1.855,0,0,1-.43.038l-1.234.036-4.539.06-6.731.04-3.98,0a5.4,5.4,0,0,1-4.987-3.765,6.242,6.242,0,0,1-.246-2.136c0-1.377.007-2.707.011-3.975.015-2.521.029-4.8.041-6.732.025-1.877.045-3.415.061-4.538.014-.5.026-.91.035-1.234a1.823,1.823,0,0,1,.039-.43,1.858,1.858,0,0,1,.038.43c.009.324.021.732.036,1.234.015,1.123.036,2.661.061,4.538.012,1.932.026,4.21.041,6.732,0,1.268.007,2.6.011,3.975a5.887,5.887,0,0,0,.234,2.022,5.043,5.043,0,0,0,4.636,3.5l3.969.019,6.731.043,4.539.061,1.234.037a1.856,1.856,0,0,1,.43.038" transform="translate(-236.014 -5.172)" fill="#1a2e35"/>
          <path id="Trazado_152154" data-name="Trazado 152154" d="M270.32,26.515c0,.106-5.284.191-11.8.191s-11.8-.085-11.8-.191,5.283-.191,11.8-.191,11.8.085,11.8.191" transform="translate(-227.169 -10.774)" fill="#1a2e35"/>
          <path id="Trazado_152155" data-name="Trazado 152155" d="M281.517,38.377c0,.106-7.79.191-17.4.191s-17.4-.085-17.4-.191,7.789-.191,17.4-.191,17.4.085,17.4.191" transform="translate(-227.169 -13.944)" fill="#1a2e35"/>
          <path id="Trazado_152156" data-name="Trazado 152156" d="M281.517,50.24c0,.106-7.79.191-17.4.191s-17.4-.085-17.4-.191,7.789-.191,17.4-.191,17.4.085,17.4.191" transform="translate(-227.169 -17.114)" fill="#1a2e35"/>
          <path id="Trazado_152157" data-name="Trazado 152157" d="M281.517,62.1c0,.106-7.79.191-17.4.191s-17.4-.085-17.4-.191,7.789-.191,17.4-.191,17.4.085,17.4.191" transform="translate(-227.169 -20.283)" fill="#1a2e35"/>
          <path id="Trazado_152158" data-name="Trazado 152158" d="M281.517,73.965c0,.106-7.79.191-17.4.191s-17.4-.085-17.4-.191,7.789-.191,17.4-.191,17.4.085,17.4.191" transform="translate(-227.169 -23.454)" fill="#1a2e35"/>
          <path id="Trazado_152159" data-name="Trazado 152159" d="M281.517,85.827c0,.106-7.79.191-17.4.191s-17.4-.085-17.4-.191,7.789-.191,17.4-.191,17.4.085,17.4.191" transform="translate(-227.169 -26.624)" fill="#1a2e35"/>
          <path id="Trazado_152160" data-name="Trazado 152160" d="M254.939,82.438H223.132a3.093,3.093,0,0,1-3.093-3.093V68.461a3.093,3.093,0,0,1,3.093-3.094h31.807a3.093,3.093,0,0,1,3.093,3.094V79.345a3.093,3.093,0,0,1-3.093,3.093" transform="translate(-220.039 -21.207)" fill="#31313c"/>
          <text id="CSS" transform="translate(9.496 56.012)" fill="#fff" font-size="10" font-family="Roboto-Bold, Roboto" font-weight="700"><tspan x="0" y="0">CSS</tspan></text>
        </g>
      </g>
      <g id="Grupo_1072637" data-name="Grupo 1072637" transform="translate(28.896 95.33)">
        <g id="Grupo_158072" data-name="Grupo 158072" transform="translate(0 0)">
          <path id="Trazado_152014" data-name="Trazado 152014" d="M127.176.409V95.924a.4.4,0,0,0,.808,0V.409a.4.4,0,0,0-.808,0" transform="translate(-24.426 -0.004)" fill="#2b244a"/>
          <path id="Trazado_152015" data-name="Trazado 152015" d="M98.176.409V95.924a.4.4,0,0,0,.808,0V.409a.4.4,0,0,0-.808,0" transform="translate(-18.857 -0.004)" fill="#2b244a"/>
          <path id="Trazado_152016" data-name="Trazado 152016" d="M69.676.409V95.924a.4.4,0,0,0,.808,0V.409a.4.4,0,0,0-.808,0" transform="translate(-13.383 -0.004)" fill="#2b244a"/>
          <path id="Trazado_152017" data-name="Trazado 152017" d="M184.787.409V95.924a.4.4,0,0,0,.808,0V.409a.4.4,0,0,0-.808,0" transform="translate(-35.492 -0.004)" fill="#2b244a"/>
          <path id="Trazado_152018" data-name="Trazado 152018" d="M156.287.409V95.924a.4.4,0,0,0,.808,0V.409a.4.4,0,0,0-.808,0" transform="translate(-30.018 -0.004)" fill="#2b244a"/>
          <path id="Trazado_152019" data-name="Trazado 152019" d="M174.7,95.518H49.491c-1.584,0-3.17.131-4.612-.693A5.442,5.442,0,0,1,42.2,89.971q0-.953,0-1.905V10.689c0-1.51-.016-3.022,0-4.532A5.363,5.363,0,0,1,47.5.81c.233,0,.468,0,.7,0H174.357a5.777,5.777,0,0,1,3.275.881A5.468,5.468,0,0,1,180,6.392V88.847c0,.441,0,.883,0,1.324a5.363,5.363,0,0,1-5.3,5.347.4.4,0,0,0,0,.808,6.183,6.183,0,0,0,6.1-6.108c.006-.371,0-.742,0-1.112V11.933c0-1.856,0-3.712,0-5.567A6.227,6.227,0,0,0,174.489,0c-1.328,0-2.656,0-3.984,0H48.125c-.334,0-.673-.01-1.007.012a6.177,6.177,0,0,0-5.722,6.1c-.019,1.391,0,2.785,0,4.177V88.114c0,.63,0,1.26,0,1.891a6.265,6.265,0,0,0,2.253,4.951c1.679,1.36,3.542,1.37,5.531,1.37H174.7a.4.4,0,0,0,0-.808" transform="translate(-7.949 0)" fill="#2b244a"/>
          <path id="Trazado_152020" data-name="Trazado 152020" d="M180.411,59.113H41.806a.4.4,0,0,0,0,.808h138.6a.4.4,0,0,0,0-.808" transform="translate(-7.955 -11.354)" fill="#2b244a"/>
          <path id="Trazado_152021" data-name="Trazado 152021" d="M180.411,29.558H41.806a.4.4,0,0,0,0,.808h138.6a.4.4,0,0,0,0-.808" transform="translate(-7.955 -5.677)" fill="#2b244a"/>
          <path id="Trazado_152022" data-name="Trazado 152022" d="M180.411,88.669H41.806a.4.4,0,0,0,0,.808h138.6a.4.4,0,0,0,0-.808" transform="translate(-7.955 -17.031)" fill="#2b244a"/>
          <g id="Grupo_1072743" data-name="Grupo 1072743" transform="translate(48.214 4.176)">
            <path id="Trazado_152023" data-name="Trazado 152023" d="M99.265,34.434H60.484a.808.808,0,0,1-.808-.808V5.977a.808.808,0,0,1,.808-.808H99.265a.808.808,0,0,1,.808.808V33.626a.808.808,0,0,1-.808.808" transform="translate(-59.676 -5.169)" fill="#fed743"/>
            <path id="Trazado_152024" data-name="Trazado 152024" d="M71.493,15.06a11.175,11.175,0,0,1,2.354-1.272c.313-.12.883-.38,1.129-.042.191.263.122.709.193,1.019a2.634,2.634,0,0,0,3.123,1.685C80.04,16.143,81.276,14.627,83,14.3a1.469,1.469,0,0,1,.656-.043c.15.067.225.3.322.427a1.267,1.267,0,0,0,.675.452,3.159,3.159,0,0,0,1.92-.282,12.6,12.6,0,0,1,6.267-.77c.509.069.729-.709.215-.78a13.31,13.31,0,0,0-5.571.381,9.568,9.568,0,0,1-2.305.7c-.409.01-.518-.166-.727-.478a1,1,0,0,0-.814-.465c-1.849-.129-3.223,1.424-4.836,2.03a2.442,2.442,0,0,1-2.316-.139c-.693-.5-.43-1.221-.752-1.893-.369-.77-1.241-.736-1.939-.491a11.354,11.354,0,0,0-2.711,1.415c-.423.294-.02,1,.408.7" transform="translate(-61.833 -6.633)" fill="#fed743"/>
            <path id="Trazado_152025" data-name="Trazado 152025" d="M71.347,30.886a13.493,13.493,0,0,1,4.415-2.309,3.273,3.273,0,0,1,.577-.162c.274-.027.264-.011.245.233-.024.317-.233.62-.268.945a1.447,1.447,0,0,0,.852,1.428,3.477,3.477,0,0,0,2.365-.058l2.811-.673c.195-.046.818-.282,1-.084.064.069.022.342.05.444a.738.738,0,0,0,.258.386,1.316,1.316,0,0,0,.869.175c.5-.008,1-.022,1.5-.032l6.494-.14a.4.4,0,0,0,0-.808l-5.995.129-1.5.032a2.942,2.942,0,0,1-.7.015c-.235-.063-.121-.07-.182-.339-.139-.623-.771-.771-1.33-.7A25.469,25.469,0,0,0,80.093,30c-.751.18-2.229.817-2.839.088-.431-.515.31-1.276.161-1.885-.191-.777-1.035-.641-1.621-.476a14.5,14.5,0,0,0-5.018,2.589c-.408.322.167.89.571.571" transform="translate(-61.781 -9.477)" fill="#fed743"/>
            <path id="Trazado_152026" data-name="Trazado 152026" d="M71.067,21.27c-.2.6-.759,1.495-.119,2.034a2.1,2.1,0,0,0,1.777.127c2.167-.5,4.316-1.088,6.472-1.633l-.5-.5a1.369,1.369,0,0,0,1.188,1.706,3.894,3.894,0,0,0,1.643-.244,8.932,8.932,0,0,1,1.811-.308,33.669,33.669,0,0,1,3.509.035l3.878.14c.52.019.52-.789,0-.808-2.025-.073-4.054-.189-6.081-.207a13.039,13.039,0,0,0-2.7.214c-.486.1-.953.29-1.441.369-.419.067-1.247-.069-1.028-.683a.407.407,0,0,0-.5-.5l-5.019,1.267a10.983,10.983,0,0,1-2.035.459c-.24.012-.406.046-.467-.176-.073-.262.3-.835.385-1.083.166-.494-.614-.706-.779-.215" transform="translate(-61.783 -8.208)" fill="#fed743"/>
          </g>
          <path id="Trazado_152027" data-name="Trazado 152027" d="M144.465,63.21H123.818a.808.808,0,0,1-.808-.808V25.866a.808.808,0,0,1,.808-.808h20.647a.808.808,0,0,1,.808.808V62.4a.808.808,0,0,1-.808.808" transform="translate(-23.626 -4.813)" fill="#ffeae0"/>
          <path id="Trazado_152028" data-name="Trazado 152028" d="M140.448,51.822h-9.964a.808.808,0,0,1-.808-.808V33.644a.808.808,0,0,1,.808-.808h9.964a.808.808,0,0,1,.808.808V51.014a.808.808,0,0,1-.808.808" transform="translate(-24.907 -6.307)" fill="#fed743"/>
          <path id="Trazado_152029" data-name="Trazado 152029" d="M135.555,62.466A4.448,4.448,0,0,1,136.649,62a4.268,4.268,0,0,1,.587-.117c.1-.012.442-.086.521,0,.127.142-.284.745-.328.9a.688.688,0,0,0,.371.887,1.778,1.778,0,0,0,1.036-.1,11.545,11.545,0,0,0,1.091-.383,7.566,7.566,0,0,1,2.257-.652c.516-.032.52-.84,0-.808a7.782,7.782,0,0,0-2.364.638c-.376.148-.755.3-1.143.41q-.166.049-.334.087l-.112.024c-.1-.009-.123.012-.058.062.041.128.1-.112.122-.156.047-.1.1-.192.145-.292a.958.958,0,0,0-.866-1.458,4.907,4.907,0,0,0-2.426.717.4.4,0,0,0,.408.7" transform="translate(-25.92 -11.726)" fill="#2b244a"/>
          <path id="Trazado_152030" data-name="Trazado 152030" d="M196.619,70.439h-22.8a.808.808,0,0,1-.808-.808V39.2a.808.808,0,0,1,.808-.808h22.8a.809.809,0,0,1,.808.808V69.631a.809.809,0,0,1-.808.808" transform="translate(-33.23 -7.374)" fill="#ffeae0"/>
          <path id="Trazado_152031" data-name="Trazado 152031" d="M190.331,64.836h4.848a.808.808,0,0,1,.808.808v4.848a.808.808,0,0,1-.808.808h-4.848a.808.808,0,0,1-.808-.808V65.644a.808.808,0,0,1,.808-.808" transform="translate(-36.401 -12.453)" fill="#fed743"/>
          <path id="Trazado_152032" data-name="Trazado 152032" d="M179.6,46.984a16.888,16.888,0,0,1,2.379-.882,7.736,7.736,0,0,1,2.141-.424c.817.01,1,.587,1.167,1.271a2.535,2.535,0,0,0,.726,1.419c.9.765,2.23.4,3.249.126l4.81-1.267a.4.4,0,0,0-.215-.779l-4.906,1.292a4.549,4.549,0,0,1-1.85.25c-.723-.117-.9-.7-1.053-1.324a2.485,2.485,0,0,0-.7-1.4,2.156,2.156,0,0,0-1.7-.364,15.541,15.541,0,0,0-4.457,1.382c-.472.216-.062.912.408.7" transform="translate(-34.376 -8.619)" fill="#2b244a"/>
          <path id="Trazado_152033" data-name="Trazado 152033" d="M179.679,62.135a2.022,2.022,0,0,1,2.586-.205,3.293,3.293,0,0,0,1.355.78,1.2,1.2,0,0,0,1.294-.57c.226-.465-.471-.876-.7-.407-.186.382-.707.122-.951-.047a4.9,4.9,0,0,0-1.352-.824,2.853,2.853,0,0,0-2.805.7.4.4,0,0,0,.571.571" transform="translate(-34.378 -11.667)" fill="#2b244a"/>
          <path id="Trazado_152034" data-name="Trazado 152034" d="M179.6,55.661a5.563,5.563,0,0,1,2.354-.979c.435-.011.327.243.244.564a1.188,1.188,0,0,0-.034.713c.254.688,1.062.416,1.571.241A13.1,13.1,0,0,0,186,55.152c.086-.05.341-.232.443-.182-.057-.027-.128.2-.154.309a.779.779,0,0,0,.163.7c.385.427,1.046.287,1.52.132.852-.278,1.7-.571,2.547-.856a3.874,3.874,0,0,1,2.692-.271c.483.191.693-.59.214-.779a3.694,3.694,0,0,0-2.432.047c-.906.267-1.8.6-2.69.9-.16.053-1.046.475-1.205.3-.036-.04.126-.363.136-.419a.825.825,0,0,0-.006-.333c-.165-.646-.926-.583-1.4-.364a23.837,23.837,0,0,1-2.394,1.121c-.046.015-.56.162-.509.226-.04-.052.1-.383.116-.448a1.221,1.221,0,0,0-.032-.822c-.641-1.353-3.058.1-3.818.558a.4.4,0,0,0,.408.7" transform="translate(-34.38 -10.342)" fill="#2b244a"/>
          <path id="Trazado_152035" data-name="Trazado 152035" d="M99.82,114.6H63.373a.808.808,0,0,1-.808-.808V71.866a.808.808,0,0,1,.808-.808H99.82a.808.808,0,0,1,.808.808v41.923a.808.808,0,0,1-.808.808" transform="translate(-12.017 -13.648)" fill="#ffeae0"/>
          <path id="Trazado_152036" data-name="Trazado 152036" d="M71.274,84.793a51.474,51.474,0,0,1,5.369-2.763q.717-.318,1.445-.61c.23-.092.461-.185.692-.272.179-.067.44-.216.543-.04s-.149.541-.228.714q-.164.359-.328.717l-.7,1.525a.416.416,0,0,0,.063.49,1.833,1.833,0,0,0,1.75.262c.789-.208,1.563-.507,2.337-.763,1.662-.549,3.317-1.13,4.991-1.639a7.153,7.153,0,0,1,2.392-.4,7.981,7.981,0,0,1,2.4.766c1.563.576,3.119.024,4.578-.589.472-.2.264-.98-.215-.779a10.767,10.767,0,0,1-2.261.756,3.846,3.846,0,0,1-2.274-.327,6.491,6.491,0,0,0-1.958-.615,6.4,6.4,0,0,0-2.164.213c-1.55.385-3.064.969-4.58,1.468l-2.241.739c-.534.175-1.661.773-2.181.339l.063.49.9-1.974A3.67,3.67,0,0,0,80.2,81.04c-.035-1.331-1.659-.667-2.325-.4A51.876,51.876,0,0,0,70.866,84.1a.4.4,0,0,0,.408.7" transform="translate(-13.574 -15.411)" fill="#2b244a"/>
          <path id="Trazado_152037" data-name="Trazado 152037" d="M71.183,94.742q2.272-.942,4.621-1.675c1.2-.373,2.849-1.059,4.091-.484.615.284.852.919,1.251,1.421a2.119,2.119,0,0,0,1.543.807,5.3,5.3,0,0,0,1.992-.355l2.471-.8,5.609-1.81c.494-.159.282-.94-.214-.78l-4.945,1.6-2.471.8a7.57,7.57,0,0,1-2.211.549c-.835,0-1.159-.532-1.578-1.156a2.689,2.689,0,0,0-1.325-1.09,6.2,6.2,0,0,0-3.795.33,53.226,53.226,0,0,0-5.256,1.867c-.473.2-.266.978.216.779" transform="translate(-13.579 -17.488)" fill="#2b244a"/>
          <path id="Trazado_152038" data-name="Trazado 152038" d="M95.746,103.067l5.526-.91c.511-.085.295-.864-.215-.78l-5.526.911c-.511.084-.295.863.215.779" transform="translate(-18.293 -19.471)" fill="#2b244a"/>
          <path id="Trazado_152039" data-name="Trazado 152039" d="M85.115,112.181h-10a.808.808,0,0,1-.808-.808v-10a.807.807,0,0,1,.808-.808h10a.808.808,0,0,1,.808.808v10a.808.808,0,0,1-.808.808" transform="translate(-14.272 -19.316)" fill="#d9a389"/>
          <path id="Trazado_152040" data-name="Trazado 152040" d="M276.812,216.789,234.756,398.826h3.377l45.739-179.62Z" transform="translate(-45.089 -41.639)" fill="#d9a389"/>
          <path id="Trazado_152041" data-name="Trazado 152041" d="M336.318,216.789l42.056,182.037H375l-45.739-179.62Z" transform="translate(-63.24 -41.639)" fill="#d9a389"/>
          <rect id="Rectángulo_35058" data-name="Rectángulo 35058" width="107.256" height="4.579" transform="translate(198.539 324.213)" fill="#d9a389"/>
          <path id="Trazado_152042" data-name="Trazado 152042" d="M174.975,290.226l22.936,124.08h-2.693l-29.36-124.08Z" transform="translate(-31.856 -55.744)" fill="#31313c"/>
          <path id="Trazado_152043" data-name="Trazado 152043" d="M214.752,290.226l22.936,124.08H235l-29.36-124.08Z" transform="translate(-39.496 -55.744)" fill="#31313c"/>
          <path id="Trazado_152044" data-name="Trazado 152044" d="M112.873,290.226,89.937,414.306H92.63l29.36-124.08Z" transform="translate(-17.274 -55.744)" fill="#31313c"/>
          <path id="Trazado_152045" data-name="Trazado 152045" d="M117.776,303.945l32.606,19.75,9.292,5.628a.4.4,0,0,0,.408-.7l-32.606-19.75-9.292-5.628a.4.4,0,0,0-.408.7" transform="translate(-22.584 -58.233)" fill="#31313c"/>
          <path id="Trazado_152046" data-name="Trazado 152046" d="M158.625,302.1,140.68,312.967l-18.443,11.172-9.921,6.009a.4.4,0,0,0,.407.7l17.945-10.869L149.113,308.8l9.921-6.009a.4.4,0,0,0-.408-.7" transform="translate(-21.535 -58.012)" fill="#31313c"/>
          <path id="Trazado_152047" data-name="Trazado 152047" d="M103.087,192.785S88.378,249.223,99.011,267.9s62.3,12.927,72.671,6.463S149.2,207.57,149.2,207.57Z" transform="translate(-18.276 -37.028)" fill="#31313c"/>
          <path id="Trazado_152048" data-name="Trazado 152048" d="M109.095,233.626c.388,7.057,1.339,14.54,4.959,20.755,2.649,4.547,7.254,7.743,12.121,9.535a31.865,31.865,0,0,0,10.931,1.871.4.4,0,0,0,0-.808,28.783,28.783,0,0,1-17.005-5.2,19.86,19.86,0,0,1-4.945-5.149,30,30,0,0,1-3.662-9.109,64.32,64.32,0,0,1-1.592-11.9c-.028-.517-.836-.52-.808,0" transform="translate(-20.954 -44.798)" fill="#8c75b5"/>
          <path id="Trazado_152049" data-name="Trazado 152049" d="M221.521,159.931l19.821,17.406-5.7,27.731s-23.68,2.785-34.844-22.688,20.723-22.449,20.723-22.449" transform="translate(-38.112 -30.697)" fill="#e0785e"/>
          <path id="Trazado_152050" data-name="Trazado 152050" d="M286.7,358.655c-.793-2.8-1.92-5.519-2.938-8.246L271.33,317.137,258.9,283.864l-6.235-16.69a150.643,150.643,0,0,0-6.064-14.625c-4.21-8.44-10.425-16.464-19.352-20.2a26.849,26.849,0,0,0-3.321-1.14.372.372,0,0,0-.451.456,4.041,4.041,0,0,0-.66.155c-5.6,1.816-10.97,4.151-13.5,9.841s-1.929,12.307-5.492,17.591c-2.07,3.069,1.239,5.984,4.114,5.409q5.407,15.018,10.817,30.036,5.97,16.574,11.938,33.149l5.97,16.575c1.811,5.03,3.524,10.11,5.5,15.081,3.049,7.684,7.477,15.935,15.886,18.623.166.053.335.1.5.146.571,1.8,1.714,4.6,3.4,5.121,2.526.785,12.887,1.267,18.993-2.286,2.759-1.605,2.6-4.478,1.607-7.145a16.865,16.865,0,0,0,4.629-7.539,14.764,14.764,0,0,0-.486-7.763" transform="translate(-39.024 -44.405)" fill="#f7cd00"/>
          <path id="Trazado_152051" data-name="Trazado 152051" d="M214.7,228.985c-3.99-4.54-17.522-3.228-25.424-3.228-.237-.4,1.448-17.442.484-21.817H138.611c-1.3-.835-4.793-1.84-5.576.027-3.78,9-7.059,25.536-8.971,34.2-1.766,8,.134,15.725,6.518,20.52,6.253,4.7,14.246,5.916,21.825,6.691,1.1.113,2.265.252,3.448.394-.137.18-.278.346-.411.536-2.076,18.187-6.256,39.9-11.709,57.53-3.351,10.833-7.22,23-4.667,34.41a21.175,21.175,0,0,0,7.675,12.246c-.425,2.78-.075,6.2,3.856,7.064,6.9,1.521,18.308-.57,20.025-2.659a5.031,5.031,0,0,0,.777-3.219,15.27,15.27,0,0,0,2.536-.766c4.587-1.887,6.551-6.7,7.732-11.154,3.54-13.339,6.624-25.778,9.416-39.266,2.8-13.538,5.584-28.1,9.833-41.236,3.744-11.57,8.582-24.165,5.636-36.471q-.291-1.218-.669-2.412,2.6-1.367,5.191-2.728c-.983-2.116,5.2-6.868,3.628-8.659" transform="translate(-23.708 -38.973)" fill="#f7cd00"/>
          <path id="Trazado_152052" data-name="Trazado 152052" d="M215.974,287.328a91.222,91.222,0,0,0,3.355-13.791c.4-2.395.724-4.8.95-7.222a50.081,50.081,0,0,0,.3-5.987,29.011,29.011,0,0,0-2.1-10.231,21.5,21.5,0,0,0-2.927-5.1,13.085,13.085,0,0,0-3.026-2.942,50.426,50.426,0,0,0-11.749-5.361c-.5-.163-.707.616-.215.779a53.928,53.928,0,0,1,10.863,4.848,11.252,11.252,0,0,1,2.712,2.248,19.316,19.316,0,0,1,3.15,4.81,27.555,27.555,0,0,1,2.453,10.192,40.829,40.829,0,0,1-.147,5.278c-.183,2.392-.465,4.777-.832,7.147a92.323,92.323,0,0,1-3.568,15.114c-.166.494.615.706.779.215" transform="translate(-38.468 -45.458)" fill="#2b244a"/>
          <path id="Trazado_152053" data-name="Trazado 152053" d="M203.713,151.94l-5.26-11.7c-1.6-3.551-3.155-7.127-4.911-10.593-6.579-12.983-15.877-17.551-30.087-16.531a167.433,167.433,0,0,0-27.31,4.45c-5.523,1.525-10.454,5.126-13.833,8.124-10.941,9.708-25.6,26.075-25.6,26.075,3.329,4.037,7.491,9.374,11.25,13.083,1.891,1.865,4.148,3.291,5.7,5.487a39.887,39.887,0,0,1,2.095,3.426,5.005,5.005,0,0,0,2.724,2.522,16.013,16.013,0,0,0,2.568.532q1.283.207,2.576.351c.532.058,1.065.091,1.6.132-.442,3.553-.779,5.992-1.441,9.931,3.585.765,17.073,2.618,25.731,3.216,16.867,1.167,33.658-2.5,33.688-2.875.463-5.931,1.009-13.146,1.472-19.077.549-.644,15.347-13.177,19.039-16.555" transform="translate(-18.575 -21.701)" fill="#ffeae0"/>
          <path id="Trazado_152054" data-name="Trazado 152054" d="M148.569,153.332l-8.653,11.154c-.315.406.253.982.571.571L149.14,153.9c.315-.406-.253-.982-.571-.571" transform="translate(-26.856 -29.424)" fill="#2b244a"/>
          <path id="Trazado_152055" data-name="Trazado 152055" d="M178.315,115.5c.258,4.274.364,8.558.419,12.839.065,5.153.042,10.308-.036,15.46q-.125,8.248-.441,16.491c-.2,5.219-.456,10.438-.8,15.65-.285,4.4-.623,8.789-1.1,13.168q-.078.707-.16,1.411c-.06.515.748.511.808,0,.5-4.253.846-8.523,1.14-12.794.356-5.142.622-10.289.835-15.438q.339-8.242.488-16.49c.094-5.222.133-10.447.087-15.67-.038-4.4-.128-8.81-.357-13.21q-.038-.709-.08-1.417c-.032-.517-.839-.52-.808,0" transform="translate(-33.842 -22.11)" fill="#2b244a"/>
          <path id="Trazado_152056" data-name="Trazado 152056" d="M101.866,155.682,117.2,171.49c.363.374.933-.2.571-.572l-15.33-15.807c-.363-.374-.933.2-.571.571" transform="translate(-19.543 -29.769)" fill="#2b244a"/>
          <path id="Trazado_152057" data-name="Trazado 152057" d="M165.131,115.414q.69,3.508,1.293,7.033c.087.511.866.295.779-.215q-.6-3.524-1.293-7.033c-.1-.51-.879-.294-.779.215" transform="translate(-31.715 -22.071)" fill="#2b244a"/>
          <path id="Trazado_152058" data-name="Trazado 152058" d="M167.229,123.753q4.958-1.275,9.87-2.719a.4.4,0,0,0-.215-.779q-4.912,1.443-9.87,2.719a.4.4,0,0,0,.215.779" transform="translate(-32.023 -23.094)" fill="#2b244a"/>
          <path id="Trazado_152059" data-name="Trazado 152059" d="M190.978,113.253q-.1,3.965-.111,7.932a.4.4,0,0,0,.808,0q.006-3.967.111-7.932a.4.4,0,0,0-.808,0" transform="translate(-36.66 -21.678)" fill="#2b244a"/>
          <path id="Trazado_152060" data-name="Trazado 152060" d="M189,122.248q-5.028-.961-10.022-2.093c-.507-.115-.722.663-.215.778q4.993,1.132,10.022,2.093c.508.1.726-.681.215-.779" transform="translate(-34.279 -23.076)" fill="#2b244a"/>
          <path id="Trazado_152061" data-name="Trazado 152061" d="M167.454,180.076c-.406-3.107-7.489-11.642-10.7-14.861a17.115,17.115,0,0,0-10.136-5.1c-5.017-.368-10.682,1.469-15.265,2.75-5.839,1.633-11.6,3.518-17.339,5.478-2.736.935-7,2.239-9.8,3.265-1.345-.864-7.6-7.612-9.551-9.682-.732.957-5.025,6.181-5.721,7.166-3.264,4.621-6.719,9.79-7.687,15.466a16.516,16.516,0,0,0,17.96,19.22c1.473-.151,18.05-7.675,25.14-11.734a209.389,209.389,0,0,1,20.93-10.471c.074,1.463.4,2.927,1.317,3.607,2.173,1.608,4.91.521,7.127-.957a4.094,4.094,0,0,0,2.129-3.3c3.477.086,3.2-2.433,3.2-2.433,5.285,4.562,8.794,4.692,8.388,1.585" transform="translate(-15.562 -30.745)" fill="#e0785e"/>
          <path id="Trazado_152062" data-name="Trazado 152062" d="M299.249,156.548c.317-5.377-3.264-10.876-8.912-11.241-3.768-.243-7.3,2.04-10.5,3.729-3.534,1.866-7.015,3.83-10.526,5.74-5.117,2.784-31.105,15.23-33.777,17.677-4.523,4.14-9.706,9.62-10.515,15.982-.763,6,3.137,11.12,8.728,12.958,6.69,2.2,13.421-.719,19.3-3.82,13.038-6.875,24.369-16.3,35.457-25.91,4.646-4.025,10.35-8.453,10.743-15.115" transform="translate(-43.201 -27.906)" fill="#e0785e"/>
          <path id="Trazado_152063" data-name="Trazado 152063" d="M167.352,260.3a71.19,71.19,0,0,0-4.8,16.535c-.082.508.7.727.779.215a70.47,70.47,0,0,1,4.72-16.342c.2-.473-.494-.886-.7-.408" transform="translate(-31.22 -49.956)" fill="#2b244a"/>
          <path id="Trazado_152064" data-name="Trazado 152064" d="M272.3,412.779c6.56,1.141,13.668.932,19.756-2.013a19.616,19.616,0,0,0,3.766-2.376c.4-.326-.17-.894-.572-.571-4.566,3.675-10.755,4.885-16.488,4.79A40.49,40.49,0,0,1,272.51,412c-.509-.089-.727.69-.215.779" transform="translate(-52.243 -78.311)" fill="#2b244a"/>
          <path id="Trazado_152065" data-name="Trazado 152065" d="M168.354,177.329a18.9,18.9,0,0,1,3.856,6.8.4.4,0,0,0,.779-.214,19.857,19.857,0,0,0-4.064-7.154c-.333-.4-.9.174-.571.57" transform="translate(-32.316 -33.924)" fill="#2b244a"/>
          <path id="Trazado_152066" data-name="Trazado 152066" d="M172.182,174.128a13.141,13.141,0,0,1,3.856,6.8c.1.509.881.293.779-.215a13.9,13.9,0,0,0-4.064-7.154c-.371-.365-.942.205-.571.571" transform="translate(-33.048 -33.313)" fill="#2b244a"/>
          <path id="Trazado_152067" data-name="Trazado 152067" d="M160.671,186.934a51.341,51.341,0,0,1,4.59-2.9.4.4,0,0,0-.408-.7,51.524,51.524,0,0,0-4.59,2.9.415.415,0,0,0-.145.553.407.407,0,0,0,.553.145" transform="translate(-30.743 -35.202)" fill="#2b244a"/>
          <path id="Trazado_152068" data-name="Trazado 152068" d="M297.689,141.795s4.087-8.7,9.216-18c4.644-8.415,5.572-9.3,7.225-8.819,2.412.7-.18,9.673-.969,11.866a61.223,61.223,0,0,1,9.93-6.261c4.341-1.922,9.847-4,10.91-2.829,1.829,2.012-.5,3.568-.5,3.568s3.162.182,3.748,1.634a3.366,3.366,0,0,1-1.041,3.573c-.344.2-8.84,4.365-8.84,4.365s9.212-2.129,9.82-2.038a2,2,0,0,1,1.948,1.7c.215,2.047-9.742,8.053-12.552,10.106s-11.5,13.387-18.254,19.846c0,0-8.922-13.385-10.636-18.708" transform="translate(-57.177 -22.064)" fill="#e0785e"/>
          <path id="Trazado_152069" data-name="Trazado 152069" d="M338.813,122.7c-3.9,3.282-7.676,6.714-11.578,10-.4.335.175.9.571.571,3.9-3.282,7.675-6.713,11.578-10,.4-.335-.175-.9-.571-.571" transform="translate(-62.826 -23.549)" fill="#2b244a"/>
          <path id="Trazado_152070" data-name="Trazado 152070" d="M322.637,130.75a23.21,23.21,0,0,1,6.1,9.93c.151.5.931.284.779-.215a24.05,24.05,0,0,0-6.308-10.287c-.375-.361-.947.21-.571.571" transform="translate(-61.945 -24.981)" fill="#2b244a"/>
          <path id="Trazado_152071" data-name="Trazado 152071" d="M315.923,131.051a23.356,23.356,0,0,1-.995,13.6c-.187.486.593.7.779.215a24.114,24.114,0,0,0,.995-14.03c-.116-.507-.894-.292-.779.215" transform="translate(-60.482 -25.074)" fill="#2b244a"/>
          <path id="Trazado_152072" data-name="Trazado 152072" d="M328.994,138.027a54.645,54.645,0,0,1,5.206-3.094c.461-.24.053-.938-.408-.7a54.471,54.471,0,0,0-5.206,3.094c-.429.288-.025.988.408.7" transform="translate(-63.076 -25.773)" fill="#2b244a"/>
          <path id="Trazado_152073" data-name="Trazado 152073" d="M91.519,180.362q7.111-3,14.306-5.8c.479-.187.271-.968-.215-.779q-7.293,2.836-14.5,5.882c-.478.2-.065.9.408.7" transform="translate(-17.459 -33.373)" fill="#2b244a"/>
          <path id="Trazado_152074" data-name="Trazado 152074" d="M182.921,112.991c-1.136,2.323-3.929,7.465-5.672,6.9a57.673,57.673,0,0,1-8.474-5.871c3.407-.435,6.424-.757,8.628-.919a50.286,50.286,0,0,1,5.517-.111" transform="translate(-32.417 -21.696)" fill="#e0785e"/>
          <path id="Trazado_152075" data-name="Trazado 152075" d="M183.218,105.534l-.748,5.664-13.694.381,1.629-11.332Z" transform="translate(-32.417 -19.255)" fill="#e0785e"/>
          <path id="Trazado_152076" data-name="Trazado 152076" d="M152.425,410.882a60.221,60.221,0,0,0,18.682,1.707A51.4,51.4,0,0,0,176.6,412c.512-.084.295-.862-.215-.779a60.227,60.227,0,0,1-19.22-.162,46.163,46.163,0,0,1-4.527-.952.4.4,0,0,0-.215.779" transform="translate(-29.221 -78.766)" fill="#2b244a"/>
          <path id="Trazado_152077" data-name="Trazado 152077" d="M178.852,80.121a7.461,7.461,0,1,0,7.461-7.46,7.461,7.461,0,0,0-7.461,7.46" transform="translate(-34.352 -13.956)" fill="#2b244a"/>
          <path id="Trazado_152078" data-name="Trazado 152078" d="M171.38,97.988a29.755,29.755,0,0,0,13.769,5.545c5.969.807,7.785-3.845,7.468-5.869a130.132,130.132,0,0,0-3.965-15.494c-2.013-6.116-4.364-8.9-12.1-9.444S162.155,74.969,162.445,83s6.691,13.317,8.935,14.986" transform="translate(-31.199 -13.956)" fill="#e0785e"/>
          <path id="Trazado_152079" data-name="Trazado 152079" d="M185,69.76a5.758,5.758,0,0,0-2.944.8,11.206,11.206,0,0,0-7.32-2.5c-4.079,0-7.553,1.877-8.928,4.514l-.015.011a.485.485,0,0,0-.08.083,7.3,7.3,0,0,0-6.7,4.183,8.169,8.169,0,0,0,1.256,8.623,8.573,8.573,0,0,0,1.277,1.2,28.97,28.97,0,0,0,3.444,6.827,14.042,14.042,0,0,0,2.711,2.825c.739.569,2.794,2.089,3.921,1.515a6.242,6.242,0,0,0,3.345-4.151,12.616,12.616,0,0,0,.4-8.088c3.671.623,7.622-2.216,9.059-5.814.19.019.382.029.578.029a5.042,5.042,0,1,0,0-10.051" transform="translate(-30.405 -13.072)" fill="#2b244a"/>
          <path id="Trazado_152080" data-name="Trazado 152080" d="M162.26,90.176a3.493,3.493,0,0,0,2.307,2.315,4.111,4.111,0,0,0,3.676-.825c.473-.348,1.06-.864,1.689-.641.316.111.594.327.906.454a3.422,3.422,0,0,0,.843.222,3.778,3.778,0,0,0,3.168-1.05c.371-.365-.2-.936-.571-.571a2.964,2.964,0,0,1-2.907.734,14.533,14.533,0,0,0-1.444-.623,2.012,2.012,0,0,0-1.33.263c-.451.242-.828.6-1.259.868a3.218,3.218,0,0,1-1.765.513,2.678,2.678,0,0,1-2.533-1.873c-.151-.5-.932-.284-.779.215" transform="translate(-31.161 -17.225)" fill="#8c75b5"/>
          <path id="Trazado_152081" data-name="Trazado 152081" d="M167.244,76.276a3.524,3.524,0,0,0,5.28,2.677,3.9,3.9,0,0,0,.662-.516c.232-.219.478-.551.81-.6s.792.221,1.149.272a3.121,3.121,0,0,0,.868,0,6.028,6.028,0,0,0,3.515-2.383c.34-.391-.229-.965-.571-.571a5.456,5.456,0,0,1-2.995,2.15,2.291,2.291,0,0,1-.923-.03,5.13,5.13,0,0,0-.871-.245,1.657,1.657,0,0,0-1.234.534,3.924,3.924,0,0,1-1.254.913,2.766,2.766,0,0,1-1.608.107,2.733,2.733,0,0,1-2.019-2.3c-.062-.51-.871-.515-.808,0" transform="translate(-32.122 -14.408)" fill="#8c75b5"/>
          <path id="Trazado_152082" data-name="Trazado 152082" d="M185.52,80.72a3.649,3.649,0,0,0,3.882,1.575c.5-.122.291-.9-.215-.779a2.825,2.825,0,0,1-2.969-1.2c-.277-.438-.977-.033-.7.408" transform="translate(-35.62 -15.39)" fill="#8c75b5"/>
          <path id="Trazado_152083" data-name="Trazado 152083" d="M170.247,101.871l-.526,3.66s7.5.717,7.227-6.511-6.7,2.851-6.7,2.851" transform="translate(-32.598 -18.518)" fill="#2b244a"/>
          <path id="Trazado_152084" data-name="Trazado 152084" d="M195.746,89.065s2.339,1.849,3.533,2.969c.681.639.571,1.2.223,1.59a23.8,23.8,0,0,1-1.983,1.81l-2.985-1.95Z" transform="translate(-37.364 -17.107)" fill="#e0785e"/>
          <path id="Trazado_152085" data-name="Trazado 152085" d="M183.47,94.021a4.585,4.585,0,1,1-4.585-4.585,4.585,4.585,0,0,1,4.585,4.585" transform="translate(-33.477 -17.178)" fill="#e0785e"/>
          <path id="Trazado_152086" data-name="Trazado 152086" d="M192.875,89.924a.988.988,0,0,0-.909-.266.932.932,0,0,0-.616.842,3.231,3.231,0,0,0,.134,1.148,2.063,2.063,0,0,0,.679,1.154.866.866,0,0,0,1.356-.675,2.864,2.864,0,0,0-.643-2.2" transform="translate(-36.75 -17.216)" fill="#2b244a"/>
          <path id="Trazado_152087" data-name="Trazado 152087" d="M193.391,87.1c-.109,1.4-1.414.722-2.753,1.5-1.231.712-2.154.81-2.336.065-.219-.9.8-2.285,2.685-2.77,1.768-.455,2.484.191,2.4,1.209" transform="translate(-36.161 -16.468)" fill="#2b244a"/>
          <path id="Trazado_152088" data-name="Trazado 152088" d="M197.806,98.327c-1.735.569-3.553,1.156-3.787,1.25a6.856,6.856,0,0,0,4.281,1c-.141-.662-.308-1.418-.494-2.248" transform="translate(-37.265 -18.886)" fill="#fff"/>
          <path id="Trazado_152089" data-name="Trazado 152089" d="M179.856,107.625a34.157,34.157,0,0,0,4.528,2.212.406.406,0,0,0,.5-.282.414.414,0,0,0-.282-.5,32.759,32.759,0,0,1-4.335-2.131.4.4,0,0,0-.408.7" transform="translate(-34.507 -20.527)" fill="#2b244a"/>
          <path id="Trazado_152090" data-name="Trazado 152090" d="M178.388,92.215a3.187,3.187,0,0,0-1.33,2.269,3.133,3.133,0,0,0,.914,2.489.4.4,0,0,0,.571-.571,2.313,2.313,0,0,1,.253-3.489.415.415,0,0,0,.145-.553.407.407,0,0,0-.553-.145" transform="translate(-34.004 -17.701)" fill="#2b244a"/>
          <path id="Trazado_152091" data-name="Trazado 152091" d="M275.8,418a64.713,64.713,0,0,0,.379,19.579h49.151s.28-9.454-5.606-12.45c-3.072-1.564-14.489-5.033-15.922-6.648a19.883,19.883,0,0,1-4.009-4.172c-3.172-4.825-7.181-3.107-8.751,1.108A30.014,30.014,0,0,1,275.8,418" transform="translate(-52.867 -79.016)" fill="#f5e3d9"/>
          <path id="Trazado_152092" data-name="Trazado 152092" d="M276.1,438.723h48.569a.391.391,0,0,0,0-.782H276.1a.391.391,0,0,0,0,.782" transform="translate(-52.957 -84.115)" fill="#2e1616"/>
          <path id="Trazado_152093" data-name="Trazado 152093" d="M316.558,436.07a15.815,15.815,0,0,1,1.752-5.5,9.251,9.251,0,0,1,4.512-3.754c.466-.176.264-.932-.208-.755a10.181,10.181,0,0,0-4.819,3.863,15.615,15.615,0,0,0-1.991,5.934c-.091.492.663.7.755.208" transform="translate(-60.654 -81.829)" fill="#2e1616"/>
          <path id="Trazado_152094" data-name="Trazado 152094" d="M294.526,416.888a25.937,25.937,0,0,0,5.913,6.044,37.917,37.917,0,0,0,8.057,4.194c1.643.67,3.3,1.3,4.949,1.952.468.186.671-.57.209-.755-5.431-2.161-11.095-4.064-15.378-8.221a25.847,25.847,0,0,1-3.074-3.61c-.289-.407-.968-.017-.675.4" transform="translate(-56.555 -79.963)" fill="#2e1616"/>
          <path id="Trazado_152095" data-name="Trazado 152095" d="M311.586,427.92c.577-.75,1.24-1.494,1.892-2.2s1.338-1.432,2.067-2.086c.375-.336-.179-.888-.553-.553-.745.667-1.436,1.4-2.112,2.135s-1.352,1.509-1.969,2.311a.394.394,0,0,0,.141.536.4.4,0,0,0,.535-.141" transform="translate(-59.705 -81.241)" fill="#2e1616"/>
          <path id="Trazado_152096" data-name="Trazado 152096" d="M306.2,425.166a25.055,25.055,0,0,1,1.917-2.178,17.611,17.611,0,0,1,2.093-1.742.4.4,0,0,0,.14-.535.394.394,0,0,0-.535-.141,18.944,18.944,0,0,0-2.21,1.823,24.547,24.547,0,0,0-1.959,2.219.4.4,0,0,0,0,.553.4.4,0,0,0,.553,0" transform="translate(-58.684 -80.768)" fill="#2e1616"/>
          <path id="Trazado_152097" data-name="Trazado 152097" d="M300.486,421.465a22.785,22.785,0,0,1,2.589-2.006,18.274,18.274,0,0,1,2.837-1.654.4.4,0,0,0,.141-.536.4.4,0,0,0-.535-.14,18.5,18.5,0,0,0-2.908,1.7,23.991,23.991,0,0,0-2.678,2.081c-.372.341.183.893.553.553" transform="translate(-57.584 -80.109)" fill="#2e1616"/>
          <path id="Trazado_152098" data-name="Trazado 152098" d="M154.1,416.588a67.891,67.891,0,0,0,.023,20.99h49.15s.28-9.454-5.605-12.449c-3.072-1.564-14.489-5.033-15.922-6.649a19.891,19.891,0,0,1-4.009-4.171c-3.172-4.825-7.181-3.107-8.752,1.108a40.526,40.526,0,0,1-14.885,1.172" transform="translate(-29.446 -79.016)" fill="#f5e3d9"/>
          <path id="Trazado_152099" data-name="Trazado 152099" d="M154.021,438.723h48.568a.391.391,0,0,0,0-.782H154.021a.391.391,0,0,0,0,.782" transform="translate(-29.51 -84.115)" fill="#2e1616"/>
          <path id="Trazado_152100" data-name="Trazado 152100" d="M194.483,436.07a15.816,15.816,0,0,1,1.752-5.5,9.251,9.251,0,0,1,4.511-3.754c.466-.176.264-.932-.208-.755a10.181,10.181,0,0,0-4.819,3.863,15.614,15.614,0,0,0-1.991,5.934c-.091.492.662.7.755.208" transform="translate(-37.208 -81.829)" fill="#2e1616"/>
          <path id="Trazado_152101" data-name="Trazado 152101" d="M172.451,416.888a25.939,25.939,0,0,0,5.913,6.044,37.918,37.918,0,0,0,8.057,4.194c1.643.67,3.3,1.3,4.949,1.952.468.186.671-.57.208-.755-5.431-2.161-11.095-4.064-15.378-8.221a25.9,25.9,0,0,1-3.074-3.61c-.289-.407-.968-.017-.675.4" transform="translate(-33.109 -79.963)" fill="#2e1616"/>
          <path id="Trazado_152102" data-name="Trazado 152102" d="M189.511,427.92c.577-.75,1.24-1.494,1.892-2.2s1.338-1.432,2.067-2.086c.375-.336-.179-.888-.553-.553-.745.667-1.437,1.4-2.112,2.135s-1.352,1.509-1.969,2.311a.394.394,0,0,0,.141.536.4.4,0,0,0,.535-.141" transform="translate(-36.258 -81.241)" fill="#2e1616"/>
          <path id="Trazado_152103" data-name="Trazado 152103" d="M184.123,425.166a24.931,24.931,0,0,1,1.918-2.178,17.542,17.542,0,0,1,2.093-1.742.4.4,0,0,0,.14-.535.394.394,0,0,0-.535-.141,18.949,18.949,0,0,0-2.21,1.823,24.549,24.549,0,0,0-1.958,2.219.4.4,0,0,0,0,.553.394.394,0,0,0,.553,0" transform="translate(-35.237 -80.768)" fill="#2e1616"/>
          <path id="Trazado_152104" data-name="Trazado 152104" d="M178.411,421.465A22.787,22.787,0,0,1,181,419.459a18.275,18.275,0,0,1,2.837-1.654.4.4,0,0,0,.141-.536.4.4,0,0,0-.535-.14,18.469,18.469,0,0,0-2.908,1.7,24,24,0,0,0-2.678,2.081c-.372.341.183.893.553.553" transform="translate(-34.137 -80.109)" fill="#2e1616"/>
          <path id="Trazado_152105" data-name="Trazado 152105" d="M72.453,218.491,30.4,400.529h3.377l45.739-179.62Z" transform="translate(-5.838 -41.966)" fill="#d9a389"/>
          <path id="Trazado_152106" data-name="Trazado 152106" d="M131.959,218.491l42.056,182.037h-3.377L124.9,220.909Z" transform="translate(-23.989 -41.966)" fill="#d9a389"/>
          <path id="Trazado_152107" data-name="Trazado 152107" d="M129.707,239.115h6.5a.4.4,0,0,0,0-.808h-6.5a.4.4,0,0,0,0,.808" transform="translate(-24.838 -45.772)" fill="#2b244a"/>
          <path id="Trazado_152108" data-name="Trazado 152108" d="M78.287,239.115h6.5a.4.4,0,0,0,0-.808h-6.5a.4.4,0,0,0,0,.808" transform="translate(-14.962 -45.772)" fill="#2b244a"/>
          <path id="Trazado_152109" data-name="Trazado 152109" d="M304.92,215.787H41.61a2.008,2.008,0,0,1-2.009-2.009v-.562a2.008,2.008,0,0,1,2.009-2.009H304.92a2.009,2.009,0,0,1,2.009,2.009v.562a2.009,2.009,0,0,1-2.009,2.009" transform="translate(-7.606 -40.567)" fill="#d9a389"/>
          <rect id="Rectángulo_35059" data-name="Rectángulo 35059" width="214.105" height="17.241" transform="translate(62.933 175.221)" fill="#d9a389"/>
          <path id="Trazado_152110" data-name="Trazado 152110" d="M138.158,234.533V216.944a.4.4,0,0,0-.808,0v17.589a.4.4,0,0,0,.808,0" transform="translate(-26.381 -41.594)" fill="#2b244a"/>
          <path id="Trazado_152111" data-name="Trazado 152111" d="M334.494,239.115H341a.4.4,0,0,0,0-.808h-6.5a.4.4,0,0,0,0,.808" transform="translate(-64.171 -45.772)" fill="#2b244a"/>
          <path id="Trazado_152112" data-name="Trazado 152112" d="M283.073,239.115h6.5a.4.4,0,0,0,0-.808h-6.5a.4.4,0,0,0,0,.808" transform="translate(-54.294 -45.772)" fill="#2b244a"/>
          <path id="Trazado_152113" data-name="Trazado 152113" d="M78.326,217.184H291.592a.4.4,0,0,0,0-.808H78.326a.4.4,0,0,0,0,.808" transform="translate(-14.969 -41.559)" fill="#2b244a"/>
          <rect id="Rectángulo_35060" data-name="Rectángulo 35060" width="107.256" height="4.579" transform="translate(33.664 325.588)" fill="#d9a389"/>
          <path id="Trazado_152114" data-name="Trazado 152114" d="M164.194,211.844a3.436,3.436,0,0,1-.059,2.986.414.414,0,0,0,.145.553.408.408,0,0,0,.553-.145,4.3,4.3,0,0,0,.058-3.8.407.407,0,0,0-.553-.145.413.413,0,0,0-.145.553" transform="translate(-31.516 -40.573)" fill="#2b244a"/>
          <path id="Trazado_152115" data-name="Trazado 152115" d="M262.241,142.35h-64.15a1.843,1.843,0,0,0-1.709,1.153l-21.992,54.48h68.124l21.435-53.1a1.842,1.842,0,0,0-1.709-2.532" transform="translate(-33.495 -27.341)" fill="#31313c"/>
          <path id="Trazado_152116" data-name="Trazado 152116" d="M184.688,207.491H142.241a1.971,1.971,0,0,0-1.971,1.971v1.033h44.418Z" transform="translate(-26.941 -39.853)" fill="#31313c"/>
          <path id="Trazado_152117" data-name="Trazado 152117" d="M179.817,196.25l8.333-20.679q4.393-10.9,8.788-21.808l2.24-5.561q.537-1.333,1.075-2.667a4.319,4.319,0,0,1,2.128-2.462c.469-.225.059-.923-.408-.7a4.79,4.79,0,0,0-2.034,1.894,18.1,18.1,0,0,0-.982,2.337l-2.025,5.026-4.3,10.671q-4.5,11.169-9,22.338-2.3,5.7-4.592,11.394c-.195.482.587.692.779.215" transform="translate(-34.382 -27.338)" fill="#12263f"/>
          <path id="Trazado_152118" data-name="Trazado 152118" d="M176.5,207.4a2.79,2.79,0,0,1,.473.109,1.8,1.8,0,0,1,.389.169,2.7,2.7,0,0,1,.746.574c.057.06.111.121.162.185l.039.047c-.018-.023-.019-.023,0,0s.048.067.071.1a3.184,3.184,0,0,1,.241.416,2.238,2.238,0,0,1,.137.382c.019.074.036.149.049.226,0,.019.006.038.009.057q-.007-.057,0-.012c0,.044.007.088.01.133a.413.413,0,0,0,.4.4.408.408,0,0,0,.4-.4,3.528,3.528,0,0,0-2.916-3.163.418.418,0,0,0-.5.282.406.406,0,0,0,.282.5" transform="translate(-33.843 -39.684)" fill="#12263f"/>
          <path id="Trazado_152119" data-name="Trazado 152119" d="M232.123,181.343a4.279,4.279,0,0,1-3.629-1.693,4.831,4.831,0,0,1-.385-4.428,9.112,9.112,0,0,1,7.915-5.854,4.281,4.281,0,0,1,3.63,1.693,4.831,4.831,0,0,1,.385,4.428,9.112,9.112,0,0,1-7.916,5.854m3.9-11.167a8.249,8.249,0,0,0-7.153,5.313,3.99,3.99,0,0,0,.28,3.694,3.5,3.5,0,0,0,2.971,1.352,8.247,8.247,0,0,0,7.153-5.313,3.988,3.988,0,0,0-.28-3.694,3.5,3.5,0,0,0-2.971-1.352" transform="translate(-43.745 -32.531)" fill="#12263f"/>
          <path id="Trazado_152120" data-name="Trazado 152120" d="M290.384,190.984h0a1.358,1.358,0,0,1-1.358-1.358V166.634a1.358,1.358,0,0,1,2.716,0v22.991a1.358,1.358,0,0,1-1.358,1.358" transform="translate(-55.513 -31.745)" fill="#ffeae0"/>
          <path id="Trazado_152121" data-name="Trazado 152121" d="M296.359,185.1h0a1.358,1.358,0,0,1-1.171-1.522l3.41-26.1a1.358,1.358,0,0,1,2.693.352l-3.41,26.1a1.358,1.358,0,0,1-1.522,1.171" transform="translate(-56.694 -30.02)" fill="#ffeae0"/>
          <path id="Trazado_152122" data-name="Trazado 152122" d="M299.224,189.011h0a1.358,1.358,0,0,1-1.033-1.619l4.964-22.449a1.358,1.358,0,0,1,2.652.586l-4.964,22.45a1.359,1.359,0,0,1-1.619,1.033" transform="translate(-57.267 -31.476)" fill="#ffeae0"/>
          <path id="Trazado_152123" data-name="Trazado 152123" d="M286.493,183.645l1.339,22.142h11.955l1.339-22.142a.626.626,0,0,0-.625-.664H287.118a.626.626,0,0,0-.625.664" transform="translate(-55.026 -35.145)" fill="#785549"/>
          <path id="Trazado_152124" data-name="Trazado 152124" d="M64.942,359.106q-1.026,10.205-2.157,20.4c-.675,6.127-1.361,12.251-2.017,18.38q-.648,6.07-1.26,12.143c-.052.517.756.513.808,0q1.026-10.205,2.157-20.4c.675-6.127,1.361-12.251,2.017-18.38q.65-6.07,1.26-12.143c.052-.517-.756-.513-.808,0" transform="translate(-11.429 -68.899)" fill="#2b244a"/>
          <path id="Trazado_152125" data-name="Trazado 152125" d="M51.179,439.566c1.893-.024,3.181-1.6,4.007-3.135a28.435,28.435,0,0,0,2.531-8.134c.391-2.04.681-4.1.924-6.161.061-.515-.748-.511-.808,0a64.626,64.626,0,0,1-1.731,9.591c-.566,2.061-1.278,4.415-2.8,6a3.013,3.013,0,0,1-2.126,1.036.4.4,0,0,0,0,.808" transform="translate(-9.755 -81.006)" fill="#2b244a"/>
          <path id="Trazado_152126" data-name="Trazado 152126" d="M44.4,442.8H15.872a.4.4,0,0,0,0,.808H44.4a.4.4,0,0,0,0-.808" transform="translate(-2.974 -85.049)" fill="#2b244a"/>
          <path id="Trazado_152127" data-name="Trazado 152127" d="M53.92,358.7H.41a.4.4,0,0,0,0,.808H53.92a.4.4,0,0,0,0-.808" transform="translate(-0.004 -68.895)" fill="#2b244a"/>
          <path id="Trazado_152128" data-name="Trazado 152128" d="M0,359.106q1.026,10.205,2.157,20.4c.675,6.127,1.361,12.251,2.017,18.38q.648,6.07,1.26,12.143c.052.512.86.518.808,0q-1.026-10.205-2.157-20.4c-.675-6.127-1.361-12.251-2.017-18.38q-.65-6.07-1.26-12.143c-.052-.512-.86-.518-.808,0" transform="translate(0 -68.899)" fill="#2b244a"/>
          <path id="Trazado_152129" data-name="Trazado 152129" d="M14.19,438.758c-1.7-.022-2.778-1.67-3.462-3.027A29.288,29.288,0,0,1,8.415,428c-.369-1.942-.649-3.9-.88-5.865-.06-.51-.869-.516-.808,0A63.709,63.709,0,0,0,8.6,432.357c.615,2.133,1.422,4.59,3.1,6.144a3.718,3.718,0,0,0,2.486,1.065.4.4,0,0,0,0-.808" transform="translate(-1.292 -81.006)" fill="#2b244a"/>
          <path id="Trazado_152130" data-name="Trazado 152130" d="M33.118,359.105v67.949a.4.4,0,0,0,.808,0V359.105a.4.4,0,0,0-.808,0" transform="translate(-6.361 -68.898)" fill="#2b244a"/>
          <path id="Trazado_152131" data-name="Trazado 152131" d="M16.15,359.106q.854,13.023,1.708,26.046.915,13.944,1.829,27.889.458,6.976.915,13.951c.034.516.843.52.808,0q-.853-13.023-1.708-26.046Q18.788,387,17.873,373.057q-.458-6.976-.915-13.951c-.034-.516-.842-.52-.808,0" transform="translate(-3.102 -68.899)" fill="#2b244a"/>
          <path id="Trazado_152132" data-name="Trazado 152132" d="M49.028,359.106q-.854,13.023-1.708,26.046-.915,13.944-1.829,27.889-.457,6.976-.915,13.951c-.035.519.774.517.808,0q.853-13.023,1.708-26.046.914-13.944,1.829-27.889.457-6.976.915-13.951c.034-.52-.774-.517-.808,0" transform="translate(-8.562 -68.899)" fill="#2b244a"/>
          <path id="Trazado_152133" data-name="Trazado 152133" d="M8.737,432.227h40.07a.4.4,0,0,0,0-.808H8.737a.4.4,0,0,0,0,.808" transform="translate(-1.603 -82.863)" fill="#2b244a"/>
          <path id="Trazado_152134" data-name="Trazado 152134" d="M349.726,288.694H300.407a6.17,6.17,0,0,1-6.171-6.171V214.259a6.171,6.171,0,0,1,6.171-6.171h31.278L355.9,233.043v49.481a6.171,6.171,0,0,1-6.171,6.171" transform="translate(-56.513 -39.968)" fill="#ececec"/>
          <path id="Trazado_152135" data-name="Trazado 152135" d="M340.588,208.088V227.3a5.739,5.739,0,0,0,5.739,5.74l18.473,0Z" transform="translate(-65.416 -39.968)" fill="#f5f5f5"/>
          <path id="Trazado_152136" data-name="Trazado 152136" d="M340.9,233.954s-.243,4.659,5.062,6.191a5.724,5.724,0,0,0,.608.137c2.412.431,18.291,3.255,18.291,2.891v-5.163H346.386s-4.612-.158-5.487-4.057" transform="translate(-65.476 -44.936)" fill="#e1e1e1"/>
          <path id="Trazado_152137" data-name="Trazado 152137" d="M349.676,288.644c0-.029.37.008,1.066-.126a6.175,6.175,0,0,0,2.8-1.3,6.1,6.1,0,0,0,2.209-4.352c.031-1.991,0-4.3,0-6.879-.018-10.336-.044-25.124-.074-42.991l.049.123L331.49,208.177l.145.061-18.049.006-9.441,0h-2.4a15.791,15.791,0,0,0-2.369.086,5.966,5.966,0,0,0-3.872,2.415,5.882,5.882,0,0,0-1.092,3.035c-.044,1.094-.012,2.237-.022,3.347q0,3.353,0,6.659,0,6.612,0,13.018c0,8.535-.009,16.768-.012,24.61q0,5.881-.009,11.46,0,2.787-.006,5.491,0,1.351,0,2.682a14.146,14.146,0,0,0,.114,2.6,6.017,6.017,0,0,0,2.793,3.968,5.947,5.947,0,0,0,2.276.8,22.843,22.843,0,0,0,2.427.065l9.309.014,28.093.067,7.638.039,1.986.021c.448.007.677.022.677.022s-.229.015-.677.022l-1.986.021-7.638.039-28.093.067-9.309.014a22.981,22.981,0,0,1-2.471-.061,6.276,6.276,0,0,1-2.405-.843,6.357,6.357,0,0,1-2.962-4.188,14.485,14.485,0,0,1-.126-2.664q0-1.331,0-2.682,0-2.7,0-5.491,0-5.572-.009-11.46c0-7.843-.008-16.075-.012-24.61q0-6.4,0-13.018,0-3.306,0-6.659c.01-1.123-.024-2.223.023-3.377a6.3,6.3,0,0,1,1.168-3.25,6.386,6.386,0,0,1,4.146-2.585,15.945,15.945,0,0,1,2.438-.092h2.4l9.441,0,18.049.006h.086l.059.061,24.194,24.973.05.052v.07c-.031,17.867-.056,32.655-.074,42.991-.016,2.583,0,4.878-.043,6.888a6.205,6.205,0,0,1-2.3,4.425,6.13,6.13,0,0,1-2.856,1.276,4.682,4.682,0,0,1-.8.072c-.181,0-.272,0-.272,0" transform="translate(-56.463 -39.917)" fill="#1a2e35"/>
          <path id="Trazado_152138" data-name="Trazado 152138" d="M364.75,233.042a2.049,2.049,0,0,1-.474.042l-1.361.04-5,.066-7.422.044-4.388,0a5.955,5.955,0,0,1-5.5-4.15,6.888,6.888,0,0,1-.271-2.356c0-1.518.008-2.984.012-4.383.017-2.78.032-5.292.045-7.422.027-2.07.05-3.765.067-5,.015-.553.029-1,.039-1.361a2.015,2.015,0,0,1,.043-.474,2.043,2.043,0,0,1,.042.474c.01.357.023.807.04,1.361.017,1.239.04,2.934.067,5,.013,2.13.028,4.642.045,7.422,0,1.4.008,2.865.012,4.383a6.488,6.488,0,0,0,.258,2.23,5.561,5.561,0,0,0,5.112,3.864l4.376.021,7.422.047,5,.067,1.361.04a2.009,2.009,0,0,1,.474.043" transform="translate(-65.366 -39.967)" fill="#1a2e35"/>
          <path id="Trazado_152139" data-name="Trazado 152139" d="M333.249,229.257c0,.116-5.825.21-13.01.21s-13.011-.094-13.011-.21,5.824-.21,13.011-.21,13.01.094,13.01.21" transform="translate(-59.009 -43.993)" fill="#1a2e35"/>
          <path id="Trazado_152140" data-name="Trazado 152140" d="M345.594,241.12c0,.116-8.589.21-19.183.21s-19.184-.094-19.184-.21,8.587-.21,19.184-.21,19.183.094,19.183.21" transform="translate(-59.009 -46.272)" fill="#1a2e35"/>
          <path id="Trazado_152141" data-name="Trazado 152141" d="M345.594,252.982c0,.116-8.589.21-19.183.21s-19.184-.094-19.184-.21,8.587-.21,19.184-.21,19.183.094,19.183.21" transform="translate(-59.009 -48.55)" fill="#1a2e35"/>
          <path id="Trazado_152142" data-name="Trazado 152142" d="M345.594,264.845c0,.116-8.589.21-19.183.21s-19.184-.094-19.184-.21,8.587-.21,19.184-.21,19.183.094,19.183.21" transform="translate(-59.009 -50.829)" fill="#1a2e35"/>
          <path id="Trazado_152143" data-name="Trazado 152143" d="M345.594,276.707c0,.116-8.589.21-19.183.211s-19.184-.095-19.184-.211,8.587-.21,19.184-.21,19.183.094,19.183.21" transform="translate(-59.009 -53.107)" fill="#1a2e35"/>
          <path id="Trazado_152144" data-name="Trazado 152144" d="M345.594,288.57c0,.116-8.589.21-19.183.21s-19.184-.094-19.184-.21,8.587-.21,19.184-.21,19.183.094,19.183.21" transform="translate(-59.009 -55.385)" fill="#1a2e35"/>
          <path id="Trazado_152164" data-name="Trazado 152164" d="M84.859,173.082H35.54a6.17,6.17,0,0,1-6.171-6.171V98.647a6.171,6.171,0,0,1,6.17-6.171H66.818L91.03,117.431v49.481a6.171,6.171,0,0,1-6.171,6.171" transform="translate(-5.641 -17.762)" fill="#ececec"/>
          <path id="Trazado_152165" data-name="Trazado 152165" d="M75.721,92.476v19.213a5.739,5.739,0,0,0,5.739,5.74l18.473,0Z" transform="translate(-14.544 -17.762)" fill="#f5f5f5"/>
          <path id="Trazado_152166" data-name="Trazado 152166" d="M76.033,118.343s-.243,4.659,5.062,6.191a5.748,5.748,0,0,0,.608.137c2.412.431,18.291,3.255,18.291,2.891V122.4H81.519s-4.612-.158-5.487-4.057" transform="translate(-14.603 -22.73)" fill="#e1e1e1"/>
          <path id="Trazado_152167" data-name="Trazado 152167" d="M84.809,173.032c0-.029.37.008,1.066-.126a6.176,6.176,0,0,0,2.8-1.3,6.1,6.1,0,0,0,2.209-4.352c.032-1.991,0-4.3,0-6.88-.018-10.336-.044-25.123-.074-42.991l.049.124c-7.33-7.545-15.506-15.959-24.231-24.938l.145.061-18.049.006-9.441,0h-2.4a15.792,15.792,0,0,0-2.369.087,5.962,5.962,0,0,0-3.872,2.414,5.882,5.882,0,0,0-1.092,3.035c-.044,1.094-.012,2.236-.022,3.347q0,3.353,0,6.658,0,6.613,0,13.018c0,8.535-.009,16.768-.012,24.61q0,5.883-.009,11.46,0,2.786-.006,5.49,0,1.351,0,2.681a14.152,14.152,0,0,0,.114,2.6A6.017,6.017,0,0,0,32.4,172a5.948,5.948,0,0,0,2.276.8,22.851,22.851,0,0,0,2.427.065l9.309.014,28.093.067,7.638.039,1.986.021c.448.007.677.022.677.022s-.229.015-.677.022l-1.986.021-7.638.039-28.093.067-9.309.014a23,23,0,0,1-2.471-.061,6.277,6.277,0,0,1-2.405-.843,6.357,6.357,0,0,1-2.962-4.188,14.479,14.479,0,0,1-.126-2.664q0-1.329,0-2.681,0-2.7,0-5.49,0-5.574-.009-11.46c0-7.843-.008-16.075-.012-24.61q0-6.4,0-13.018,0-3.306,0-6.658c.01-1.124-.023-2.224.022-3.378a6.312,6.312,0,0,1,1.169-3.25,6.382,6.382,0,0,1,4.146-2.584,15.948,15.948,0,0,1,2.438-.093h2.4l9.441,0c6.212,0,12.25,0,18.049.006h.086l.059.061,24.194,24.973.05.052v.07c-.031,17.867-.056,32.655-.074,42.991-.016,2.583,0,4.878-.043,6.888a6.205,6.205,0,0,1-2.3,4.425,6.131,6.131,0,0,1-2.856,1.276,4.688,4.688,0,0,1-.8.072c-.181,0-.272,0-.272,0" transform="translate(-5.59 -17.712)" fill="#1a2e35"/>
          <path id="Trazado_152168" data-name="Trazado 152168" d="M99.883,117.431a2.048,2.048,0,0,1-.474.042l-1.361.04-5,.066-7.422.044-4.388,0a5.954,5.954,0,0,1-5.5-4.151,6.88,6.88,0,0,1-.271-2.355c0-1.518.008-2.984.012-4.383.017-2.78.032-5.292.045-7.422.027-2.07.05-3.765.066-5,.016-.553.03-1,.04-1.361a2.009,2.009,0,0,1,.043-.474,2.047,2.047,0,0,1,.042.474c.011.357.023.807.04,1.361.017,1.239.04,2.934.067,5,.013,2.131.028,4.642.045,7.422,0,1.4.008,2.865.012,4.383a6.49,6.49,0,0,0,.258,2.23,5.561,5.561,0,0,0,5.112,3.864l4.376.021,7.422.047,5,.067,1.361.04a2.045,2.045,0,0,1,.474.042" transform="translate(-14.493 -17.762)" fill="#1a2e35"/>
          <path id="Trazado_152169" data-name="Trazado 152169" d="M68.382,113.646c0,.116-5.825.21-13.01.21s-13.011-.094-13.011-.21,5.824-.21,13.011-.21,13.01.094,13.01.21" transform="translate(-8.136 -21.788)" fill="#1a2e35"/>
          <path id="Trazado_152170" data-name="Trazado 152170" d="M80.727,125.508c0,.116-8.589.21-19.183.21s-19.184-.094-19.184-.21,8.588-.21,19.184-.21,19.183.094,19.183.21" transform="translate(-8.136 -24.066)" fill="#1a2e35"/>
          <path id="Trazado_152171" data-name="Trazado 152171" d="M80.727,137.371c0,.116-8.589.21-19.183.21s-19.184-.094-19.184-.21,8.588-.21,19.184-.21,19.183.094,19.183.21" transform="translate(-8.136 -26.345)" fill="#1a2e35"/>
          <path id="Trazado_152172" data-name="Trazado 152172" d="M80.727,149.233c0,.116-8.589.21-19.183.21s-19.184-.094-19.184-.21,8.588-.21,19.184-.21,19.183.094,19.183.21" transform="translate(-8.136 -28.623)" fill="#1a2e35"/>
          <path id="Trazado_152173" data-name="Trazado 152173" d="M80.727,161.1c0,.116-8.589.21-19.183.21s-19.184-.094-19.184-.21,8.588-.21,19.184-.21,19.183.094,19.183.21" transform="translate(-8.136 -30.901)" fill="#1a2e35"/>
          <path id="Trazado_152174" data-name="Trazado 152174" d="M80.727,172.958c0,.116-8.589.21-19.183.21s-19.184-.094-19.184-.21,8.588-.21,19.184-.21,19.183.094,19.183.21" transform="translate(-8.136 -33.18)" fill="#1a2e35"/>
          <path id="Trazado_152175" data-name="Trazado 152175" d="M54.159,171.3H19.09a3.41,3.41,0,0,1-3.41-3.41v-12a3.411,3.411,0,0,1,3.41-3.411H54.159a3.411,3.411,0,0,1,3.411,3.411v12a3.411,3.411,0,0,1-3.411,3.41" transform="translate(-3.012 -29.287)" fill="#31313c"/>
          <path id="Trazado_152178" data-name="Trazado 152178" d="M88.405,325.11H39.086a6.17,6.17,0,0,1-6.171-6.171V250.675a6.171,6.171,0,0,1,6.17-6.171H70.364l24.212,24.955v49.48a6.171,6.171,0,0,1-6.171,6.171" transform="translate(-6.322 -46.962)" fill="#ececec"/>
          <path id="Trazado_152179" data-name="Trazado 152179" d="M79.267,244.5v19.213a5.739,5.739,0,0,0,5.739,5.74l18.473,0Z" transform="translate(-15.225 -46.962)" fill="#f5f5f5"/>
          <path id="Trazado_152180" data-name="Trazado 152180" d="M79.579,270.371s-.243,4.659,5.062,6.191a5.752,5.752,0,0,0,.608.137c2.412.431,18.291,3.256,18.291,2.891v-5.163H85.065s-4.612-.158-5.487-4.057" transform="translate(-15.284 -51.93)" fill="#e1e1e1"/>
          <path id="Trazado_152181" data-name="Trazado 152181" d="M88.355,325.06c0-.029.37.008,1.066-.126a6.176,6.176,0,0,0,2.8-1.3,6.1,6.1,0,0,0,2.209-4.352c.032-1.991,0-4.3,0-6.879-.018-10.336-.044-25.124-.074-42.991l.049.123L70.169,244.593l.145.061-18.049.006-9.441,0h-2.4a15.787,15.787,0,0,0-2.369.086,5.966,5.966,0,0,0-3.872,2.415A5.882,5.882,0,0,0,33.1,250.2c-.044,1.094-.012,2.237-.022,3.347q0,3.353,0,6.659,0,6.612,0,13.018c0,8.535-.009,16.768-.012,24.61q0,5.881-.009,11.46,0,2.787-.006,5.491,0,1.351,0,2.682a14.146,14.146,0,0,0,.114,2.6,6.017,6.017,0,0,0,2.793,3.968,5.948,5.948,0,0,0,2.276.8,22.843,22.843,0,0,0,2.427.065l9.309.014,28.093.067,7.638.039,1.986.021c.448.007.677.022.677.022s-.229.015-.677.022l-1.986.021-7.638.039-28.093.067-9.309.014a23,23,0,0,1-2.471-.061,6.277,6.277,0,0,1-2.405-.843,6.357,6.357,0,0,1-2.962-4.188,14.482,14.482,0,0,1-.126-2.664q0-1.331,0-2.682,0-2.7,0-5.491,0-5.572-.009-11.46c0-7.843-.008-16.075-.012-24.61q0-6.4,0-13.018,0-3.306,0-6.659c.01-1.123-.023-2.223.022-3.377a6.312,6.312,0,0,1,1.169-3.249,6.386,6.386,0,0,1,4.146-2.585,15.945,15.945,0,0,1,2.438-.092h2.4l9.441,0,18.049.007H70.4l.059.061,24.194,24.973.05.052v.07c-.031,17.867-.056,32.655-.074,42.991-.016,2.583,0,4.878-.043,6.888a6.205,6.205,0,0,1-2.3,4.425,6.119,6.119,0,0,1-2.856,1.275,4.626,4.626,0,0,1-.8.073c-.181,0-.272,0-.272,0" transform="translate(-6.271 -46.912)" fill="#1a2e35"/>
          <path id="Trazado_152182" data-name="Trazado 152182" d="M103.429,269.459a1.993,1.993,0,0,1-.474.042l-1.361.04-5,.066-7.422.044-4.388,0a5.955,5.955,0,0,1-5.5-4.15,6.887,6.887,0,0,1-.271-2.356c0-1.518.008-2.984.012-4.383.017-2.78.032-5.292.045-7.422.027-2.07.05-3.765.067-5,.015-.553.029-1,.039-1.361a2.009,2.009,0,0,1,.043-.474,2.047,2.047,0,0,1,.042.474c.011.357.023.807.04,1.361.017,1.239.04,2.934.067,5,.013,2.131.028,4.642.045,7.422,0,1.4.008,2.865.012,4.383a6.49,6.49,0,0,0,.258,2.23,5.561,5.561,0,0,0,5.112,3.864l4.376.021,7.422.047,5,.067,1.361.04a2.066,2.066,0,0,1,.474.043" transform="translate(-15.175 -46.962)" fill="#1a2e35"/>
          <path id="Trazado_152183" data-name="Trazado 152183" d="M71.927,265.673c0,.116-5.825.21-13.01.21s-13.011-.094-13.011-.21,5.824-.21,13.011-.21,13.01.094,13.01.21" transform="translate(-8.817 -50.988)" fill="#1a2e35"/>
          <path id="Trazado_152184" data-name="Trazado 152184" d="M84.273,277.536c0,.116-8.589.21-19.183.21s-19.184-.094-19.184-.21,8.588-.21,19.184-.21,19.183.094,19.183.21" transform="translate(-8.817 -53.266)" fill="#1a2e35"/>
          <path id="Trazado_152185" data-name="Trazado 152185" d="M84.273,289.4c0,.116-8.589.21-19.183.21s-19.184-.094-19.184-.21,8.588-.21,19.184-.21,19.183.094,19.183.21" transform="translate(-8.817 -55.544)" fill="#1a2e35"/>
          <path id="Trazado_152186" data-name="Trazado 152186" d="M84.273,301.261c0,.116-8.589.21-19.183.21s-19.184-.094-19.184-.21,8.588-.21,19.184-.21,19.183.094,19.183.21" transform="translate(-8.817 -57.823)" fill="#1a2e35"/>
          <path id="Trazado_152187" data-name="Trazado 152187" d="M84.273,313.123c0,.116-8.589.21-19.183.21s-19.184-.094-19.184-.21,8.588-.21,19.184-.21,19.183.094,19.183.21" transform="translate(-8.817 -60.101)" fill="#1a2e35"/>
          <path id="Trazado_152188" data-name="Trazado 152188" d="M84.273,324.986c0,.116-8.589.21-19.183.21s-19.184-.094-19.184-.21,8.588-.21,19.184-.21,19.183.094,19.183.21" transform="translate(-8.817 -62.38)" fill="#1a2e35"/>
          <path id="Trazado_152189" data-name="Trazado 152189" d="M63.592,323.329H23.158a3.7,3.7,0,0,1-3.932-3.41v-12a3.7,3.7,0,0,1,3.932-3.411H63.592a3.7,3.7,0,0,1,3.932,3.411v12a3.7,3.7,0,0,1-3.932,3.41" transform="translate(-3.693 -58.487)" fill="#31313c"/>
          <path id="Trazado_152193" data-name="Trazado 152193" d="M225.921,365.172H176.6A6.17,6.17,0,0,1,170.431,359V290.737a6.17,6.17,0,0,1,6.17-6.171H207.88l24.212,24.955V359a6.171,6.171,0,0,1-6.171,6.171" transform="translate(-32.734 -54.657)" fill="#ececec"/>
          <path id="Trazado_152194" data-name="Trazado 152194" d="M216.783,284.566v19.213a5.739,5.739,0,0,0,5.739,5.74l18.473,0Z" transform="translate(-41.637 -54.657)" fill="#f5f5f5"/>
          <path id="Trazado_152195" data-name="Trazado 152195" d="M217.095,310.433s-.243,4.659,5.062,6.191a5.791,5.791,0,0,0,.608.137c2.412.431,18.291,3.256,18.291,2.891V314.49H222.581s-4.612-.158-5.487-4.057" transform="translate(-41.697 -59.625)" fill="#e1e1e1"/>
          <path id="Trazado_152196" data-name="Trazado 152196" d="M225.871,365.122c0-.029.37.008,1.066-.126a6.177,6.177,0,0,0,2.8-1.3,6.1,6.1,0,0,0,2.209-4.352c.031-1.991,0-4.3,0-6.879-.018-10.336-.044-25.124-.074-42.991l.049.123-24.231-24.938.145.061-18.049.006-9.441,0h-2.4a15.8,15.8,0,0,0-2.368.086,5.966,5.966,0,0,0-3.872,2.415,5.881,5.881,0,0,0-1.091,3.035c-.044,1.094-.012,2.237-.022,3.347q0,3.353,0,6.659,0,6.612,0,13.018c0,8.535-.009,16.768-.012,24.61q0,5.881-.009,11.46,0,2.787-.006,5.491,0,1.351,0,2.682a14.144,14.144,0,0,0,.114,2.6,6.005,6.005,0,0,0,5.069,4.771,22.835,22.835,0,0,0,2.427.065l9.309.014,28.093.067,7.638.039,1.986.021c.448.007.677.022.677.022s-.229.015-.677.022l-1.986.02-7.638.04-28.093.067-9.309.014a22.988,22.988,0,0,1-2.471-.061,6.276,6.276,0,0,1-2.405-.843,6.357,6.357,0,0,1-2.962-4.188,14.482,14.482,0,0,1-.126-2.664q0-1.331,0-2.682,0-2.7,0-5.491,0-5.572-.009-11.46c0-7.843-.008-16.075-.012-24.61q0-6.4,0-13.018,0-3.306,0-6.659c.01-1.123-.023-2.224.022-3.377a6.312,6.312,0,0,1,1.169-3.25,6.386,6.386,0,0,1,4.146-2.585,15.935,15.935,0,0,1,2.437-.092h2.4l9.441,0,18.049.006h.086l.059.061,24.194,24.973.05.052v.07c-.031,17.867-.057,32.655-.074,42.991-.016,2.583,0,4.878-.043,6.888a6.2,6.2,0,0,1-2.3,4.425,6.118,6.118,0,0,1-2.856,1.275,4.621,4.621,0,0,1-.8.073c-.181,0-.272,0-.272,0" transform="translate(-32.684 -54.606)" fill="#1a2e35"/>
          <path id="Trazado_152197" data-name="Trazado 152197" d="M240.945,309.521a2.052,2.052,0,0,1-.474.042l-1.361.04-5,.066-7.422.044-4.388,0a5.955,5.955,0,0,1-5.5-4.15,6.868,6.868,0,0,1-.271-2.356c0-1.518.008-2.984.012-4.383.017-2.78.032-5.292.045-7.422.027-2.07.05-3.765.066-5,.016-.553.03-1,.04-1.361a2.005,2.005,0,0,1,.043-.474,2.049,2.049,0,0,1,.042.474c.011.357.023.807.04,1.361.017,1.239.04,2.934.067,5,.013,2.13.028,4.642.045,7.422,0,1.4.008,2.865.012,4.383a6.49,6.49,0,0,0,.258,2.23,5.561,5.561,0,0,0,5.112,3.864l4.376.021,7.422.047,5,.067,1.361.04a2.01,2.01,0,0,1,.474.043" transform="translate(-41.587 -54.657)" fill="#1a2e35"/>
          <path id="Trazado_152198" data-name="Trazado 152198" d="M209.444,305.736c0,.116-5.825.21-13.01.21s-13.011-.094-13.011-.21,5.824-.21,13.011-.21,13.01.094,13.01.21" transform="translate(-35.23 -58.682)" fill="#1a2e35"/>
          <path id="Trazado_152199" data-name="Trazado 152199" d="M221.789,317.6c0,.116-8.589.21-19.183.21s-19.184-.094-19.184-.21,8.587-.21,19.184-.21,19.183.094,19.183.21" transform="translate(-35.23 -60.961)" fill="#1a2e35"/>
          <path id="Trazado_152200" data-name="Trazado 152200" d="M221.789,329.46c0,.116-8.589.21-19.183.21s-19.184-.094-19.184-.21,8.587-.21,19.184-.21,19.183.094,19.183.21" transform="translate(-35.23 -63.239)" fill="#1a2e35"/>
          <path id="Trazado_152201" data-name="Trazado 152201" d="M221.789,341.323c0,.116-8.589.21-19.183.21s-19.184-.094-19.184-.21,8.587-.21,19.184-.21,19.183.094,19.183.21" transform="translate(-35.23 -65.518)" fill="#1a2e35"/>
          <path id="Trazado_152202" data-name="Trazado 152202" d="M221.789,353.185c0,.116-8.589.21-19.183.21s-19.184-.094-19.184-.21,8.587-.21,19.184-.21,19.183.094,19.183.21" transform="translate(-35.23 -67.796)" fill="#1a2e35"/>
          <path id="Trazado_152203" data-name="Trazado 152203" d="M221.789,365.048c0,.116-8.589.21-19.183.21s-19.184-.094-19.184-.21,8.587-.21,19.184-.21,19.183.094,19.183.21" transform="translate(-35.23 -70.075)" fill="#1a2e35"/>
          <path id="Trazado_152204" data-name="Trazado 152204" d="M195.222,363.391H160.153a3.411,3.411,0,0,1-3.41-3.41v-12a3.411,3.411,0,0,1,3.41-3.411h35.069a3.41,3.41,0,0,1,3.409,3.411v12a3.41,3.41,0,0,1-3.409,3.41" transform="translate(-30.105 -66.181)" fill="#31313c"/>
          <text id="_text_" data-name="&lt;text&gt;" transform="translate(25.548 258.931)" fill="#fff" font-size="9" font-family="Roboto-Bold, Roboto" font-weight="700"><tspan x="0" y="0">&lt;text&gt;</tspan></text>
          <text id="_head_" data-name="&lt;head&gt;" transform="translate(17.941 136.263)" fill="#fff" font-size="9" font-family="Roboto-Bold, Roboto" font-weight="700"><tspan x="0" y="0">&lt;head&gt;</tspan></text>
          <text id="_body_" data-name="&lt;body&gt;" transform="translate(131.583 291.299)" fill="#fff" font-size="10" font-family="Roboto-Bold, Roboto" font-weight="700"><tspan x="0" y="0">&lt;body&gt;</tspan></text>
          <rect id="Rectángulo_388314" data-name="Rectángulo 388314" width="53" height="18" rx="3" transform="translate(228.104 217.248)" fill="#31313c"/>
          <text id="JavaScript" transform="translate(230.604 229.748)" fill="#fff" font-size="10" font-family="Roboto-Bold, Roboto" font-weight="700"><tspan x="0" y="0">JavaScript</tspan></text>
        </g>
      </g>
    </g>
  </g>
</svg>
