<svg xmlns="http://www.w3.org/2000/svg" width="46.214" height="45.718" viewBox="0 0 46.214 45.718">
  <g id="Visual_Studio_Code" data-name="Visual Studio Code" transform="translate(-167.146 -156.915)">
    <path id="Trazado_844112" data-name="Trazado 844112" d="M167.585,673.077s-1.126-.812.226-1.9l3.147-2.814a1.337,1.337,0,0,1,1.853-.122l29.041,21.987v10.543s-.015,1.655-2.138,1.474Z" transform="translate(0 -500.221)" fill="#2489ca"/>
    <path id="Trazado_844113" data-name="Trazado 844113" d="M179.6,1235.5l-7.484,6.8s-.769.571,0,1.594l3.476,3.16a1.429,1.429,0,0,0,2.045-.122l7.935-6.016Z" transform="translate(-4.535 -1055.848)" fill="#1070b3"/>
    <path id="Trazado_844114" data-name="Trazado 844114" d="M833.372,197.52,847.1,187.038l-.089-10.488s-.586-2.289-2.542-1.1L826.2,192.079Z" transform="translate(-645.161 -17.811)" fill="#0877b9"/>
    <path id="Trazado_844115" data-name="Trazado 844115" d="M1693.2,202.042a1.889,1.889,0,0,0,1.765.548l10.7-5.272a2.252,2.252,0,0,0,1.176-2.091V163.749a2.1,2.1,0,0,0-1.417-1.861l-9.271-4.469a2.576,2.576,0,0,0-3.354.226s1.708-1.229,2.542,1.1v41.622a1.884,1.884,0,0,1-.183.82c-.245.493-.774.953-2.045.759Z" transform="translate(-1493.492)" fill="#3c99d4"/>
  </g>
</svg>
